<svg fill="#909A7F" id="Capa_1" enable-background="new 0 0 512 512" height="70" viewBox="0 0 512 512" width="70" xmlns="http://www.w3.org/2000/svg"><g><g><path d="m453.723 158.757c-19.963-19.963-46.506-30.958-74.738-30.958s-54.775 10.995-74.738 30.958l-41.904 41.903-16.346-16.346c-2.928-2.929-7.677-2.929-10.606 0s-2.929 7.677 0 10.606l21.649 21.65c1.406 1.407 3.314 2.197 5.303 2.197s3.897-.79 5.303-2.197l47.207-47.207c17.13-17.13 39.906-26.564 64.131-26.564 24.226 0 47.001 9.434 64.132 26.564 35.362 35.362 35.362 92.901 0 128.263l-31.127 31.127c-2.929 2.929-2.929 7.678 0 10.606 1.464 1.464 3.384 2.197 5.303 2.197s3.839-.732 5.303-2.197l31.127-31.127c41.212-41.209 41.212-108.264.001-149.475z"/><path d="m387.241 353.502-124.265 124.266c-.349.349-.917.349-1.266 0l-15.337-15.337 85.542-85.542c10.569-10.569 10.569-27.767 0-38.335-3.022-3.022-6.635-5.235-10.575-6.548l2.256-2.256c10.569-10.57 10.568-27.767 0-38.336-3.076-3.076-6.715-5.25-10.587-6.536l1.344-1.344c10.569-10.57 10.569-27.767 0-38.336-5.12-5.12-11.927-7.94-19.167-7.94-7.24 0-14.048 2.82-19.168 7.94l-11.512 11.512c-1.286-3.872-3.46-7.511-6.536-10.587-10.569-10.569-27.767-10.569-38.336 0l-19.39 19.39c-2.929 2.929-2.929 7.678 0 10.606 2.929 2.929 7.678 2.929 10.606 0l19.39-19.39c2.287-2.287 5.328-3.546 8.562-3.546s6.274 1.26 8.562 3.546c4.721 4.721 4.721 12.402 0 17.123l-77.643 77.642.002-.001-.002.001c-2.929 2.929-2.929 7.678 0 10.606 2.929 2.929 7.678 2.929 10.606 0l106.296-106.296c2.287-2.287 5.328-3.546 8.562-3.546s6.274 1.26 8.562 3.546c4.721 4.721 4.721 12.402 0 17.123l-106.297 106.296c-2.929 2.929-2.929 7.678 0 10.606 2.929 2.93 7.678 2.929 10.606 0l87.81-87.81c2.287-2.287 5.328-3.546 8.562-3.546s6.274 1.259 8.562 3.546c4.721 4.721 4.721 12.402 0 17.123l-87.81 87.81c-2.929 2.929-2.929 7.678 0 10.606 2.929 2.93 7.678 2.929 10.606 0l68.402-68.402c2.287-2.285 5.326-3.544 8.559-3.544 3.234 0 6.274 1.259 8.562 3.546 4.721 4.721 4.721 12.402 0 17.123l-109.983 109.985c-27.657 27.655-72.656 27.655-100.312 0-16.603-16.603-23.896-40.315-19.511-63.432 1.524-8.034 2.297-16.363 2.297-24.755v-67.143c0-6.676 5.432-12.108 12.108-12.108s12.108 5.432 12.108 12.108v29.911c0 3.033 1.827 5.768 4.63 6.929 2.802 1.162 6.028.52 8.173-1.626l55.283-55.283c2.929-2.929 2.929-7.678 0-10.606-2.929-2.929-7.678-2.929-10.606 0l-42.479 42.479v-11.804c0-14.947-12.161-27.108-27.108-27.108-7.735 0-14.719 3.262-19.662 8.476l-4.677-4.677c-26.576-26.575-33.148-65.665-19.777-98.464 1.051 2.458 2.051 5.21 3.059 8.333 1.372 4.25 5.298 7.105 9.77 7.105 4.471 0 8.397-2.855 9.77-7.104 6.029-18.67 11.707-24.349 30.379-30.378 4.249-1.373 7.104-5.299 7.104-9.771 0-4.471-2.856-8.397-7.104-9.769-4.401-1.421-8.073-2.825-11.205-4.382 34.214-17.928 77.55-12.553 106.268 16.165l.809.809c2.927 2.929 7.676 2.931 10.606.003s2.931-7.677.003-10.606l-.81-.811c-34.955-34.955-88.492-40.235-129.092-15.891-2.681-3.966-4.798-8.979-6.957-15.664-1.372-4.25-5.298-7.105-9.77-7.105s-8.397 2.855-9.77 7.104c-6.029 18.671-11.708 24.349-30.377 30.378-4.25 1.372-7.104 5.297-7.105 9.769 0 4.472 2.854 8.398 7.104 9.771 7.594 2.452 13.038 4.846 17.231 8.08-20.387 39.745-13.984 89.793 19.258 123.034l8.215 8.215c-.244 1.46-.378 2.958-.378 4.486v67.143c0 7.457-.685 14.844-2.034 21.959-5.311 27.997 3.527 56.72 23.642 76.835 16.751 16.753 38.756 25.129 60.761 25.129s44.01-8.376 60.762-25.128l13.835-13.835 15.337 15.337c3.002 3.002 6.994 4.655 11.239 4.655s8.237-1.653 11.239-4.655l124.265-124.265c2.929-2.929 2.929-7.678 0-10.606-2.929-2.929-7.678-2.929-10.606-.001zm-336.458-186.153c11.486-5.375 18.463-12.352 23.838-23.838 5.375 11.486 12.352 18.463 23.838 23.838-11.486 5.375-18.463 12.352-23.838 23.838-5.374-11.486-12.352-18.464-23.838-23.838z"/><path d="m380.319 278.06c1.372 4.25 5.298 7.105 9.77 7.105 4.471 0 8.397-2.855 9.77-7.104 6.029-18.67 11.707-24.349 30.379-30.378 4.249-1.373 7.104-5.299 7.104-9.771 0-4.471-2.856-8.397-7.104-9.769-18.671-6.029-24.349-11.707-30.378-30.377-1.372-4.25-5.298-7.105-9.77-7.105s-8.397 2.855-9.77 7.104c-6.029 18.671-11.707 24.349-30.377 30.378-4.249 1.372-7.104 5.297-7.105 9.769s2.854 8.397 7.104 9.771c18.67 6.028 24.348 11.706 30.377 30.377zm9.77-63.986c5.375 11.485 12.352 18.463 23.838 23.838-11.485 5.375-18.463 12.353-23.838 23.838-5.375-11.486-12.353-18.464-23.838-23.838 11.485-5.374 18.463-12.352 23.838-23.838z"/><path d="m117.809 57.021c18.67 6.029 24.349 11.707 30.378 30.377 1.372 4.25 5.298 7.105 9.77 7.105s8.398-2.855 9.77-7.104c6.029-18.671 11.708-24.349 30.377-30.378 4.25-1.372 7.105-5.298 7.105-9.77s-2.855-8.398-7.104-9.77c-18.671-6.029-24.349-11.707-30.378-30.377-1.373-4.249-5.299-7.104-9.77-7.104s-8.397 2.855-9.77 7.105c-6.029 18.67-11.707 24.349-30.377 30.377-4.25 1.372-7.105 5.298-7.105 9.77 0 4.471 2.855 8.397 7.104 9.769zm40.148-33.607c5.375 11.485 12.353 18.463 23.838 23.837-11.486 5.375-18.463 12.353-23.838 23.838-5.375-11.485-12.353-18.463-23.838-23.838 11.485-5.374 18.463-12.352 23.838-23.837z"/><path d="m226.602 112.473c16.336 5.275 21.002 9.941 26.278 26.277 1.329 4.117 5.132 6.883 9.463 6.883s8.134-2.766 9.463-6.882c5.275-16.336 9.941-21.002 26.278-26.278 4.116-1.33 6.881-5.133 6.881-9.464s-2.767-8.134-6.882-9.462c-16.336-5.275-21.002-9.941-26.277-26.277-1.329-4.117-5.132-6.883-9.463-6.883s-8.134 2.766-9.463 6.882c-5.275 16.336-9.941 21.002-26.277 26.277-4.116 1.329-6.882 5.131-6.883 9.462 0 4.331 2.765 8.135 6.882 9.465zm35.741-28.511c4.462 8.862 10.185 14.585 19.047 19.047-8.861 4.461-14.585 10.186-19.047 19.047-4.462-8.862-10.186-14.585-19.048-19.047 8.863-4.461 14.586-10.184 19.048-19.047z"/></g></g></svg>