<?xml version="1.0" encoding="utf-8"?>
<!-- Generator: Adobe Illustrator 24.0.2, SVG Export Plug-In . SVG Version: 6.00 Build 0)  -->
<svg version="1.1" id="Layer_1" xmlns="http://www.w3.org/2000/svg" xmlns:xlink="http://www.w3.org/1999/xlink" x="0px" y="0px"
	 viewBox="0 0 140 140" style="enable-background:new 0 0 140 140;" xml:space="preserve">
<g>
	<g>
		<g>
			<path d="M98.7,80.1c-0.3,0-0.5,0.2-0.5,0.5c0,3.2-9,6.7-22.3,6.7s-22.3-3.5-22.3-6.7c0-0.3-0.2-0.5-0.5-0.5
				c-0.3,0-0.5,0.2-0.5,0.5c0,4.9,11.9,7.8,23.4,7.8s23.4-2.9,23.4-7.8C99.2,80.4,99,80.1,98.7,80.1z"/>
			<path d="M109.8,65.2c-0.2-0.1-4-2.2-9.1-3c1.9-3.5,2.7-6.6,2.7-6.8l-0.4-0.6c-0.2-0.1-3.4-1.1-7.4-1.4c0.3-4.8-0.7-8.7-0.8-8.9
				l-0.7-0.4c-0.3,0.1-5.1,1.5-9.8,4.8c-2.8-5.3-7.2-8.9-7.5-9.1h-0.7c-0.3,0.2-4.8,3.9-7.6,9.4c-4.8-3.5-9.8-4.9-10.1-5l-0.7,0.4
				c-0.1,0.3-1.1,4.2-0.8,9.1c-4.5,0.1-8.2,1.4-8.4,1.5l-0.3,0.7c0.1,0.2,0.9,3.3,3,6.6c-4.6,0.9-7.9,2.7-8.2,2.9L42.8,66
				c0.2,0.4,5.7,9.3,14.8,11.8c0.6,0.2,1.1,0.3,1.7,0.4c0.5,3,8.7,4.8,16.6,4.8c7.8,0,15.9-1.7,16.6-4.6c0.8-0.1,1.7-0.3,2.6-0.5
				c9.2-2.5,14.6-11.4,14.8-11.8L109.8,65.2z M95.5,54.5c3.1,0.2,5.7,0.8,6.7,1.1c-0.3,1-1.1,3.6-2.7,6.4c-1.9-0.2-4-0.3-6.1,0
				C94.6,59.5,95.2,56.9,95.5,54.5z M93.9,45.3c0.5,2.2,1.9,10.7-2.2,17.6c-4.2,6.9-12.8,10.1-15,10.8c-0.5-2.2-1.9-10.7,2.2-17.6
				C83,49.2,91.6,46.1,93.9,45.3z M76.1,54.5c0.1,0,0.3,0,0.4,0c0.1,0,0.3,0,0.4,0l-0.9,4c-0.2-0.4-0.3-0.8-0.5-1.3L76.1,54.5z
				 M75.1,56.5c-0.2-0.3-0.3-0.6-0.5-0.9c-0.1-0.2-0.2-0.3-0.3-0.5c0.4-0.2,0.8-0.4,1.3-0.5L75.1,56.5z M77.4,54.6
				c0.3,0.1,0.6,0.2,0.9,0.3c-0.2,0.2-0.3,0.5-0.5,0.7c-0.5,0.8-0.9,1.6-1.2,2.4L77.4,54.6C77.4,54.6,77.4,54.6,77.4,54.6z
				 M76.5,40.9c1.1,1,4.7,4.2,7,8.6c-1.7,1.3-3.4,2.9-4.8,4.9C78,54.1,77.3,54,76.5,54c-0.9,0-1.8,0.3-2.5,0.7
				c-1.3-1.9-2.9-3.5-4.6-4.8C71.7,45.3,75.3,41.9,76.5,40.9z M58.6,45.3c2.2,0.7,10.9,3.9,15,10.8c0.9,1.5,1.6,3.2,2,4.8
				c-1.4,5.4-0.7,10.5-0.2,12.6c-2.8-1-10.6-4.1-14.6-10.7C56.7,56,58.1,47.6,58.6,45.3z M49.4,56c1.1-0.4,4.1-1.2,7.7-1.2
				c0.3,2.3,0.9,4.8,2.1,7.3c-2.3-0.3-4.6-0.2-6.7,0.2C50.7,59.5,49.7,57,49.4,56z M58,76.7c-7.5-2-12.6-8.9-13.9-10.8
				C46,65,52.8,62,59.8,63.2c0.1,0.1,0.1,0.2,0.1,0.3c2.7,4.4,6.9,7.3,10.3,9.1c-5.7,2.3-11.9,2.2-16.4-0.5c-0.2-0.1-0.4,0-0.5,0.1
				c-0.1,0.2,0,0.4,0.1,0.5c2.5,1.5,5.5,2.2,8.7,2.2c3,0,6.1-0.7,9-2c1.6,0.8,2.9,1.3,3.8,1.6C72.5,75.7,65.1,78.7,58,76.7z
				 M76,82.3c-9,0-15.2-2-15.9-4.1c1,0.1,2,0.2,3,0.2c7,0,12.9-3.2,13.3-3.4c0.4,0.2,6.3,3.4,13.3,3.4c0.7,0,1.4,0,2.2-0.1
				C91.1,80.3,84.9,82.3,76,82.3z M94.8,76.7c-7.3,2-14.8-1.1-17.2-2.2c3.1-1.1,10.8-4.3,14.9-11c0-0.1,0.1-0.1,0.1-0.2
				c7.1-1.3,14.1,1.7,16,2.6C107.4,67.8,102.4,74.7,94.8,76.7z"/>
			<path d="M47.6,66.3c-0.1-0.2-0.4-0.2-0.5-0.1c-0.2,0.1-0.2,0.4-0.1,0.5c0.4,0.6,0.9,1.2,1.4,1.8c0.1,0.1,0.2,0.1,0.3,0.1
				c0.1,0,0.2,0,0.3-0.1c0.2-0.1,0.2-0.4,0-0.5C48.4,67.5,48,66.9,47.6,66.3z"/>
			<path d="M52.7,71.3c-1-0.7-2-1.5-2.8-2.3c-0.2-0.1-0.4-0.1-0.5,0c-0.1,0.2-0.1,0.4,0,0.5c0.9,0.9,1.9,1.7,2.9,2.4
				c0.1,0,0.1,0.1,0.2,0.1c0.1,0,0.2-0.1,0.3-0.2C52.9,71.7,52.8,71.4,52.7,71.3z"/>
			<path d="M95.2,80c0-0.2-0.1-0.3-0.3-0.3c-0.2,0-0.3,0.1-0.3,0.3c0,2.4-7.5,5-18.6,5s-18.6-2.6-18.6-5c0-0.2-0.1-0.3-0.3-0.3
				s-0.3,0.1-0.3,0.3c0,3.2,8.4,5.6,19.2,5.6S95.2,83.1,95.2,80z"/>
		</g>
	</g>
</g>
</svg>
