<svg fill="#909A7F" id="Layer_1" enable-background="new 0 0 480 480" height="70" viewBox="0 0 480 480" width="70" xmlns="http://www.w3.org/2000/svg"><g><path d="m76.91 262h5.485c15.376 0 24.412-17.333 15.596-29.938l-31.404-44.904c-7.566-10.818-23.615-10.816-31.179 0l-31.398 44.895c-8.813 12.603.214 29.947 15.601 29.947h5.474c.222 22.826.042 65.063-.689 84.459-.167 4.415 3.277 8.129 7.692 8.296 4.433.174 8.129-3.276 8.296-7.692.837-22.168.96-73.777.591-93.215-.083-4.357-3.64-7.848-7.999-7.848h-13.365c-2.46 0-3.907-2.75-2.489-4.777l31.397-44.896c1.203-1.72 3.746-1.73 4.957 0l31.403 44.904c1.418 2.027-.034 4.769-2.484 4.769h-13.377c-4.359 0-7.916 3.49-7.999 7.848-.369 19.438-.246 71.047.591 93.215.163 4.313 3.709 7.698 7.989 7.698 4.551 0 8.171-3.777 8-8.302-.732-19.396-.911-61.633-.689-84.459z"/><path d="m475.99 222.062-31.403-44.904c-7.563-10.815-23.614-10.818-31.179 0l-31.397 44.896c-8.815 12.602.213 29.947 15.6 29.947h5.495c.194 14.93.005 25.534-.71 44.459-.171 4.529 3.452 8.302 8 8.302 4.278 0 7.825-3.386 7.988-7.698.847-22.426.969-33.367.592-53.215-.083-4.357-3.64-7.848-7.999-7.848h-13.367c-2.46 0-3.907-2.75-2.488-4.777l31.397-44.896c1.206-1.724 3.748-1.726 4.956 0l31.403 44.904c1.403 2.007-.009 4.769-2.484 4.769h-13.376c-4.359 0-7.916 3.489-7.998 7.848-.378 19.827-.257 30.768.59 53.215.166 4.416 3.904 7.867 8.296 7.692 4.415-.166 7.859-3.881 7.692-8.296-.714-18.939-.904-29.546-.71-44.459h5.506c15.377-.001 24.411-17.333 15.596-29.939z"/><path d="m360.2 360.055-43.102-14.861c-8.614-2.97-16.089-8.363-21.617-15.597-2.683-3.511-7.704-4.182-11.214-1.499-3.511 2.683-4.182 7.703-1.499 11.214 3.876 5.072 8.468 9.466 13.612 13.083-18.172 31.509-58.914 42.179-90.218 23.073-3.774-2.306-8.695-1.111-10.997 2.66s-1.11 8.694 2.661 10.996c39.132 23.885 90.213 10.442 112.717-29.293 2.058.762 40.928 14.126 44.35 15.317 18.585 6.469 31.103 23.946 31.103 43.625v53.227c0 4.418 3.582 8 8 8s8-3.582 8-8v-53.227c0-26.468-16.792-50.053-41.796-58.718z"/><path d="m346.996 210.125v-66.125c0-3.576-2.374-6.719-5.814-7.695-17.826-5.063-31.934-18.232-38.703-36.135-1.89-4.998-8.087-6.788-12.349-3.52-42.362 32.468-94.949 46.472-148.082 39.419-4.765-.635-9.052 3.072-9.052 7.931v66.125c0 26.671 9.872 52.221 27.796 71.944 2.971 3.27 8.032 3.513 11.301.539 3.27-2.971 3.512-8.03.54-11.301-15.242-16.771-23.637-38.5-23.637-61.183v-57.182c50.93 4.648 100.997-8.571 142.796-37.693 8.605 16.059 22.373 28.22 39.204 34.534v60.341c0 66.601-67.97 108.578-126.421 83.852-6.412-2.713-12.955 3.518-10.651 10.03-.984 18.676-13.199 35.039-31.03 41.187l-43.097 14.859c-25.006 8.664-41.801 32.25-41.801 58.721v53.227c0 4.418 3.582 8 8 8s8-3.582 8-8v-53.227c0-19.679 12.5-37.21 31.104-43.625l-.01-.03c.035.1-1.89.687 43.02-14.798 21.522-7.421 36.966-25.894 40.896-47.753 67.69 20.52 137.99-29.955 137.99-102.442z"/><path d="m134.248 292.713c4.372.636 8.434-2.386 9.074-6.758.64-4.371-2.385-8.435-6.757-9.074-7.736-1.132-13.57-7.931-13.569-15.815v-153.56c0-50.456 41.047-91.506 91.5-91.506h51c50.454 0 91.501 41.05 91.501 91.506v153.56c0 7.885-5.834 14.684-13.569 15.815-4.372.64-7.397 4.703-6.758 9.074.636 4.342 4.662 7.394 9.074 6.758 15.537-2.274 27.253-15.88 27.253-31.647v-153.56c0-59.279-48.225-107.506-107.501-107.506h-51c-59.276 0-107.5 48.227-107.5 107.506v153.56c-.001 15.767 11.715 29.372 27.252 31.647z"/><path d="m214.996 174c-4.418 0-8 3.582-8 8v14c0 4.418 3.582 8 8 8s8-3.582 8-8v-14c0-4.418-3.582-8-8-8z"/><path d="m264.996 204c4.418 0 8-3.582 8-8v-14c0-4.418-3.582-8-8-8s-8 3.582-8 8v14c0 4.418 3.582 8 8 8z"/><path d="m226.561 242.435c-3.124-3.123-8.189-3.123-11.313 0-3.125 3.125-3.125 8.189 0 11.314 13.645 13.645 35.851 13.647 49.498 0 3.124-3.125 3.124-8.189 0-11.314-3.125-3.123-8.189-3.123-11.314 0-7.41 7.408-19.463 7.408-26.871 0z"/></g></svg>