<svg fill="#909A7F" id="Capa_1" enable-background="new 0 0 511.998 511.998" height="70" viewBox="0 0 511.998 511.998" width="70" xmlns="http://www.w3.org/2000/svg"><g><path d="m359.933 71.143h45.598c8.062 0 14.621 6.559 14.621 14.62 0 8.062-6.559 14.621-14.621 14.621h-5.228c-16.333 0-29.621 13.287-29.621 29.62v5.576c0 4.143 3.357 7.5 7.5 7.5s7.5-3.357 7.5-7.5v-5.576c0-8.062 6.559-14.62 14.621-14.62h5.228c16.333 0 29.621-13.288 29.621-29.621s-13.288-29.62-29.621-29.62h-45.598c-8.062 0-14.621-6.559-14.621-14.621v-34.009c0-4.143-3.357-7.5-7.5-7.5s-7.5 3.357-7.5 7.5v34.009c0 16.333 13.288 29.621 29.621 29.621z"/><path d="m375.422 43.972c4.143 0 7.5-3.357 7.5-7.5v-28.959c0-4.143-3.357-7.5-7.5-7.5s-7.5 3.357-7.5 7.5v28.959c0 4.143 3.358 7.5 7.5 7.5z"/><path d="m149.536 52.123h14.688c6.057 0 10.984 4.928 10.984 10.984v18.439c0 4.143 3.358 7.5 7.5 7.5s7.5-3.357 7.5-7.5v-18.439c0-14.328-11.657-25.984-25.984-25.984h-14.688c-6.057 0-10.984-4.928-10.984-10.984v-18.626c0-4.143-3.358-7.5-7.5-7.5s-7.5 3.357-7.5 7.5v18.625c-.001 14.328 11.656 25.985 25.984 25.985z"/><path d="m174.884 26.94c4.142 0 7.5-3.357 7.5-7.5v-11.927c0-4.143-3.358-7.5-7.5-7.5s-7.5 3.357-7.5 7.5v11.927c0 4.143 3.358 7.5 7.5 7.5z"/><path d="m255.799 414.873c-14.345-7.033-27.204-14.519-38.268-22.277-3.39-2.378-8.068-1.557-10.447 1.834-2.378 3.392-1.557 8.068 1.834 10.447 12.564 8.812 27.248 17.255 43.644 25.096 1.023.489 2.129.733 3.236.733 1.106 0 2.212-.245 3.236-.733 64.423-30.807 99.902-69.827 99.902-109.874 0-15.579-5.398-30.202-15.201-41.175-10.299-11.529-24.547-17.879-40.118-17.879-23.832 0-39.762 11.57-47.819 19.41-8.058-7.84-23.987-19.41-47.819-19.41-15.572 0-29.819 6.35-40.119 17.879-9.802 10.973-15.201 25.596-15.201 41.175 0 21.996 11.112 44.468 32.134 64.987 2.965 2.893 7.711 2.835 10.606-.129 2.893-2.964 2.835-7.712-.128-10.605-18.063-17.631-27.611-36.392-27.611-54.253 0-25.114 17.333-44.054 40.319-44.054 27.21 0 41.097 19.183 41.653 19.97 1.393 2.012 3.692 3.201 6.139 3.214h.037c2.433 0 4.727-1.196 6.134-3.184.577-.817 14.463-20 41.674-20 22.985 0 40.319 18.939 40.319 44.054 0 15.33-6.762 30.908-20.097 46.301-15.119 17.454-37.998 33.752-68.039 48.473z"/><path d="m427.93 158.842c-.753-6.165-5.379-10.958-11.511-11.927-6.146-.972-12.035 2.173-14.659 7.821-13.712 29.532-28.699 50.272-44.545 61.644-.127.092-.302.216-.657.029-.447-.234-.441-.592-.438-.726.937-52.688-16.054-104.053-50.498-152.668-2.396-3.379-7.075-4.18-10.456-1.784-3.38 2.396-4.179 7.076-1.783 10.456 33.015 46.598 48.631 93.611 47.739 143.729-.106 6.011 3.139 11.481 8.47 14.277 5.276 2.766 11.548 2.333 16.371-1.127 17.49-12.553 33.081-33.401 47.589-63.668 8.282 69.712 9.189 126.102 2.78 172.28-6.675 48.098-21.119 84.068-44.158 109.971-34.608 38.909-85.228 50.124-137.338 49.844-78.958-.518-143.282-65.186-143.389-144.156-.033-24.339 6.106-48.401 17.759-69.61 33.115-47.654 31.419-107.078-5.366-186.812 34.32 9.776 59.896 32.035 78.13 67.97 2.079 4.098 5.823 7.087 10.271 8.203 4.418 1.107 9.088.249 12.817-2.356 22.614-15.799 36.345-38.129 41.976-68.267 4.191-22.433 3.977-48.698-.727-84.806 10.492 10.28 20.219 20.736 28.947 31.118 2.666 3.169 7.395 3.58 10.567.915 3.171-2.666 3.58-7.396.915-10.567-9.761-11.609-20.711-23.293-32.546-34.724-4.285-4.138-10.487-5.071-15.802-2.381-5.305 2.688-8.216 8.231-7.415 14.123 7.617 56.062 8.709 112.101-34.506 142.291-.072.051-.26.183-.577.104-.243-.062-.426-.209-.543-.44-20.442-40.286-50.797-65.985-90.222-76.384-5.225-1.376-10.624.343-14.087 4.49-3.463 4.148-4.191 9.768-1.901 14.663 35.453 75.791 37.844 131.28 7.524 174.627-.204.292-.385.594-.542.904-12.908 23.448-19.709 50.054-19.672 76.96.117 86.646 70.562 159.14 160.012 159.14 66.011-.001 114.086-17.96 146.923-54.879 48.575-54.612 62.731-149.392 44.548-298.277z"/></g></svg>