<?xml version="1.0" encoding="utf-8"?>
<!-- Generator: Adobe Illustrator 24.0.2, SVG Export Plug-In . SVG Version: 6.00 Build 0)  -->
<svg version="1.1" id="Capa_1" xmlns="http://www.w3.org/2000/svg" xmlns:xlink="http://www.w3.org/1999/xlink" x="0px" y="0px"
	 viewBox="0 0 595.3 841.9" style="enable-background:new 0 0 595.3 841.9;" xml:space="preserve">
<style type="text/css">
	.st0{opacity:0.56;fill:#F9B436;}
</style>
<path class="st0" d="M-31.5,502.6c-5-115.9,192.4-86.2,261.7-127.9c26.4-13.6,42.2-29.4,73.1-60.3c44.9-44.9,43.6-57.2,71.3-73.8
	c37.1-22.3,75.6-21.9,89.5-21.6c233.2,20.7,256.7,333.7,78.6,418.7c-106.5,55.6-112.7,45.6-247.6,58.5
	c-79.3,5.9-101.9,4.7-127.9-0.9C47.3,662.6-39.6,615.4-31.5,502.6z"/>
<image style="overflow:visible;" width="1703" height="2558" xlink:href="25C3FBB7.png"  transform="matrix(0.2746 0 0 0.2746 69.1445 52.6882)">
</image>
</svg>
