<?xml version="1.0" encoding="utf-8"?>
<!-- Generator: Adobe Illustrator 24.0.2, SVG Export Plug-In . SVG Version: 6.00 Build 0)  -->
<svg version="1.1" id="_x2018_лой_x5F_1" xmlns="http://www.w3.org/2000/svg" xmlns:xlink="http://www.w3.org/1999/xlink"
	 x="0px" y="0px" viewBox="0 0 3000 2000" style="enable-background:new 0 0 3000 2000;" xml:space="preserve">
<style type="text/css">
	.st17{fill:#FFFFFF;}
	.st1{fill:#909A7F;}
	.st2{fill:#E4E4E4;}
	.st3{fill:#FFB27D;}
	.st4{fill:#2F2E41;}
	.st5{fill:#FCA56B;}
	.st6{opacity:0.3;}
	.st7{fill:#B3CFF9;}
	.st8{fill:#F4A36C;}
	.st9{fill:#0F2549;}
	.st10{fill:#233862;}
	.st11{opacity:0.5;fill:#2F2E41;enable-background:new    ;}
	.st12{fill:#ABDDDA;}
	.st13{fill:#304F7F;}
	.st14{fill:#ED975D;}
	.st15{fill:#152949;}
	.st16{opacity:0.8;fill:#E4E4E4;enable-background:new    ;}
</style>
<rect class="st17" width="3000" height="2000"/>
<g>
	<g>
		<path class="st1" d="M1547.8,687c0,0,92.1-67.9,258.4,24.6c0,0,86.1,32.7,105.8,116.5c5.2,22.2,15,43,29.4,60.8
			c17.4,21.5,38,56.5,41.9,104c2.1,25.2,9.5,49.6,21.9,71.8c14.4,25.9,29.4,68.3,23.9,128.3c0,0,53.2,57.4,23.3,185.4
			c0,0,24.4,80.2-30.6,152.5c0,0,13.7,92.3-65.9,123.2c0,0-42,96-167,101.8c-18.1,0.8-35.9,5-52.7,11.7c-23.8,9.6-66.5,18.9-128,2.7
			c-99.8-26.2-89.8-86.8-89.8-86.8V701.7L1547.8,687z"/>
		<path class="st1" d="M1494.1,687c0,0-92.1-67.9-258.4,24.6c0,0-90.2,34.3-107.1,122.5c-3.6,18.6-12.1,36-24.5,50.4
			c-19.1,22.3-44.1,61.7-46.1,117.3c-0.7,19.7-6.7,38.9-17.2,55.7c-13.1,21.1-28.5,56.5-29.2,106.9c-0.2,17-4.4,33.8-12.1,49.1
			c-13.5,26.8-29.8,80.5-10.1,164.7c0,0-18.9,62.3,14.2,126.6c8.9,17.2,14.4,35.8,16.1,55c2.2,24.9,11.5,60.2,44.2,82.7
			c14.3,9.8,26.6,22,36.9,35.9c20.8,28,65.3,71,144.9,77c21.8,1.7,43.3,6.2,63.9,13.7c24.5,8.9,65.8,16.4,123.9,1.2
			c99.8-26.2,89.8-86.8,89.8-86.8V701.7L1494.1,687z"/>
		<path class="st2" d="M1437.6,1339c-44.4-5.4-80.1-30.8-106.1-75.4c-0.1-0.2-0.2-0.4-0.3-0.5c-12.2-21.2-5.2-48,15.5-61.2
			c4.2-2.7,7.8-5.6,10.1-8.7c0,0-44.8,6.5-99-15.8c-31.8-13.1-53.3-40.3-53.3-40.3c0.6,0.9,2.9,29.7,29.4,53.8
			c7.7,7,25.7,16,38.6,18.9c13.4,2.9,19.1,16.2,24,28.8c4.1,10.6,9.6,22.5,16.6,34.6c11.7,20.2,25.5,37.1,41.1,50.5
			c-30,13.4-46.9,34.2-56,50.3c-11.5,20.2-13.5,37.7-13.6,38.4c0,0,11.1-21.5,34.7-42.5c20.8-18.5,48.3-27.8,76.4-26.6
			C1415.4,1344.1,1437.6,1339,1437.6,1339z"/>
		<g>
			<path class="st2" d="M1248.3,1470.9c-2.3,0-4.6-0.1-6.9-0.2c-31.2-1.8-57.8-16.3-77.1-42c-30-39.9-23.2-76.3-12.2-99.7
				c0.1-0.3,0.3-0.5,0.4-0.8c4.6-9.5,7.1,8.3,6.6,18.8c-1.2,22.5,16.6,57.4,38.7,76.2c25.6,21.8,67,21.3,98.6,22.4
				c11.8,0.4,21.8,1.2,11.3,8.2C1292.5,1464,1269.3,1470.9,1248.3,1470.9z"/>
		</g>
		<g>
			<path class="st2" d="M1184.2,1590.2c-10.8,5.7-24.2,2.1-30.6-8.1c-37.8-60.7-88.4-104.7-89.1-105l0,0
				C1067.7,1478.6,1142.5,1513.5,1184.2,1590.2L1184.2,1590.2z"/>
		</g>
		<path class="st2" d="M1081.1,1281.9c9-17.1,32.6-23.5,50.9-25.8c21.8-2.8,52.3,1.1,52.3,1.1c-2.9-0.3-47.9-42-99-9.5
			c-3.2-30.7-41-44.1-41-44.1c0.1,0.1,6.2,8.4,11.5,20.5c4.8,11,9.8,27.4,6.4,43.2c-3.1,14.8-13.3,27.1-30.2,36.7
			C1031.9,1303.9,1067.8,1310.9,1081.1,1281.9z"/>
		<path class="st2" d="M1344.6,1111.7c18.5-5.5,39.5,7,54,18.5c17.2,13.7,35.7,38.2,35.7,38.2c-1.8-2.3-3.3-63.6-62.2-77.6
			c19.8-23.7,3.1-60.2,3.1-60.2c0,0.1-1.7,10.4-6.7,22.6c-4.5,11.1-12.8,26.1-26.5,34.7c-12.8,8.1-28.7,9.4-47.3,3.9
			C1294.6,1091.7,1314.6,1122.3,1344.6,1111.7z"/>
		<g>
			<path class="st2" d="M1618.6,1297.6c48.1-5.9,86.8-33.3,114.9-81.7c0.1-0.2,0.2-0.4,0.3-0.6c13.2-22.9,5.7-52-16.8-66.3
				c-4.5-2.9-8.4-6.1-11-9.5c0,0,48.6,7,107.2-17.1c34.4-14.1,57.7-43.6,57.7-43.6c-0.7,0.9-3.2,32.2-31.9,58.3
				c-8.3,7.6-27.8,17.3-41.8,20.4c-14.5,3.2-20.7,17.6-26,31.2c-4.5,11.4-10.4,24.3-17.9,37.5c-12.6,21.9-27.6,40.2-44.5,54.7
				c32.5,14.5,50.8,37,60.7,54.5c12.4,21.9,14.6,40.8,14.7,41.6c0,0-12.1-23.3-37.6-46c-22.6-20.1-52.4-30.2-82.7-28.8
				C1642.5,1303.2,1618.6,1297.6,1618.6,1297.6z"/>
			<g>
				<path class="st2" d="M1792.8,1470.9c2.3,0,4.6-0.1,6.9-0.2c31.2-1.8,57.8-16.3,77.1-42c30-39.9,23.2-76.3,12.2-99.7
					c-0.1-0.3-0.3-0.5-0.4-0.8c-4.6-9.5-7.1,8.3-6.6,18.8c1.2,22.5-16.6,57.4-38.7,76.2c-25.6,21.8-67,21.3-98.6,22.4
					c-11.8,0.4-21.8,1.2-11.3,8.2C1748.6,1464,1771.8,1470.9,1792.8,1470.9z"/>
			</g>
			<g>
				<path class="st2" d="M1652.1,1094.7c1.7-0.6,3.3-1.2,5-1.9c22.3-9.3,37.9-26.7,45.3-50.4c11.4-36.8-3.1-61.6-17.3-75.9
					c-0.2-0.2-0.3-0.3-0.5-0.5c-5.8-5.8-3,7.9,0.1,15.4c6.8,16.2,3,46.1-8.2,65.6c-12.9,22.5-43.3,32.7-66.1,41.6
					c-8.5,3.3-15.6,6.4-6,8.9C1617.9,1100.9,1636.7,1100,1652.1,1094.7z"/>
			</g>
			<g>
				<path class="st2" d="M1809.3,1585.2c8.4,8.8,22.3,9.7,31.7,1.9c55.5-45.6,117.7-71.3,118.4-71.4l0,0
					C1956,1516.1,1873.7,1525.6,1809.3,1585.2L1809.3,1585.2z"/>
			</g>
			<path class="st2" d="M1832.2,962.6c-9-17.1-32.6-23.5-50.9-25.8c-21.8-2.8-52.3,1.1-52.3,1.1c2.9-0.3,47.9-42,99-9.5
				c3.2-30.7,41-44.1,41-44.1c-0.1,0.1-6.2,8.4-11.5,20.5c-4.8,11-9.8,27.4-6.4,43.2c3.1,14.8,13.3,27.1,30.2,36.7
				C1881.3,984.6,1845.5,991.6,1832.2,962.6z"/>
			<path class="st2" d="M1960,1281.9c-9-17.1-32.6-23.5-50.9-25.8c-21.8-2.8-52.3,1.1-52.3,1.1c2.9-0.3,47.9-42,99-9.5
				c3.2-30.7,41-44.1,41-44.1c-0.1,0.1-6.2,8.4-11.5,20.5c-4.8,11-9.8,27.4-6.4,43.2c3.1,14.8,13.3,27.1,30.2,36.7
				C2009.2,1303.9,1973.4,1310.9,1960,1281.9z"/>
		</g>
		<g>
			
				<rect x="1020.4" y="1192.3" transform="matrix(2.351136e-03 -1 1 2.351136e-03 315.1319 2722.9207)" class="st2" width="1003.6" height="22.5"/>
		</g>
	</g>
	<g>
		<path class="st3" d="M2115.1,1215.7c0,0-2.8-6.4-4.7-9.4s-9.7-11.8-11-9.8s-6.7,15.4-3.8,19.2c2.8,3.8-0.2,10.3,13.9,14.3
			L2115.1,1215.7z"/>
		<path class="st2" d="M2271.4,1175.6c0,0-72,60.1-100.1,54.5c-22-4.4-55.7-15.9-55.7-15.9l-6.7,17.2c0,0,30.2,41,61.7,41.3
			c49.3,0.4,85.6-21.3,85.6-21.3L2271.4,1175.6z"/>
		<path class="st4" d="M2397.7,1809.7c0,0-2.1,33.7-8.6,34.2c-0.9,0.1-33.1,0.1-33.1,0.1l-41.1-0.2c0,0,0.3-9.9,12.3-12
			s32.1-10.5,39.4-26.4C2374.2,1788.5,2397.7,1809.7,2397.7,1809.7z"/>
		<path class="st1" d="M2400.1,1812c0,0-12.5,4.2-22.3,4.2c-10.9,0-20.8-3-20.8-3s-2.4-22.8-15.3-72.9
			c-6.8-26.3-16.5-60.1-30.3-102.1c-38.2-116.1-49.8-184-50.8-190.4c-0.1-0.3-0.1-0.5-0.1-0.5l0.1-0.1l117.3-51.5
			c0,0-14.5,160,4,221.4c2.6,8.6,4.8,18.6,6.7,29.4C2400.3,1713.2,2400.1,1812,2400.1,1812z"/>
		<path class="st1" d="M2341.7,1740.3c-6.8-26.3-16.5-60.1-30.3-102.1c-38.2-116.1-49.8-184-50.8-190.4c0-0.2,0-0.4,0-0.6
			l117.3-51.5c0,0-14.5,160,4,221.4C2384.5,1625.7,2341.7,1740.3,2341.7,1740.3z"/>
		<path class="st4" d="M2306.1,1809.7c0,0-2.1,33.7-8.6,34.2c-0.9,0.1-33.1,0.1-33.1,0.1l-41.1-0.2c0,0,0.3-9.9,12.3-12
			s32.1-10.5,39.4-26.4C2282.6,1788.5,2306.1,1809.7,2306.1,1809.7z"/>
		<path class="st1" d="M2239.6,1399.4c0,0-1.5,103.7,16.4,231s11.9,181.4,11.9,181.4s12.3,4,17.3,4.4c12.7,1,25.7-3,25.7-3
			s25.7-127.4,18.3-191.1s35.2-218.7,35.2-218.7L2239.6,1399.4z"/>
		<path class="st3" d="M2323.5,1149l-16,20.6l-33.6,1.8c-0.2-2.7-0.7-14-1.1-24.2c0-0.6,0-1.2-0.1-1.8c-0.4-8.7-0.5-18.2-0.5-18.2
			l26.6-18.5l10-7.7c0,0.2,1.6,9.4,1.6,10.8C2310.6,1138.4,2323.5,1149,2323.5,1149z"/>
		<path class="st2" d="M2232.7,1403.9c0.5,54.7,4.1,182.8,6.8,185.4c28.5,27.5,153.9-7.5,160.5-37.9c6.6-30.3-25.3-388.7-74-403
			c-10.1-3-64.1,14.5-64.1,14.5s-8.5,22.2-14,50.4c-2.1,10.5-8.8,85.1-12.7,135c-1,13.3-1.9,24.8-2.4,32.9
			C2232.7,1384.6,2232.6,1392.7,2232.7,1403.9z"/>
		<path class="st5" d="M2308.3,1112.8c-3.9,12.8-26.1,28.4-35.5,34.4c0-0.6,0-1.2-0.1-1.8c-0.4-8.7-0.7-26.3-0.7-26.3l26.8-10.5
			C2305.5,1107.1,2309.9,1107.6,2308.3,1112.8z"/>
		<path class="st3" d="M2263.3,1122.4c0,0,49.8,15.5,59-15.6s21.8-50.1-9.6-61.4c-31.4-11.2-41.1-1.2-46.7,8.5
			C2260.4,1063.5,2250.6,1117.5,2263.3,1122.4z"/>
		<path class="st4" d="M2267.9,1050.9c0,0,3.2,36.2,10.7,34.7s17.4-1.8,16.3,9.1c-1.1,10.9,9.2,29.5,16.1,29.4
			c23.2-0.1,48.7-62.5,42.4-73.8C2335,1017.7,2241.5,1011.2,2267.9,1050.9z"/>
		<g>
			<path class="st4" d="M2039.3,1332.6l187.2,198.8c3.6,3.8,9.8,3.9,13.9,0.1l12.7-12c4-3.8,4.3-10,0.7-13.8l-187.6-199.2
				c-3.6-3.8-6.8-0.8-10.8,2.9l-12.7,12C2038.8,1325.2,2035.7,1328.7,2039.3,1332.6z"/>
			<path class="st1" d="M2142,1441.5l84.3,89.6c3.8,4,10.1,4.2,14.1,0.4l12.7-12c4-3.8,4.2-10.1,0.4-14.1l-84.3-89.6L2142,1441.5z"
				/>
			<path class="st4" d="M1825.9,1316c60.5,64.4,161.8,67.4,226.2,6.9c21.1-19.8,35.6-44,43.4-69.8c16.1-53,4.2-113-36.5-156.3
				c-60.5-64.4-161.8-67.4-226.1-6.9c-0.8,0.8-1.7,1.6-2.5,2.4C1768.4,1153.1,1766.1,1252.5,1825.9,1316z M1839.6,1097.1
				c22.2-20.9,49.1-33.7,77.1-38.5c48-8.3,99.1,6.9,135,45c56.8,60.4,53.9,155.3-6.5,212.1c-38.1,35.9-90.1,47.9-137.5,36.7
				c-27.6-6.5-53.7-21-74.6-43.2C1776.4,1248.8,1779.3,1153.9,1839.6,1097.1z"/>
			<g class="st6">
				<path class="st7" d="M1833.2,1309.2c20.9,22.2,47,36.6,74.6,43.2c47.4,11.2,99.4-0.8,137.5-36.7c27.8-26.1,43.4-60.4,46.6-95.6
					c3.8-41.3-9.5-83.9-40.1-116.4c-35.9-38.1-87-53.3-135-45c-8.3,1.4-16.5,3.6-24.5,6.4c-19,6.7-37,17.4-52.6,32.2
					C1779.3,1153.9,1776.4,1248.8,1833.2,1309.2z"/>
			</g>
		</g>
		<g>
			<path class="st3" d="M2127.9,1363.1c-7.9-1.8-13.3-7.8-14.4-8.9c0,0-3.4,0.2,0.6,7.4c0.3,0.6,1.1,2.2,1.6,3.3
				c0.2,0.4-0.1,1-0.6,1c-4.6,0.3-9.2-1.5-18,0.4c-1.2,0.3-1.6,3.2-1.5,4.4c0.1,2.1-0.1,4.5,2.4,7.7c1.4,1.9,5.4,3.9,14.2,7.4
				c3.4,1.4,13,0.3,22-2.8l7.2-3.3l-2.2-13.4l-1.8,0.4C2134.4,1367.4,2130.9,1363.9,2127.9,1363.1z"/>
			<path class="st2" d="M2307.1,1162.9c0,0,101.1,19.2-29.7,165.6c-20.9,23.4-133.9,53.9-133.9,53.9s-11.5-9.8-5.7-17.6
				c0,0,77.8-56.5,94.9-65.5c7.7-4,29.9-90.2,42.4-110.9C2287.7,1167.6,2307.1,1162.9,2307.1,1162.9z"/>
		</g>
		<path class="st3" d="M2112.3,1217.5c0,0-3.3-6.3-4-9.6c-0.6-3.3-4.8-13.1-6.5-14.8c-0.7-0.7-2.9,0.2-3.2,3.1
			c-0.1,1.3,0.5,3.6,1.6,6.4c1.8,4.5,1.5,10.7,2.1,12.7C2104,1220.4,2112.3,1217.5,2112.3,1217.5z"/>
	</g>
	<g>
		<path class="st8" d="M908.8,1838.9c-0.9,2.4-73.5,5.2-73.8-2.5c0-0.1,0-0.3,0-0.4c0-0.2,0-0.4,0-0.7c0-0.8,0.1-1.6,0.2-2.4
			c0,0,0,0,0-0.1c0.2-1.5,0.5-3,0.9-4.5c0.4-1.9,1.4-4.2,2.3-6.5c1.3-3.4,2.6-7,2.5-10.3c-0.5-10.6-4.3-32.8-4.3-32.8l20.9-2.3
			c0,0,3.3,30.7,7.3,37.5c5.4,9.3,14.8,14.5,24.7,17.3c1.1,0.3,2.2,0.6,3.3,0.9C901.4,1834.7,909.6,1836.8,908.8,1838.9z"/>
		<path class="st9" d="M909.5,1839c-0.9,2.4-7.7,7.9-24.9,7.1c-17.2-0.7-13.8-3.8-26.1-2.7c-12.3,1.1-23.1,0.7-23.5-7
			c0-0.1,0-0.3,0-0.4c0-0.7,0.1-1.8,0.2-3c0,0,0,0,0-0.1c0.2-1.5,0.5-3,0.9-4.5c0.4-1.9,1.4-4.2,2.3-6.5
			c7.8,2.1,18.1,11.3,28.9,12.7c14.1,1.8,25.3-2.2,25.3-2.2l0.1-0.2C903.1,1834.2,910.3,1836.9,909.5,1839z"/>
		<path class="st10" d="M704.8,1259.5c0,0-13-7.1-27.7-2.6c-29.6,9.1-15.4,33.5-30.4,43.2c-15,9.8-28.7,39.6-19.3,54.9
			c9.5,15.3,23.3,28.3,31.8,17.9c8.4-10.4,16.9-24.9,16.9-44.6c0.1-17.8,7.2-54,19.5-51.3C707.8,1279.8,704.8,1259.5,704.8,1259.5z"
			/>
		<path class="st10" d="M748.7,1285.8c0,0-14.3-31.9-43.9-26.3s-33.7,61.2-14.2,68.3C704.2,1332.8,748.7,1285.8,748.7,1285.8z"/>
		<path class="st11" d="M827.4,1624.1H825h-79l-49.4-170.8c-6.2-21.6-25.8-36.6-48.2-37.1l-85.5-1.5c-24.3-0.6-43,20.1-38.7,42.7
			l23,384.3c-0.3,2.7,1.9,5,4.8,5.1h0.3c1.6,0,3-1.1,3.2-2.6l3.4-189.7h146.3l27.1,189.7c0.2,1.5,1.6,2.6,3.2,2.6h0.3
			c2.9-0.1,5.1-2.4,4.8-5.1l-18.7-187.2H825h2.4c3.9,0,7-3.2,7-7v-2.4v-11.6v-2.4C834.4,1627.2,831.3,1624.1,827.4,1624.1z"/>
		<path class="st12" d="M653.3,1452.8l27.4,69.2c0,0,26.4,31.1,47.6,21.1l-67.1-130.2L653.3,1452.8z"/>
		<path class="st4" d="M855.4,1592.6c-19.9-19.8-143.3-72-185-76.4l-47.6-17.4c0,0-19.4,46.5-19.7,90.9
			c-0.1,20.7,25.4,34.4,6.1,34.4c0,0,168.6-0.7,175.1,0c10.6,1.1,4.6,26.1,8.1,50.1s47.6,125,47.6,125s12.8,4.1,18.8,3.8
			c6.4-0.4,9.3-2.5,9.3-2.5S879.5,1616.6,855.4,1592.6z"/>
		<path class="st3" d="M799.9,1838.8c0.3,7.7,72.9,5,73.8,2.5c0.8-2.2-7.4-4.2-16.2-6.7c-1.1-0.3-2.2-0.6-3.3-0.9
			c-9.9-2.8-19.3-8-24.7-17.3c-4-6.9-7.3-37.5-7.3-37.5l-20.9,2.3c0,0,3.8,22.2,4.3,32.8c0.3,5.5-3.6,12.1-4.7,16.8
			C800.3,1833.4,799.8,1836.1,799.9,1838.8z"/>
		<path class="st13" d="M823.3,1845.8c12.3-1.1,9,1.9,26.1,2.7c17.2,0.7,24-4.7,24.9-7.1c0.8-2.2-6.4-4.8-16.9-6.7l-0.1,0.2
			c0,0-11.2,5.6-25.4,3.8c-11.5-1.5-23.1-6.7-31.1-7.8c-0.6,2.6-1.2,5.2-1,8C800.2,1846.5,811,1846.9,823.3,1845.8z"/>
		<path class="st4" d="M826.3,1592.9c-11.7-12.2-89-37.2-128.3-50c-9.4-3.1-101.3-48.6-101.3-48.6s-14.5,129.8,3,129.9
			c32.8,0.3,159.9,6.1,164.9,6.5c15,1.1,7.1,35.9,13.1,63.5c6.1,28.2,23.7,105,23.7,105s12.8,4.1,18.8,3.8c6.4-0.4,9.3-2.5,9.3-2.5
			S849.8,1617.5,826.3,1592.9z"/>
		<path class="st3" d="M719.2,1333.8c0,0-0.7,5.2-1.9,11.7c-0.7,3.9-1.6,8.2-2.5,12.2c-0.8,3.2-1.6,6.2-2.5,8.4
			c-3.1,7.7-5.6,15.3-4.1,16.8c0.1,0.1-16.4,1.8-25.6-5.2c-8.6-6.5-12.2-24-12.1-24c4.7-0.9,10.1-1.9,19.7-26.1l1.7,1.1
			L719.2,1333.8z"/>
		<path class="st14" d="M717.2,1345.5c-0.7,3.9-1.6,8.2-2.5,12.2c-15.6-10.3-21.2-19.4-24.4-27.9L717.2,1345.5z"/>
		<path class="st3" d="M724.7,1349.4c0,0-40.7-6.8-36.1-32.1c4.7-25.3,2.5-43.2,28.7-39.9c26.2,3.3,29.4,13.9,29.9,22.7
			S735.4,1350.6,724.7,1349.4z"/>
		<path class="st10" d="M746.3,1286.1c0,0-26.9,21.7-44.8,22.9c-17.9,1.2-19.6-7-19.6-7s6-6,12.7-19.9c2-4.1,6-6.8,10.6-7
			C717.9,1274.4,742.1,1274.7,746.3,1286.1z"/>
		<path class="st10" d="M730,1283.6c0,0,8.5,8.8,11,15.1c2.5,6.1,2.8,20.7,0.5,26.4c0,0,14.5-26.1,7.2-39.2
			C741,1271.9,730,1283.6,730,1283.6z"/>
		<path class="st2" d="M737.8,1398.7c0-17.1-25.4-33.2-25.4-33.2s-6.2,17-36.2-14.2c-1.1-1.1-70.9,45-70.9,45s-11.7,59.8-14.3,87.1
			c-7.7,82.3,2,147.3,2,147.3s100.7,17.9,167.3-86.4c0,0-23.5-53.8-23.5-68.8C736.9,1465.8,737.8,1406.3,737.8,1398.7z"/>
		<g>
			<path class="st3" d="M746.6,1508.2c0,0,5.6,7.3,7.5,8.2c1.9,0.9,3,0.7,3,0.7l-3.8-6.9L746.6,1508.2z"/>
			<path class="st3" d="M745.3,1500.7l16.4,8c0,0-0.7,1.1-2.7,1.1c-2-0.1-7.1-2-7.1-2L745.3,1500.7z"/>
			<path class="st3" d="M714,1504.3c0,0,27-6,31.3-3.6c4.4,2.4,15,11.1,16.3,14.1s-9.7-2.3-13.3-3.3c-2.3-0.6-8.4,1.5-11.5,2.5
				c-12.7,4.2-20.5,2.1-20.5,2.1L714,1504.3z"/>
		</g>
		<g>
			<rect x="624.8" y="1529.4" class="st1" width="381.8" height="10.8"/>
			<g>
				<path class="st1" d="M1005,1852.5c-0.8-1.1-2.4-3.5-12.7-159.9c-5.1-77.1-9.8-154.5-9.9-155.3l4-0.2
					c5.1,84.5,19.1,305.4,22,313.4c0,0,0-0.1-0.2-0.3L1005,1852.5z"/>
			</g>
			<g>
				<path class="st1" d="M621.6,1850.8l-3.3-2.3c-0.1,0.2-0.2,0.3-0.2,0.3c2.9-8,17.4-227.7,22.7-311.7l4,0.3
					c0,0.8-5,77.8-10.2,154.5C624,1847.3,622.3,1849.7,621.6,1850.8z"/>
			</g>
		</g>
		<path class="st2" d="M676.2,1351.3c0,0-41.1,0-54.8,13.7c-21.4,21.4-37.7,115.1-22.1,133.9c17.6,21.2,117.6,22.3,117.6,22.3
			s2.4-4.4-3-16.8c-1.1-2.6-65.3-28.4-67.3-31.8c-1.9-3.4-3.7-51.7-1.5-59.7C647.4,1404.7,676.2,1351.3,676.2,1351.3z"/>
	</g>
	<g>
		<g>
			<path class="st3" d="M1699.9,849c1.7,1.9,1.9,4,1,6.3l0,0c-1.5,4.2-6.5,8.9-12.3,13.5c-0.7,0.6-1.4,1.1-2,1.6
				c-0.2,0.1-0.3,0.3-0.4,0.4c-0.1,0.1-0.2,0.2-0.3,0.3c-5.4,5-3.4,6.1-13.1,16.3c-11.1,11.6-18.8,11.8-20.9,10.7
				c-1.8-0.9,1.9-7,6-13.9c0.2-0.3,0.4-0.7,0.6-1c0.6-0.9,1.1-1.8,1.6-2.8c4.9-8.3,3.6-12.2,2.5-24.5c-0.9-10-15.6-56-15.6-56
				l21.3-3.7c0,0,6.4,36.6,13.5,42.3c3.8,3,8,3,11.6,5.3c0.3,0.2,0.5,0.3,0.8,0.5C1696.1,845.7,1698.2,847.1,1699.9,849z"/>
			<path class="st10" d="M1699.9,849c1.7,1.9,1.9,4,1,6.3l0,0c-1.9,4.2-6.7,8.8-12.4,13.5c-0.7,0.6-1.4,1.2-2,1.7
				c-0.2,0.1-0.3,0.3-0.4,0.4c-0.1,0.1-0.2,0.2-0.3,0.3c-5.4,5-3.4,6.1-13.1,16.3c-11.1,11.6-18.8,11.8-20.9,10.7
				c-1.8-0.9,1.9-7,6-13.9c2.2-0.8,12.2-4.9,19.8-14.6c6.4-8.2,10.8-18.7,15.2-25.1c0.5-0.1,0.8-0.1,1.3-0.2
				C1696.1,845.7,1698.2,847.1,1699.9,849z"/>
			<path class="st3" d="M1528.3,835.7c-1.3,6.6-10.7,5.5-21.1,2.9c-10.5-2.6-8,0.5-22.9-1.2c-14.9-1.6-19.4-7.2-19.9-9.4
				c-0.4-2,7-2.7,14.8-3.6c1-0.1,2-0.2,3-0.4c8.9-1.1,15.4-6.9,23.5-11.6c7.7-4.5,19.1-22.7,19.1-22.7l20.4,1.6
				c0,0-10.7,16.3-14.9,23.4c-2.4,4.2-2.3,9.7-2,13.9C1528.6,831.1,1528.7,833.4,1528.3,835.7z"/>
			<path class="st10" d="M1507.1,838.7c-10.5-2.6-8,0.5-22.9-1.2c-14.9-1.6-19.4-7.2-19.9-9.4c-0.4-2,7-2.7,14.8-3.6l0.1,0.2
				c0,0,8.9,6.3,21.3,6.6c10.1,0.2,20.8-2.6,27.8-2.5c0.2,2.3,0.3,4.7-0.2,7C1527,842.3,1517.6,841.2,1507.1,838.7z"/>
			<path class="st4" d="M1606.5,705.2l19.1,51.4l24.9,67.1c0,0,6.8,0.7,13.2-1.2c6-1.7,12.8-6.2,12.8-6.2s-6.9-72-19.8-113.4
				c-3.3-10.6-7-19.2-11.1-24C1625.6,655.1,1606.5,705.2,1606.5,705.2z"/>
			<path class="st4" d="M1625.9,623.6c10.9-3.5,39.2-0.1,70,5.5c8.5,1.5,17.1-2.3,21.5-9.7l0,0l77.4-6c0,0,30.8,61.3,7.8,92.4
				c-13.4,18.2-58.7,15.6-72.4,12.8c-37.7-7.7-80.6-30.1-86.1-31.2c-9.1-1.8-12.7,16.4-21.8,35.5c-9.1,19.1-85.5,84.6-85.5,84.6
				s-11.7,0.1-16.6-1.7c-5.2-2-7.1-4.5-7.1-4.5S1597.7,632.7,1625.9,623.6z"/>
			<path class="st2" d="M1814.3,666.6c-0.3,44.5-11.8,64.9-11.8,64.9c-99.6-13.4-121.7-105-121.7-105c20.6-0.4,29.2-13.2,29.2-13.2
				l83.9-53.5l5.1-3.3l5.2-3.3c0,0,1.6,8.5,3.5,22.1c2.5,18.2,5.7,45.6,6.5,74.3C1814.3,655.3,1814.3,661,1814.3,666.6z"/>
			<path class="st15" d="M1717.9,512.8c27.6,15.2,83.5,46.6,83.8,46.4c0,0,20.5,7.7,32.2,0c19.4-12.9,29.9-47.6-5.7-77.5
				c-17.7-14.9-30.3-18.5-32.2-42.3c-1-13-18.8-55.9-48.4-51.5c-2.4,0.3-4.7,0.5-7.1,0.4c-3.4-0.1-9,0.4-14.8,3.8
				C1709.1,402,1676.6,506.9,1717.9,512.8z"/>
			<path class="st3" d="M1741,499.9c-0.1,0.1,13.6,4.7,22.7,0.7c8.6-3.8,15.1-18,15-18c-3.9-0.2-8.4-6.4-11.5-26.1l-1.7,0.6
				l-28,10.1c0,0,2,9,3.3,17.6C1741.9,492,1742.5,498.9,1741,499.9z"/>
			<path class="st14" d="M1737.5,467.2c0,0,1.1,4.9,2.8,13.9c16.1-2.9,23-15.3,25.3-24L1737.5,467.2z"/>
			<path class="st3" d="M1733.3,476.2c0,0,38.3-5.1,34.8-29c-3.6-23.8-1-40.5-25.7-38.3c-24.6,2.3-28,12.1-28.8,20.3
				C1712.9,437.5,1723.2,476.9,1733.3,476.2z"/>
			<path class="st15" d="M1715.1,416.2c0,0,24.5,21.2,41.2,22.9c16.7,1.7,23-3.7,23-3.7s-9.8-8.2-15.8-21.4
				c-1.7-3.9-5.4-6.6-9.7-6.9C1742,406.1,1719.4,405.6,1715.1,416.2z"/>
			<path class="st15" d="M1730.4,414.3c0,0-8.2,7.9-10.8,13.8c-2.5,5.7-3.2,19.3-1.3,24.7c0,0-12.8-24.9-5.6-37
				C1720.5,403,1730.4,414.3,1730.4,414.3z"/>
			<path class="st2" d="M1708.7,556.4c1.2,77.6,0.3,61.4,8.8,68.8c2,1.8,7.8,2.8,15.4,3.3c23.8,1.6,65.6-2.3,67.2-6.7
				c5.5-15.2,1.6-19.9,6.2-43.3c0.5-2.5,1.1-5.2,1.8-8.1c3.8-16,7.5-21.5-6-47.2c-12.3-23.3-24.8-42.4-26-41.7
				c-32.4,19.2-35.3,3.2-35.3,3.2S1708.1,518.5,1708.7,556.4z"/>
			<path class="st2" d="M1740.8,484.8c0,0-29.4,4.3-33.6,20.5c-3.7,14.4-17.1,96.1-17.1,96.1s6,14.1,13.8,6.3s24.7-81.6,24.7-81.6
				L1740.8,484.8z"/>
			<path class="st3" d="M1731.8,616.7c0,0-4.9,6.3-6.5,7.1s-2.7,0.6-2.7,0.6l3.3-6L1731.8,616.7z"/>
			<path class="st3" d="M1732.9,610.2l-14.3,6.9c0,0,0.6,1,2.4,0.9s6.2-1.7,6.2-1.7L1732.9,610.2z"/>
			<path class="st3" d="M1760.2,613.3c0,0-23.5-5.2-27.3-3.1s-13,9.7-14.2,12.3s8.4-2,11.6-2.8c2-0.5,7.3,1.3,10,2.2
				c11.1,3.7,17.9,1.8,17.9,1.8L1760.2,613.3z"/>
			<path class="st2" d="M1776.1,481.6c0,0,31.3,2.1,42.2,17.3c15.4,21.4,31.9,113.1,14.4,125.3c-19.7,13.7-75.5,3.3-75.5,3.3
				s-5.2-15.5,0.9-16.1c16.6-1.6,49.2-8.5,48.9-15.8c-0.5-11-21-47.7-21-55C1786,533.2,1776.1,481.6,1776.1,481.6z"/>
		</g>
		<g>
			<polygon class="st1" points="1610.7,626.5 1760.2,626.5 1760.2,629.8 1612.1,629.8 			"/>
			<polygon class="st1" points="1725.2,629.8 1612.1,629.8 1578,545.2 1691,545.2 			"/>
			<path class="st17" d="M1640.6,587.5c-0.9-3,0.9-5.4,3.8-5.4c3,0,6.1,2.4,6.9,5.4s-0.9,5.4-3.8,5.4S1641.5,590.5,1640.6,587.5z"/>
		</g>
	</g>
	<g>
		<path class="st16" d="M1366.8,1053.9H564.1c-27.8,0-50.4-22.6-50.4-50.4V546.7c0-27.8,22.6-50.4,50.4-50.4h802.7
			c27.8,0,50.4,22.6,50.4,50.4v456.8C1417.2,1031.3,1394.6,1053.9,1366.8,1053.9z"/>
		<g>
			<path class="st1" d="M753.4,556.8c0,0,26.2-18.1,73.7,6.6c0,0,24.5,8.7,30.2,31c1.5,5.9,4.3,11.4,8.4,16.2c5,5.7,10.8,15,12,27.7
				c0.6,6.7,2.7,13.2,6.2,19.1c4.1,6.9,8.4,18.2,6.8,34.2c0,0,15.2,15.3,6.6,49.4c0,0,6.9,21.4-8.7,40.6c0,0,3.9,24.6-18.8,32.8
				c0,0-12,25.6-47.6,27.1c-5.2,0.2-10.2,1.3-15,3.1c-6.8,2.5-19,5-36.5,0.7c-28.4-7-25.6-23.1-25.6-23.1V560.7L753.4,556.8z"/>
			<path class="st1" d="M738.1,556.8c0,0-26.2-18.1-73.7,6.6c0,0-25.7,9.1-30.5,32.6c-1,5-3.5,9.6-7,13.4
				c-5.4,5.9-12.6,16.4-13.1,31.3c-0.2,5.3-1.9,10.4-4.9,14.8c-3.7,5.6-8.1,15-8.3,28.5c-0.1,4.5-1.2,9-3.4,13.1
				c-3.8,7.1-8.5,21.4-2.9,43.9c0,0-5.4,16.6,4.1,33.7c2.5,4.6,4.1,9.5,4.6,14.7c0.6,6.6,3.3,16,12.6,22c4.1,2.6,7.6,5.9,10.5,9.6
				c5.9,7.5,18.6,18.9,41.3,20.5c6.2,0.4,12.4,1.6,18.2,3.6c7,2.4,18.8,4.4,35.3,0.3c28.4-7,25.6-23.1,25.6-23.1V560.7L738.1,556.8z
				"/>
			<g>
				<path class="st16" d="M717.7,719.5c-13.7-1.6-24.7-8.9-32.7-21.8c0-0.1-0.1-0.1-0.1-0.2c-3.8-6.1-1.6-13.8,4.8-17.7
					c1.3-0.8,2.4-1.6,3.1-2.5c0,0-13.8,1.9-30.6-4.6c-9.8-3.8-16.4-11.6-16.4-11.6c0.2,0.3,0.9,8.6,9.1,15.5c2.4,2,7.9,4.6,11.9,5.4
					c4.1,0.8,5.9,4.7,7.4,8.3c1.3,3,3,6.5,5.1,10c3.6,5.8,7.9,10.7,12.7,14.6c-9.3,3.9-14.5,9.9-17.3,14.5
					c-3.5,5.8-4.2,10.9-4.2,11.1c0,0,3.4-6.2,10.7-12.3c6.4-5.3,14.9-8,23.6-7.7C710.9,721,717.7,719.5,717.7,719.5z"/>
				<g>
					<path class="st16" d="M668,765.6c-0.7,0-1.3,0-2-0.1c-8.9-0.5-16.5-4.4-22-11.2c-8.6-10.6-6.6-20.3-3.5-26.6
						c0-0.1,0.1-0.1,0.1-0.2c1.3-2.5,2,2.2,1.9,5c-0.3,6,4.7,15.3,11,20.3c7.3,5.8,19.1,5.7,28.1,6c3.4,0.1,6.2,0.3,3.2,2.2
						C680.6,763.8,674,765.6,668,765.6z"/>
				</g>
				<g>
					<path class="st16" d="M708.2,665.4c-0.5-0.2-1-0.3-1.4-0.5c-6.4-2.5-10.8-7.1-12.9-13.4c-3.3-9.8,0.9-16.4,4.9-20.2l0.1-0.1
						c1.7-1.5,0.9,2.1,0,4.1c-1.9,4.3-0.8,12.3,2.3,17.5c3.7,6,12.4,8.7,18.9,11.1c2.4,0.9,4.5,1.7,1.7,2.4
						C717.9,667.1,712.5,666.8,708.2,665.4z"/>
				</g>
				<g>
					<path class="st16" d="M649.8,797.4c-3.1,1.5-6.9,0.6-8.7-2.2c-10.8-16.2-25.2-27.9-25.4-28l0,0
						C616.6,767.7,637.9,777,649.8,797.4L649.8,797.4z"/>
				</g>
				<path class="st16" d="M722.5,784.6c-4.6-2.9-5.6-9.3-5.6-14.1c0-5.8,2.2-13.6,2.2-13.6c-0.2,0.7-13.7,11.1-6.3,25.5
					c-8.9-0.2-14.1,9.2-14.1,9.2s2.6-1.3,6.3-2.3c3.3-0.9,8.2-1.6,12.6-0.2c4.1,1.3,7.3,4.4,9.4,9.1
					C727.1,798.2,730.4,789.1,722.5,784.6z"/>
				<path class="st16" d="M656.8,630.3c2.6-4.6,9.3-6.3,14.5-6.9c6.2-0.7,14.9,0.3,14.9,0.3c-0.8-0.1-13.7-11.2-28.2-2.5
					c-0.9-8.2-11.7-11.8-11.7-11.8s1.8,2.2,3.3,5.5c1.4,2.9,2.8,7.3,1.8,11.5c-0.9,3.9-3.8,7.2-8.6,9.8
					C642.8,636.1,653,638,656.8,630.3z"/>
				<path class="st16" d="M620.4,715.3c2.6-4.6,9.3-6.3,14.5-6.9c6.2-0.7,14.9,0.3,14.9,0.3c-0.8-0.1-13.7-11.2-28.2-2.5
					c-0.9-8.2-11.7-11.8-11.7-11.8s1.8,2.2,3.3,5.5c1.4,2.9,2.8,7.3,1.8,11.5c-0.9,3.9-3.8,7.2-8.6,9.8
					C606.4,721.1,616.6,723,620.4,715.3z"/>
				<path class="st16" d="M701.6,595.3c5.7-3.6,7-11.6,7-17.6c0-7.2-2.7-17-2.7-17c0.2,0.9,17.2,13.9,7.8,31.8
					c11.1-0.2,17.6,11.5,17.6,11.5s-3.3-1.7-7.9-2.9c-4.1-1.1-10.2-2-15.7-0.3c-5.2,1.6-9.1,5.5-11.8,11.4
					C696,612.2,691.9,600.9,701.6,595.3z"/>
				<path class="st16" d="M665.7,813c5.3-3.4,6.5-10.8,6.5-16.5c0-6.7-2.5-15.8-2.5-15.8c0.2,0.9,16,12.9,7.3,29.7
					c10.4-0.2,16.5,10.7,16.5,10.7s-3.1-1.6-7.3-2.7c-3.9-1-9.6-1.9-14.7-0.3c-4.8,1.5-8.5,5.1-11,10.6
					C660.4,828.8,656.6,818.2,665.7,813z"/>
				<g>
					<path class="st16" d="M773.6,719.5c13.7-1.6,24.7-8.9,32.7-21.8c0-0.1,0.1-0.1,0.1-0.2c3.8-6.1,1.6-13.8-4.8-17.7
						c-1.3-0.8-2.4-1.6-3.1-2.5c0,0,13.8,1.9,30.6-4.6c9.8-3.8,16.4-11.6,16.4-11.6c-0.2,0.3-0.9,8.6-9.1,15.5
						c-2.4,2-7.9,4.6-11.9,5.4c-4.1,0.8-5.9,4.7-7.4,8.3c-1.3,3-3,6.5-5.1,10c-3.6,5.8-7.9,10.7-12.7,14.6
						c9.3,3.9,14.5,9.9,17.3,14.5c3.5,5.8,4.2,10.9,4.2,11.1c0,0-3.4-6.2-10.7-12.3c-6.4-5.3-14.9-8-23.6-7.7
						C780.4,721,773.6,719.5,773.6,719.5z"/>
					<g>
						<path class="st16" d="M823.2,765.6c0.7,0,1.3,0,2-0.1c8.9-0.5,16.5-4.4,22-11.2c8.6-10.6,6.6-20.3,3.5-26.6
							c0-0.1-0.1-0.1-0.1-0.2c-1.3-2.5-2,2.2-1.9,5c0.3,6-4.7,15.3-11,20.3c-7.3,5.8-19.1,5.7-28.1,6c-3.4,0.1-6.2,0.3-3.2,2.2
							C810.6,763.8,817.3,765.6,823.2,765.6z"/>
					</g>
					<g>
						<path class="st16" d="M783.1,665.4c0.5-0.2,1-0.3,1.4-0.5c6.4-2.5,10.8-7.1,12.9-13.4c3.3-9.8-0.9-16.4-4.9-20.2l-0.1-0.1
							c-1.7-1.5-0.9,2.1,0,4.1c1.9,4.3,0.8,12.3-2.3,17.5c-3.7,6-12.4,8.7-18.9,11.1c-2.4,0.9-4.5,1.7-1.7,2.4
							C773.4,667.1,778.7,666.8,783.1,665.4z"/>
					</g>
					<g>
						<path class="st16" d="M837.6,787.6c2.4,2.3,6.3,2.6,9,0.5c15.8-12.1,33.6-19,33.8-19l0,0C879.4,769.2,856,771.7,837.6,787.6
							L837.6,787.6z"/>
					</g>
					<path class="st16" d="M768.7,784.6c4.6-2.9,5.6-9.3,5.6-14.1c0-5.8-2.2-13.6-2.2-13.6c0.2,0.7,13.7,11.1,6.3,25.5
						c8.9-0.2,14.1,9.2,14.1,9.2s-2.6-1.3-6.3-2.3c-3.3-0.9-8.2-1.6-12.6-0.2c-4.1,1.3-7.3,4.4-9.4,9.1
						C764.2,798.2,760.9,789.1,768.7,784.6z"/>
					<path class="st16" d="M834.4,630.3c-2.6-4.6-9.3-6.3-14.5-6.9c-6.2-0.7-14.9,0.3-14.9,0.3c0.8-0.1,13.7-11.2,28.2-2.5
						c0.9-8.2,11.7-11.8,11.7-11.8s-1.8,2.2-3.3,5.5c-1.4,2.9-2.8,7.3-1.8,11.5c0.9,3.9,3.8,7.2,8.6,9.8
						C848.5,636.1,838.2,638,834.4,630.3z"/>
					<path class="st16" d="M870.9,715.3c-2.6-4.6-9.3-6.3-14.5-6.9c-6.2-0.7-14.9,0.3-14.9,0.3c0.8-0.1,13.7-11.2,28.2-2.5
						c0.9-8.2,11.7-11.8,11.7-11.8s-1.8,2.2-3.3,5.5c-1.4,2.9-2.8,7.3-1.8,11.5c0.9,3.9,3.8,7.2,8.6,9.8
						C884.9,721.1,874.7,723,870.9,715.3z"/>
					<path class="st16" d="M789.6,595.3c-5.7-3.6-7-11.6-7-17.6c0-7.2,2.7-17,2.7-17c-0.2,0.9-17.2,13.9-7.8,31.8
						c-11.1-0.2-17.6,11.5-17.6,11.5s3.3-1.7,7.9-2.9c4.1-1.1,10.2-2,15.7-0.3c5.2,1.6,9.1,5.5,11.8,11.4
						C795.3,612.2,799.4,600.9,789.6,595.3z"/>
					<path class="st16" d="M825.5,813c-5.3-3.4-6.5-10.8-6.5-16.5c0-6.7,2.5-15.8,2.5-15.8c-0.2,0.9-16,12.9-7.3,29.7
						c-10.4-0.2-16.5,10.7-16.5,10.7s3.1-1.6,7.3-2.7c3.9-1,9.6-1.9,14.7-0.3c4.8,1.5,8.5,5.1,11,10.6
						C830.8,828.8,834.7,818.2,825.5,813z"/>
				</g>
				<g>
					
						<rect x="612.4" y="691.3" transform="matrix(2.215764e-03 -1 1 2.215764e-03 49.9688 1439.0205)" class="st16" width="267.3" height="6.4"/>
				</g>
			</g>
		</g>
		<g>
			<rect x="927" y="538.2" class="st4" width="239.6" height="22.5"/>
			<rect x="927" y="592.5" class="st1" width="191.8" height="11.2"/>
			<rect x="927" y="622.8" class="st4" width="125.2" height="11.2"/>
			<rect x="1070.9" y="622.8" class="st1" width="125.2" height="11.2"/>
			<rect x="1138.3" y="592.5" class="st4" width="115.7" height="11.2"/>
			<rect x="1180.9" y="538.2" class="st1" width="111.2" height="22.5"/>
		</g>
		<g>
			<rect x="586.4" y="902.7" class="st4" width="191.4" height="18"/>
			<rect x="586.4" y="946" class="st1" width="153.2" height="9"/>
			<rect x="586.4" y="970.2" class="st1" width="100" height="9"/>
			<rect x="701.4" y="970.2" class="st4" width="100" height="9"/>
			<rect x="755.3" y="946" class="st1" width="92.4" height="9"/>
			<rect x="789.3" y="902.7" class="st1" width="88.8" height="18"/>
		</g>
		<g>
			<path class="st4" d="M1167.9,697.3c5.7,5.2,5.7,13.6,0.1,18.8s-14.8,5.3-20.4,0.1c-5.7-5.2-5.7-13.6-0.1-18.8
				C1153,692.2,1162.2,692.1,1167.9,697.3z"/>
			<path class="st4" d="M1110,753.4c6.3,5.8,6.4,15.1,0.1,21c-6.2,5.8-16.4,5.9-22.7,0.1c-6.3-5.8-6.4-15.1-0.1-21
				C1093.5,747.7,1103.7,747.6,1110,753.4z"/>
			<path class="st4" d="M1038.6,723.9c5.4,4.9,5.4,12.9,0.1,17.9s-14,5-19.4,0.1s-5.4-12.9-0.1-17.9S1033.2,719,1038.6,723.9z"/>
			<path class="st4" d="M973.7,758.2c5.4,4.9,5.4,12.9,0.1,17.9c-5.3,5-14,5-19.4,0.1s-5.4-12.9-0.1-17.9
				C959.6,753.3,968.3,753.3,973.7,758.2z"/>
			<g>
				<polygon class="st4" points="963.4,766.2 1028.9,731.6 1098.4,762.5 1156.8,706 1158.6,707.5 1099,765.3 1029,734.2 
					964.6,768.2 				"/>
			</g>
		</g>
		<g>
			<path class="st1" d="M1202.3,785.6c-5.4-3.5-6.7-10.4-2.9-15.4s11.3-6.2,16.7-2.7c5.4,3.5,6.7,10.4,2.9,15.4
				C1215.2,787.9,1207.7,789.1,1202.3,785.6z"/>
			<path class="st1" d="M1241.3,732.4c-6-3.9-7.5-11.6-3.2-17.1c4.2-5.5,12.6-6.9,18.6-3s7.5,11.6,3.2,17.1
				C1255.6,735,1247.3,736.3,1241.3,732.4z"/>
			<path class="st1" d="M1304,747.5c-5.1-3.3-6.4-9.9-2.7-14.6c3.6-4.7,10.7-5.9,15.9-2.5c5.1,3.3,6.4,9.9,2.7,14.6
				C1316.3,749.7,1309.2,750.9,1304,747.5z"/>
			<path class="st1" d="M1352,711.3c-5.1-3.3-6.4-9.9-2.7-14.6c3.6-4.7,10.7-5.9,15.9-2.5c5.1,3.3,6.4,9.9,2.7,14.6
				C1364.3,713.5,1357.2,714.6,1352,711.3z"/>
			<g>
				<polygon class="st1" points="1359.2,703.5 1310.8,740 1249.4,723.5 1210,777.1 1208.3,776 1248.5,721.3 1310.3,737.9 
					1357.9,702 				"/>
			</g>
		</g>
		<g>
			<g>
				<polygon class="st1" points="1076,966.9 1062,899.4 1055.9,928.2 973.6,928.2 973.6,923.7 1051.8,923.7 1062,875.2 
					1076.6,945.9 1083.2,922 1097.4,922 1107.1,880.4 1119.5,943.8 1126,919.6 1155.4,919.6 1166.2,886.9 1175.6,944.1 
					1183.2,919.6 1207.5,919.6 1214.6,883.7 1230,940.1 1235.5,919.6 1266.9,919.6 1268.6,936.7 1285.9,874.4 1297.2,919.7 
					1348.3,919.7 1348.3,924.3 1293.3,924.3 1285.6,893.7 1266.2,963.7 1262.4,924.1 1239.4,924.1 1230,958.9 1215.4,905.3 
					1211.6,924.1 1187,924.1 1174.2,965.5 1164.6,907.4 1159.1,924.1 1129.9,924.1 1118.8,965.7 1106.7,904 1101.4,926.6 
					1087.1,926.6 				"/>
			</g>
		</g>
		<g>
			<path class="st1" d="M1371.3,1011.4H948.9V846.5h422.4V1011.4z M951.6,1008.8h416.9V849H951.6V1008.8z"/>
		</g>
	</g>
	<path class="st10" d="M2711.8,1851.3H252.4c-1.7,0-3.1-1.4-3.1-3.1v-1.8c0-1.7,1.4-3.1,3.1-3.1h2459.4c1.7,0,3.1,1.4,3.1,3.1v1.8
		C2714.8,1849.9,2713.4,1851.3,2711.8,1851.3z"/>
</g>
</svg>
