<?xml version="1.0" encoding="utf-8"?>
<!-- Generator: Adobe Illusttrator 24.0.2, SVG Export Plug-In . SVG Version: 6.00 Build 0)  -->
<svg version="1.1" id="Capa_1" xmlns="http://www.w3.org/2000/svg" xmlns:xlink="http://www.w3.org/1999/xlink" x="0px" y="0px"
	 viewBox="270 250 600 600" sttyle="enable-background:new 0 0 1080 1080;" xml:space="preserve">
<style type="text/css">
	.stt0{opacity:0.39;fill:#31416B;}
	.stt1{fill:#909A7F;}
	.stt2{fill:#4D3454;}
	.stt3{fill:#412C47;}
	.stt4{fill:#E8BB95;}
	.stt5{fill:#FFD9B6;}
	.stt6{fill:#F5BC79;}
	.stt7{fill:#F2CAA5;}
	.stt8{fill:#8C4C45;}
	.stt9{fill:#F7C5BC;}
	.stt10{fill:#844A41;}
	.stt11{fill:#493163;}
	.stt12{fill:#1D3133;}
	.stt13{fill:#CAD5F3;}
	.stt14{fill:#FFFFFF;}
	.stt15{fill:#8B5145;}
	.stt16{fill:#563A73;}
	.stt17{fill:#382020;}
	.stt18{fill:#FFCFC7;}
	.stt19{fill:#FFDCD6;}
	.stt20{fill:#935349;}
	.stt21{fill:#243D3F;}
	.stt22{fill:#D4E0FF;}
	.stt23{fill:#636342;}
	.stt24{fill:#FFADA6;}
	.stt25{fill:#546184;}
	.stt26{fill:#212845;}
	.stt27{fill:#C5D4E8;}
	.stt28{fill:#30101D;}
	.stt29{fill:#5E1E22;}
	.stt30{fill:#FFB6B0;}
	.stt31{fill:#282F4F;}
	.stt32{fill:#472824;}
	.stt33{fill:#FFB8B3;}
	.stt34{opacity:0.7;}
	.stt35{fill:#F2A49E;}
	.stt36{fill:#3D2623;}
	.stt37{fill:#E97C85;}
	.stt38{fill:#692A5A;}
	.stt39{fill:#7D3768;}
	.stt40{fill:#EBEBFF;}
	.stt41{fill:#F14F6C;}
	.stt42{fill:#F1F0FC;}
	.stt43{fill:#09073A;}
	.stt44{fill:#180724;}
	.stt45{fill:#370100;}
	.stt46{fill:#120A59;}
	.stt47{fill:#301C3B;}
	.stt48{fill:#FFA6A3;}
	.stt49{fill:#FFA19E;}
	.stt50{fill:#F279A4;}
	.stt51{fill:#FFA9A6;}
	.stt52{opacity:0.28;fill:#092C42;}
	.stt53{fill:#E8BCD3;}
	.stt54{fill:#E88E8E;}
	.stt55{fill:#534965;}
	.stt56{fill:#DBB8BD;}
	.stt57{fill:#F7D0E4;}
	.stt58{fill:#E6CACE;}
	.stt59{fill:#753E5F;}
	.stt60{fill:#6D3A58;}
	.stt61{fill:#8A4970;}
	.stt62{opacity:0.39;fill:#F14F6C;}
	.stt63{fill:#40294D;}
	.stt64{fill:#EB9696;}
	.stt65{opacity:0.3;fill:#FFFFFF;}
	.stt66{fill:#3D2D52;}
	.stt67{fill:#47335C;}
	.stt68{fill:#4B3661;}
	.stt69{fill:#443158;}
	.stt70{fill:#3B222D;}
	.stt71{fill:#ED8C8C;}
	.stt72{fill:#CE7A7A;}
	.stt73{opacity:0.12;fill:#1B256E;}
	.stt74{fill:#462836;}
	.stt75{fill:#F7E2DF;}
	.stt76{opacity:0.14;}
	.stt77{fill:#312253;}
	.stt78{fill:none;stroke:#FFFFFF;stroke-width:2;stroke-miterlimit:10;}
</style>
<g>
	<path class="stt0" d="M993,809.6c0,1.2-196.2,2.2-438.1,2.2s-438.1-1-438.1-2.2c0-1.2,196.2-2.2,438.1-2.2S993,808.4,993,809.6z"/>
	<g>
		<path class="stt1" d="M189,614.3c6.7-2.7,16.9-3.6,23.4,1.7c7.4,6.2,7.4,18.3,5.2,25.8c-3.9,13.2-18.2,25-19.8,26.3
			c-1,0.9-4.3,3.7-7.4,8.5c-0.5,0.8-1,1.7-1.4,2.9c-2.5,6.2-0.3,13.2,1.2,19.7c1.5,6.5,1.8,14.4-3.2,18.9c-2.3,2.1-5.3,3-8.1,4.4
			c-6.6,3.3-11.9,9.3-14.1,16.4c-2.1,6.4-1.9,13.9-6.1,19.2c-1.3,1.7-2.9,3-4.6,4.2c-9.4,6.3-11.4,5.6-15.2,10.2
			c-2.7,3.2-4.2,7.3-6.2,12.4c-1.4,3.8-1.8,5.6-2.5,5.6c-1.6,0-3.5-10-3.3-19.8c0.4-15.8,6.3-17.2,7.3-31.8
			c1.1-14.9-3.2-15.9-1.7-28.2c1-8.8,6-17,13.3-22c2.9-2,6.2-3.5,8.5-6.1c5-5.5,4.2-13.1,4.2-15.9
			C158.2,649.3,170.7,621.6,189,614.3z"/>
		<g>
			<path class="stt1" d="M196.5,631.7c-4.8,5.3-9,11.1-12.6,17.2c-3.3,5.5-6.1,11.2-7.9,17.4c-2.5,8.5-5.6,16.9-9.5,24.8
				c-5.2,10.5-10.6,20.9-15.7,31.4c-5.2,10.8-10.3,21.4-13.8,32.8c-4.6,14.8-7.5,30.1-9.3,45.5c-0.3,2.4-0.6,4.8-0.8,7.2
				c-0.1,0.8,1.2,1.1,1.3,0.3c1.6-16.2,4.3-32.3,8.7-48c1.6-5.5,3.4-10.9,5.5-16.2c2-5,4.3-9.8,6.6-14.7
				c5.7-11.9,11.6-23.6,17.5-35.3c3.8-7.5,7.1-15.3,9.6-23.3c0.7-2.2,1.3-4.5,2-6.7c0.9-2.8,2.1-5.5,3.4-8.1c3.6-7.2,8-14,13.2-20.1
				c0.9-1.1,1.9-2.2,2.9-3.3C198.1,631.9,197.1,631,196.5,631.7L196.5,631.7z"/>
		</g>
		<g>
			<path class="stt1" d="M183.5,663.3c-2.1,0.7-3.9,2.1-5.6,3.6c-1.9,1.7-2.7,4.1-3.6,6.3c-0.3,0.8,0.8,1.4,1.2,0.6
				c0.9-2,1.5-4.2,3.1-5.7c1.5-1.4,3.4-2.8,5.3-3.5C184.7,664.3,184.3,663.1,183.5,663.3L183.5,663.3z"/>
		</g>
		<g>
			<path class="stt1" d="M162,678.8c2.6,7,2.5,14.8-0.4,21.7c-0.3,0.8,0.9,1.4,1.2,0.6c3-7.2,3.2-15.4,0.5-22.7
				C163,677.6,161.7,678,162,678.8L162,678.8z"/>
		</g>
		<g>
			<path class="stt1" d="M175.5,704.7c-8.9,2.7-18.2,6.7-22.9,15.2c-0.4,0.8,0.8,1.4,1.2,0.6c4.6-8.2,13.6-11.9,22.1-14.5
				C176.7,705.7,176.3,704.4,175.5,704.7L175.5,704.7z"/>
		</g>
		<g>
			<path class="stt1" d="M139.8,727.6c2,1.7,2.8,5,3,7.6c0.2,2.7-0.3,5.3-1.4,7.8c-0.4,0.8,0.8,1.4,1.2,0.6c1.3-2.8,1.8-5.8,1.5-8.9
				c-0.3-2.8-1.2-6.2-3.4-8C140,726,139.1,727,139.8,727.6L139.8,727.6z"/>
		</g>
		<g>
			<path class="stt1" d="M149.5,751.9c-9.4,1-13.6,10.4-16.5,18.1c-0.3,0.8,0.9,1.4,1.2,0.6c2.7-7.2,6.6-16.5,15.4-17.4
				C150.4,753.1,150.4,751.8,149.5,751.9L149.5,751.9z"/>
		</g>
		<g>
			<path class="stt1" d="M128.5,771.2c0.9,1.5,1.5,3,1.9,4.7c0.2,0.8,0.3,1.6,0.3,2.4c0,0.8,0.2,2.2-0.3,2.9c-0.5,0.7,0.5,1.6,1,0.9
				c1.1-1.4,0.8-4,0.5-5.6c-0.3-2.1-1.1-4.2-2.2-6C129.2,769.7,128.1,770.4,128.5,771.2L128.5,771.2z"/>
		</g>
		<g>
			<path class="stt1" d="M187.8,635.4c0.4,3.9-0.6,7.6-2.6,10.9c-0.5,0.7,0.7,1.3,1.2,0.6c2.2-3.5,3.2-7.5,2.8-11.6
				C189.1,634.5,187.8,634.6,187.8,635.4L187.8,635.4z"/>
		</g>
	</g>
	<g>
		<path class="stt1" d="M86.3,586.5c-6.8-4.2-17.6-7.1-25.7-2.5c-9.2,5.3-11.5,18.5-10.5,27.1c1.7,15,15.1,30.6,16.5,32.3
			c1,1.1,4,4.9,6.4,10.7c0.4,1,0.7,2.1,1,3.4c1.6,7.2-2.2,14.4-5,21.2s-4.7,15.3-0.1,21.1c2.1,2.7,5.2,4.3,8,6.3
			c6.6,4.8,11.1,12.4,12.3,20.5c1.1,7.4-0.5,15.4,3,22.1c1.1,2.1,2.6,3.8,4.3,5.4c9,8.6,11.3,8.3,14.6,14c2.3,4,3.2,8.8,4.4,14.7
			c0.9,4.4,0.9,6.4,1.6,6.5c1.7,0.3,5.7-10.2,7.3-20.9c2.5-17.2-3.6-19.9-2-36c1.6-16.4,6.5-16.6,7.2-30.3
			c0.5-9.7-3.3-19.6-10.3-26.4c-2.8-2.7-6-4.9-8.1-8.2c-4.4-6.9-2.1-15-1.5-18C113.2,630.4,104.8,597.9,86.3,586.5z"/>
		<g>
			<path class="stt1" d="M74.8,604c4.2,6.7,7.7,13.7,10.5,21.1c2.5,6.6,4.5,13.3,5.3,20.3c1.1,9.8,2.9,19.4,5.6,28.8
				c3.6,12.4,7.5,24.7,11.1,37.1c3.6,12.7,7.1,25.2,8.8,38.3c2.2,16.9,2.5,34.1,1.6,51.2c-0.1,2.7-0.3,5.3-0.5,8
				c-0.1,0.9-1.5,1-1.5,0.1c1.3-17.9,1.5-35.9-0.4-53.8c-0.7-6.3-1.6-12.5-2.9-18.7c-1.2-5.8-2.8-11.5-4.4-17.2
				c-3.9-13.9-8.1-27.8-12.3-41.7c-2.7-8.9-4.8-17.9-6-27.2c-0.3-2.5-0.5-5.1-0.9-7.6c-0.5-3.2-1.3-6.3-2.2-9.4
				c-2.5-8.5-6.1-16.7-10.5-24.4c-0.8-1.4-1.6-2.8-2.5-4.1C73.1,604,74.3,603.2,74.8,604L74.8,604z"/>
		</g>
		<g>
			<path class="stt1" d="M83,640.9c2.1,1.2,3.9,3,5.4,4.9c1.7,2.2,2.1,4.9,2.8,7.5c0.2,0.9-1.2,1.4-1.4,0.4c-0.6-2.3-0.9-4.9-2.3-6.8
				c-1.4-1.8-3.1-3.7-5.1-4.8C81.5,641.7,82.2,640.4,83,640.9L83,640.9z"/>
		</g>
		<g>
			<path class="stt1" d="M103.4,661.7c-4.2,7.1-5.5,15.6-3.6,23.7c0.2,0.9-1.2,1.4-1.4,0.4c-1.9-8.4-0.6-17.3,3.8-24.8
				C102.6,660.2,103.9,660.9,103.4,661.7L103.4,661.7z"/>
		</g>
		<g>
			<path class="stt1" d="M83.9,687.3c9.1,4.7,18.5,10.7,22,20.8c0.3,0.9-1.1,1.3-1.4,0.4c-3.4-9.8-12.5-15.5-21.3-20
				C82.4,688.2,83,686.9,83.9,687.3L83.9,687.3z"/>
		</g>
		<g>
			<path class="stt1" d="M118.4,718.9c-2.5,1.5-4,5-4.7,7.7c-0.7,2.9-0.7,5.9,0.1,8.7c0.2,0.9-1.2,1.4-1.4,0.4c-0.9-3.3-0.9-6.7,0-10
				c0.8-2.9,2.4-6.5,5.2-8.1C118.4,717.2,119.2,718.5,118.4,718.9L118.4,718.9z"/>
		</g>
		<g>
			<path class="stt1" d="M103.2,743.5c10,2.8,12.8,13.8,14.6,22.8c0.2,0.9-1.2,1.4-1.4,0.4c-1.6-8.4-4-19.2-13.5-21.8
				C102,744.7,102.3,743.3,103.2,743.5L103.2,743.5z"/>
		</g>
		<g>
			<path class="stt1" d="M122.4,768.5c-1.2,1.4-2.2,3-2.9,4.7c-0.3,0.8-0.6,1.7-0.8,2.6c-0.2,0.9-0.7,2.4-0.2,3.2
				c0.4,0.8-0.8,1.6-1.2,0.8c-1-1.8-0.1-4.5,0.5-6.2c0.8-2.3,2-4.3,3.5-6.1C121.9,766.8,123,767.7,122.4,768.5L122.4,768.5z"/>
		</g>
		<g>
			<path class="stt1" d="M83.5,609.7c-1.1,4.1-0.8,8.4,0.8,12.3c0.4,0.9-1,1.3-1.4,0.4c-1.7-4.2-2-8.7-0.9-13.1
				C82.4,608.5,83.8,608.8,83.5,609.7L83.5,609.7z"/>
		</g>
	</g>
	<g>
		<g>
			<path class="stt2" d="M265.2,723.5h-82.5c-1.2,0-2.2-1-2.2-2.2v-0.2c0-1.2,1-2.2,2.2-2.2h82.5c1.2,0,2.2,1,2.2,2.2v0.2
				C267.4,722.5,266.4,723.5,265.2,723.5z"/>
			<path class="stt3" d="M265.2,730.3h-82.5c-1.2,0-2.2-1-2.2-2.2v-0.2c0-1.2,1-2.2,2.2-2.2h82.5c1.2,0,2.2,1,2.2,2.2v0.2
				C267.4,729.3,266.4,730.3,265.2,730.3z"/>
			<polygon class="stt3" points="171.5,810.6 163.9,810.6 181.8,703.9 189.3,703.9 			"/>
			<polygon class="stt2" points="276,810.6 283.5,810.6 265.7,703.9 258.2,703.9 			"/>
			<path class="stt4" d="M289.6,713.6H157.8v-10.8c43.4,0.1,86.7,0.1,130.1,0.2c0.6,2.1,1.2,4.2,1.8,6.3
				C289.6,710.1,289.6,712.7,289.6,713.6z"/>
			<path class="stt5" d="M289.6,709.3c-43.9,0.1-87.9,0.2-131.8,0.3V581.4c2.1,1.8,4.3,3.5,6.5,5.3c1.5,1.2,3,2.5,4.6,3.8
				c5.5,28.6,11,57.1,16.6,85.7c4.3,0.3,6.6,0.5,6.9,0.6v0c0,0,0,0,0,0c19,2.9,39.9,7.3,62.2,13.9c11.7,3.4,22.8,7.2,33.1,11
				c0.2,1,0.5,1.9,0.7,2.9c0.1,0.4,0.2,0.8,0.3,1.2C289,706.9,289.3,708.1,289.6,709.3z"/>
			<path class="stt6" d="M173,676.2c-2.9-29.8-5.9-59.6-8.8-89.5c1.5,1.2,3,2.5,4.6,3.8c5.5,28.6,11,57.1,16.6,85.7
				C181.2,676.2,177.1,676.2,173,676.2z"/>
			<path class="stt6" d="M288.7,705.7c-20.8-6.1-44.3-11.7-70.2-15.9c-15.7-2.5-30.7-4.2-44.8-5.4c-0.2-3-0.5-6.1-0.7-9.1
				c6.7-0.3,13.2,0.2,19.3,1.4c0,0,0,0,0,0c19,2.9,39.9,7.3,62.2,13.9c11.7,3.4,22.8,7.2,33.1,11C288,703,288.3,704.3,288.7,705.7z"
				/>
		</g>
		<g>
			<path class="stt2" d="M832.7,723.5h82.5c1.2,0,2.2-1,2.2-2.2v-0.2c0-1.2-1-2.2-2.2-2.2h-82.5c-1.2,0-2.2,1-2.2,2.2v0.2
				C830.5,722.5,831.5,723.5,832.7,723.5z"/>
			<path class="stt3" d="M832.7,730.3h82.5c1.2,0,2.2-1,2.2-2.2v-0.2c0-1.2-1-2.2-2.2-2.2h-82.5c-1.2,0-2.2,1-2.2,2.2v0.2
				C830.5,729.3,831.5,730.3,832.7,730.3z"/>
			<polygon class="stt3" points="926.5,810.6 934,810.6 916.2,703.9 908.6,703.9 			"/>
			<polygon class="stt2" points="821.9,810.6 814.4,810.6 832.2,703.9 839.7,703.9 			"/>
			<path class="stt4" d="M808.3,713.6h131.8v-10.8c-43.4,0.1-86.7,0.1-130.1,0.2c-0.6,2.1-1.2,4.2-1.8,6.3
				C808.3,710.1,808.3,712.7,808.3,713.6z"/>
			<path class="stt5" d="M808.3,709.3c43.9,0.1,87.9,0.2,131.8,0.3V581.4c-2.1,1.8-4.3,3.5-6.5,5.3c-1.5,1.2-3,2.5-4.6,3.8
				c-5.5,28.6-11,57.1-16.5,85.7c-4.3,0.3-6.6,0.5-6.9,0.6v0c0,0,0,0,0,0c-19,2.9-39.9,7.3-62.2,13.9c-11.7,3.4-22.8,7.2-33.1,11
				c-0.2,1-0.5,1.9-0.7,2.9c-0.1,0.4-0.2,0.8-0.3,1.2C808.9,706.9,808.6,708.1,808.3,709.3z"/>
			<path class="stt6" d="M924.9,676.2c2.9-29.8,5.9-59.6,8.8-89.5c-1.5,1.2-3,2.5-4.6,3.8c-5.5,28.6-11,57.1-16.5,85.7
				C916.7,676.2,920.8,676.2,924.9,676.2z"/>
			<path class="stt6" d="M809.3,705.7c20.8-6.1,44.3-11.7,70.2-15.9c15.7-2.5,30.7-4.2,44.8-5.4c0.2-3,0.5-6.1,0.7-9.1
				c-6.7-0.3-13.2,0.2-19.3,1.4c0,0,0,0,0,0c-19,2.9-39.9,7.3-62.2,13.9c-11.7,3.4-22.8,7.2-33.1,11
				C810,703,809.6,704.3,809.3,705.7z"/>
		</g>
		<g>
			<path class="stt7" d="M303.2,700.9h95.7v-84.7c0-20.2-16.4-36.6-36.6-36.6h-22.4c-20.2,0-36.6,16.4-36.6,36.6V700.9z"/>
			<path class="stt2" d="M310.1,722.2h82.5c1.2,0,2.2-1,2.2-2.2v-0.2c0-1.2-1-2.2-2.2-2.2h-82.5c-1.2,0-2.2,1-2.2,2.2v0.2
				C307.9,721.2,308.9,722.2,310.1,722.2z"/>
			<path class="stt3" d="M310.1,729h82.5c1.2,0,2.2-1,2.2-2.2v-0.2c0-1.2-1-2.2-2.2-2.2h-82.5c-1.2,0-2.2,1-2.2,2.2v0.2
				C307.9,728,308.9,729,310.1,729z"/>
			<polygon class="stt3" points="403.9,809.3 411.4,809.3 393.6,702.6 386,702.6 			"/>
			<polygon class="stt2" points="299.3,809.3 291.8,809.3 309.6,702.6 317.1,702.6 			"/>
			<rect x="289.3" y="703.8" class="stt4" width="124.1" height="6.8"/>
			<path class="stt5" d="M398.3,693.7c-31.6,0-63.3,0-94.9,0c-4.7,3.5-9.4,7.1-14.1,10.6h124.1C408.4,700.8,403.3,697.2,398.3,693.7z
				"/>
		</g>
		<g>
			<path class="stt7" d="M470.9,700.2h95.7v-84.7c0-20.2-16.4-36.6-36.6-36.6h-22.4c-20.2,0-36.6,16.4-36.6,36.6V700.2z"/>
			<path class="stt2" d="M477.8,721.5h82.5c1.2,0,2.2-1,2.2-2.2v-0.2c0-1.2-1-2.2-2.2-2.2h-82.5c-1.2,0-2.2,1-2.2,2.2v0.2
				C475.6,720.5,476.6,721.5,477.8,721.5z"/>
			<path class="stt3" d="M477.8,728.3h82.5c1.2,0,2.2-1,2.2-2.2v-0.2c0-1.2-1-2.2-2.2-2.2h-82.5c-1.2,0-2.2,1-2.2,2.2v0.2
				C475.6,727.3,476.6,728.3,477.8,728.3z"/>
			<polygon class="stt3" points="571.6,808.6 579.1,808.6 561.3,701.9 553.8,701.9 			"/>
			<polygon class="stt2" points="467,808.6 459.5,808.6 477.3,701.9 484.8,701.9 			"/>
			<rect x="457" y="703.1" class="stt4" width="124.1" height="6.8"/>
			<path class="stt5" d="M566,693c-31.6,0-63.3,0-94.9,0c-4.7,3.5-9.4,7.1-14.1,10.6h124.1C576.1,700,571,696.5,566,693z"/>
		</g>
		<g>
			<path class="stt7" d="M646.1,699.4h95.7v-84.7c0-20.2-16.4-36.6-36.6-36.6h-22.4c-20.2,0-36.6,16.4-36.6,36.6V699.4z"/>
			<path class="stt2" d="M653.1,720.8h82.5c1.2,0,2.2-1,2.2-2.2v-0.2c0-1.2-1-2.2-2.2-2.2h-82.5c-1.2,0-2.2,1-2.2,2.2v0.2
				C650.9,719.8,651.9,720.8,653.1,720.8z"/>
			<path class="stt3" d="M653.1,727.6h82.5c1.2,0,2.2-1,2.2-2.2v-0.2c0-1.2-1-2.2-2.2-2.2h-82.5c-1.2,0-2.2,1-2.2,2.2v0.2
				C650.9,726.6,651.9,727.6,653.1,727.6z"/>
			<polygon class="stt3" points="746.8,807.9 754.3,807.9 736.5,701.2 729,701.2 			"/>
			<polygon class="stt2" points="642.3,807.9 634.7,807.9 652.6,701.2 660.1,701.2 			"/>
			<rect x="632.3" y="702.4" class="stt4" width="124.1" height="6.8"/>
			<path class="stt5" d="M741.2,692.2c-31.6,0-63.3,0-94.9,0c-4.7,3.5-9.4,7.1-14.1,10.6h124.1C751.3,699.3,746.3,695.8,741.2,692.2z
				"/>
		</g>
		<g>
			<g>
				<g>
					<g>
						<path class="stt8" d="M869.2,632.6c-0.6-2.4-1.5-4.9-2.7-7.4c-0.1-0.2-0.2-0.4-0.3-0.6c0,0,0,0,0,0c-0.5-1-1.1-2-2-3
							c0,0,0,0,0,0c-0.1-0.1-0.2-0.2-0.3-0.4c-0.2-0.3-0.5-0.5-0.7-0.8c-0.2-0.1-0.4-0.3-0.6-0.4c0,0,0,0-0.1,0c0,0-0.1,0-0.1-0.1
							c-0.1,0-0.2,0-0.3,0.1c-0.3,0.1-0.6,0.2-0.9,0.3l0,0c-0.7,0.3-1.6,0.6-2.6,1.1c-0.4,0.2-0.9,0.4-1.4,0.6c0,0-0.1,0-0.1,0
							c0,0,0,0,0,0c-0.2,0.1-0.5,0.2-0.7,0.3c-0.3,0.2-0.6,0.3-1,0.5c-0.1,0-0.1,0.1-0.2,0.1c-5.6,2.6-13.5,6.6-21.1,10.5
							c-3.7,1.9-7.4,3.8-10.8,5.6c0,0,0,0,0,0c0,0,0,0-0.1,0c-0.4,0.2-0.7,0.4-1,0.5c0,0-0.1,0-0.1,0.1c0,0,0,0-0.1,0
							c-3.3,1.7-6.2,3.2-8.4,4.4c0,0-0.1,0-0.1,0.1c-0.1,0-0.2,0.1-0.2,0.1c-0.1,0-0.1,0.1-0.2,0.1c0,0-0.1,0-0.1,0.1
							c-0.5,0.3-1,0.6-1.5,0.8c-0.3,0-0.5,0.1-0.8,0.1c-0.2,0-0.3,0-0.5,0.1c-0.5,0.1-1,0.1-1.4,0.2c-0.6,0.1-1.1,0.2-1.7,0.3l0,0
							c0.3,4.1,0.7,6.7,1.1,8.2c0.4,1.4,0.9,1.9,1.3,1.9c1.4,0.2,5.4-3.9,6-4.2c0.1,0,0.1-0.1,0.2-0.1c0.1,0,0.1-0.1,0.2-0.1l0,0
							c0.1-0.1,0.2-0.1,0.3-0.2c0.6-0.4,1.2-0.8,1.8-1.1c0.1,0,0.1-0.1,0.2-0.1c0.6-0.3,1.2-0.7,1.7-1c14.3-3.4,25.5-6.3,32.5-7.9
							c0,0,7.3-1.6,13.5-5.6c0.9-0.6,1.6-1.3,1.6-1.3C868.3,633.7,868.8,633.1,869.2,632.6z"/>
					</g>
					<path class="stt8" d="M801.7,661.1c1.7-0.3,4-0.8,6.5-2.1c4.6-2.5,7-6.1,8.1-7.9c-0.9-2.2-1.8-4.3-2.7-6.5
						c-2.1-0.1-5.1,0.1-8.4,1.5c-7.3,2.9-13.3,10.2-11.8,13.3C793.9,660.5,795.8,661.6,801.7,661.1z"/>
				</g>
			</g>
			<path class="stt9" d="M840.7,646.4c9.4-3.1,18.8-6.2,28.2-9.3c-1.2-2.3-2.5-4.8-4.1-7.4c-1.5-2.5-3-4.7-4.5-6.8
				c-0.7-0.5-1.7-1.1-3.2-1.4c-0.6-0.1-1.1-0.2-1.6-0.2c-7.9,4-15.8,8-23.8,12.1C834.7,637.7,837.7,642,840.7,646.4z"/>
			<path class="stt10" d="M805.6,754.5c1.7,4.3,3.5,8.6,5.2,12.8c6.9-2.6,13.7-5.3,20.6-7.9c-2.4-5.1-4.8-10.2-7.2-15.3
				C818.1,747.6,811.8,751.1,805.6,754.5z"/>
			<path class="stt11" d="M803.7,756.2c8.2-2.2,16.3-4.5,24.5-6.7c-8.6-25.3-17.1-50.6-25.7-75.9c-10.6,0.9-21.3,1.8-31.9,2.8
				c0.1,0.3,0.3,0.7,0.4,1C781.9,703.6,792.8,729.9,803.7,756.2z"/>
			<g>
				<path class="stt12" d="M784.5,795.6c0.7,1.1,1.4,2.2,2.2,3.2c1.9-0.6,4.8-1.5,8.1-2.8c3.6-1.4,10.2-4.2,23.3-12.6
					c5-3.2,11.4-7.4,18.8-12.9c-0.7-2.6-1.4-5.2-2.1-7.8C818.1,773.8,801.3,784.7,784.5,795.6z"/>
				<path class="stt13" d="M836,768.1c-39.1,26.5-49.8,30-51.8,27.6c-1.6-1.9,1.7-8.5,4.2-12c2.7-3.8,4.9-4.6,7.4-6.7
					c0.4-0.4,0.9-0.8,1.3-1.2c0.3-0.3,0.7-0.7,1.1-1.2c0.4-0.4,0.7-0.9,1.1-1.4c0.2-0.2,0.3-0.4,0.5-0.7c0.2-0.2,0.3-0.5,0.5-0.7
					c0.3-0.5,0.6-1,1-1.5c0.3-0.4,0.6-0.8,0.9-1.3c0.3-0.5,0.7-0.9,1.1-1.4c0.4-0.4,0.8-0.9,1.2-1.3c0.4-0.4,0.8-0.7,1.2-1.1
					c0,0,0.1-0.1,0.1-0.1c0.5-0.4,1-0.8,1.4-1.2c0.5-0.4,1.1-0.8,1.5-1.1c0.4-0.3,0.8-0.5,1.1-0.7l-0.2-0.9c3.1-0.4,7.1-1.2,11.5-3
					c3.5-1.4,6.4-3.1,8.6-4.6c1.4,1.4,3.7,4.1,5.2,8.1C835.7,764.1,836,766.4,836,768.1z"/>
				<path class="stt13" d="M816.3,751.6c0.9,0.7,1.1,1.7,1.6,3.6c0.5,1.9,0.9,3.7,0.1,5.7c-0.2,0.7-1,2.8-3.1,3.6
					c-2.1,0.8-4.7,0-6.6-2c-0.4-0.9-1-2.2-1.4-3.9c-0.6-2.5-1-4.2-0.1-5.6c0.9-1.3,2.5-1.6,4.5-1.9
					C813.2,750.8,815,750.5,816.3,751.6z"/>
				<path class="stt14" d="M808.3,772.8c-0.3,0.4-0.9,0.4-1.3,0.1l-4.9-4c0.3-0.5,0.7-0.9,1.1-1.4l4.9,4
					C808.5,771.8,808.6,772.4,808.3,772.8z"/>
				<path class="stt14" d="M811.3,770.7c-0.3,0.4-0.9,0.4-1.3,0.1l-5.6-4.5c0.4-0.4,0.8-0.7,1.2-1.1c0,0,0.1-0.1,0.1-0.1l5.4,4.4
					C811.5,769.7,811.6,770.3,811.3,770.7z"/>
				<path class="stt14" d="M814.3,768.5c-0.3,0.4-0.9,0.4-1.3,0.1l-5.9-4.8c0.5-0.4,1.1-0.8,1.5-1.1l5.5,4.5
					C814.6,767.6,814.6,768.1,814.3,768.5z"/>
				<path class="stt14" d="M805.8,775.1c-0.3,0.4-0.9,0.4-1.3,0.1l-4.3-3.5c0.3-0.5,0.6-1,1-1.5l4.4,3.6
					C806,774.1,806.1,774.7,805.8,775.1z"/>
				<path class="stt14" d="M802.7,777.1c-0.3,0.4-0.9,0.4-1.3,0.1l-3.3-2.7c0.4-0.4,0.7-0.9,1.1-1.4l3.3,2.7
					C803,776.2,803.1,776.8,802.7,777.1z"/>
				<path class="stt14" d="M799.7,779c-0.3,0.4-0.9,0.4-1.3,0.1l-2.6-2.1c0.4-0.4,0.9-0.8,1.3-1.2l2.4,2
					C799.9,778,800,778.6,799.7,779z"/>
			</g>
			<path class="stt15" d="M812,777.4c1.1,6.1,2.3,12.3,3.5,18.4c5.5-3.9,11-7.7,16.5-11.6c0.2-5.5,0.4-10.9,0.6-16.4
				C825.6,771,818.8,774.2,812,777.4z"/>
			<path class="stt11" d="M847.7,650.7c6.6,2.3,13.2,4.5,19.8,6.8c-24.5,6.5-48.9,13.1-73.4,19.6c-4.1,7.1-12.9,9.1-18.7,5.5
				c-4.5-2.9-6.8-9-5.1-14.9c2.6-7.1,6.6-10.4,8.7-11.9c4.7-3.2,9.8-3.9,18.4-5.1c4.8-0.6,8.5-0.8,9.4-0.8
				C821.4,649.4,840.2,650.3,847.7,650.7z"/>
			<path class="stt16" d="M873.1,657.2c11.7,4.1,23.5,8.2,35.2,12.3c-0.4,2.8-1.6,7.8-5.3,12.6c-5.9,7.6-14.4,9.5-16.6,9.9
				c-8.8,1.7-11.6-2.3-23.1-0.6c-4.2,0.6-5.8,1.7-9.5,2.5c-12.7,2.6-23.5,1.9-30.4,1c-9-5.5-18.1-10.9-27.1-16.4
				c0.7-1.8,2.3-5.2,5.6-8.2c3.3-3,6.7-4.2,8.5-4.7c6.6-1.2,13.4-2.4,20.3-3.4C845.5,659.9,859.6,658.3,873.1,657.2z"/>
			<path class="stt16" d="M810.4,781.1c8-1.6,15.9-3.3,23.9-4.9c2-34.3,2.1-59.8,1.6-68.9c-0.3-5.1-1.2-11.4-4.7-17.7
				c-0.9-1.6-1.9-3-2.9-4.3c-10.7-2.3-21.4-4.6-32-6.9C801,712.6,805.7,746.8,810.4,781.1z"/>
			<path class="stt17" d="M907.8,525.3c0,0.3,0,0.6,0,0.9c-1.2,6.1-2.3,12.3-3.5,18.4c-1.7,8.9-3.4,17.9-5.1,26.8
				c-8.6,12.8-17.2,25.5-25.7,38.3c-13.6-29.1-24.3-65.2-22.7-106.2c0.1-3.8,0.4-7.5,0.7-11.2c1.5-2.3,5.5-8,13-10.8
				c13.3-5.1,25.3,3.1,26.4,3.9c2.2,2.3,4,4.7,5.5,6.9c1.7,2.6,3.3,5.6,7.7,17.8c1.2,3.4,2.2,6.2,3,8.5
				C907.6,520.6,907.9,522.8,907.8,525.3z"/>
			<path class="stt9" d="M852.1,621.8c-2.7,9.4,1.8,17.8,7,19.3c5.7,1.7,15.1-4,16.6-14.9c2.6-18.9,5.2-37.8,7.8-56.7
				c1.2-10.8-6.7-18.5-13.3-18.1c-5.1,0.3-10.3,5.6-11.5,13C856.6,583.6,854.3,602.7,852.1,621.8z"/>
			<path class="stt8" d="M872.3,527.7c1.7,3,3.1,5.5,4.1,7.1c1.9,3.2,2.5,4.1,2.9,5.6c0.7,2.9,0,5.6-1,7.9c-0.7,0.5-1.3,1-2,1.4
				c-0.3,0.7-0.7,1.5-1,2.3c-2.4,6-3.1,11.8-3.1,16.7c18.4-0.1,31.5-8.4,32.8-17.6c0.2-1.8,0.3-5.6-3.2-10.7
				c-1.2-1.7-2.5-3.4-3.7-5.1c-2.1-4.5-4.3-9.1-6.4-13.6C885.3,523.6,878.8,525.6,872.3,527.7z"/>
			<path class="stt18" d="M877.4,548.7c-2.7,9.2-3.2,14.3-1.6,15.1c2.6,1.4,10.7-7.5,24.1-26.6c6.3,1.7,12.6,3.4,18.8,5.2
				c3.5,8.2,7.7,20.4,9.4,35.7c0.7,6.4,1.5,18.3-1.6,38.9c-2.5,16-7.7,39.7-20,67.6c-19.7-11.4-39.4-22.7-59-34.1
				c2.3-2.7,4.8-5.4,7.5-8.2c4.5-4.6,8.9-8.6,13.1-12c2.3-13.9,0.8-24.2-1.1-31.2c-2.9-10.5-6-14.4-5.8-24.5
				c0.1-4.5,0.6-14.8,8.2-21.5C872.3,550.6,875.4,549.4,877.4,548.7z"/>
			<path class="stt19" d="M927.1,614.3c2,9.5,10,14.8,15.3,13.7c5.8-1.2,11.4-10.6,7.6-21c-6.6-17.9-13.3-35.7-19.9-53.6
				c-4-10.1-14.7-13.1-20.3-9.7c-4.3,2.7-6.4,9.9-4,16.9C912.9,578.5,920,596.4,927.1,614.3z"/>
			<path class="stt20" d="M894.2,518.7c-0.3,1.6-0.9,3.6-2,5.8c-5.6,8.6-14,13.9-21.2,12.4c-10.1-2.1-13.7-16.6-15.4-23.3
				c-1.8-7.2-1.6-13.5-1.2-17.7c-0.7-1.3-1.3-2.6-2-3.9c2.7-6.9,9.7-11.4,16.3-12.6c1.1-0.2,11.3-1.9,17.2,4.4
				c1.7,1.9,2.5,3.8,3.4,6.5c0.9,2.8,1.7,5,2.1,6.6C894.1,507.5,895.5,512.7,894.2,518.7z"/>
			<path class="stt20" d="M856.6,511.1c-0.4,4-0.7,8.1-1.1,12.1c3.9,1.4,5.2,0.8,5.7,0.3C863.4,521.2,858,513.2,856.6,511.1z"/>
			<path class="stt17" d="M894.4,498.7c-14.3,2.2-28.6,4.4-42.9,6.6c-0.3-0.8-3.3-10.5,3-18.8c5.3-7,13.4-7.7,14.6-7.8
				c11.3-1.4,21.1,3,24.4,10.4C894.2,490.7,895.3,493.9,894.4,498.7z"/>
			<path class="stt17" d="M891.7,486.5c0.1-0.1,1.8,2.6,8.8,15c5.4,7.1,11.1,15.8,16.3,26.4c2.9,5.9,5.2,11.5,7.1,16.8
				c-6.9,0.1-12.2-1.3-15.7-2.5c-2.5-0.8-4.7-1.7-7.1-3.4c-5.8-4.1-7.9-10.4-8.8-13c-2.4-6.8-7.1-16.5-16.7-31
				c4.9,0.5,9.8,0.9,14.8,1.4c1-0.9,1.9-2.1,2.3-3.7C893.4,489.8,891.5,486.5,891.7,486.5z"/>
			<path class="stt20" d="M879.6,506.3c-0.8,3.4-0.3,6.4,1.2,6.7c1.4,0.3,3.2-2.2,4-5.5c0.8-3.4,0.3-6.4-1.2-6.7
				C882.2,500.4,880.4,502.9,879.6,506.3z"/>
			<g>
				<g>
					<g>
						<path class="stt20" d="M942.3,626.2c-0.6-2.5-1.3-5.1-2.4-7.7c-0.1-0.2-0.2-0.4-0.2-0.6c0,0,0,0,0,0c-0.5-1.1-1.1-2.1-1.9-3.2
							c0,0,0,0,0,0c-0.1-0.1-0.2-0.3-0.3-0.4c-0.2-0.3-0.5-0.6-0.7-0.8c-0.2-0.2-0.4-0.3-0.6-0.4c0,0,0,0-0.1,0c0,0-0.1-0.1-0.1-0.1
							c-0.1,0-0.2,0-0.3,0.1c-0.3,0.1-0.6,0.2-1,0.3l0,0c-0.7,0.2-1.6,0.6-2.7,1c-0.5,0.2-1,0.4-1.5,0.6c0,0-0.1,0-0.1,0
							c0,0,0,0,0,0c-0.2,0.1-0.5,0.2-0.8,0.3c-0.3,0.1-0.7,0.3-1,0.4c-0.1,0-0.1,0.1-0.2,0.1c-5.9,2.4-14.1,6.2-22.1,9.9
							c-3.9,1.8-7.8,3.6-11.3,5.3c0,0,0,0,0,0c0,0,0,0-0.1,0c-0.4,0.2-0.7,0.3-1.1,0.5c0,0-0.1,0-0.1,0.1c0,0,0,0-0.1,0
							c-3.4,1.6-6.5,3.1-8.8,4.2c-0.1,0-0.1,0-0.1,0.1c-0.1,0-0.2,0.1-0.2,0.1c-0.1,0-0.2,0.1-0.2,0.1c-0.1,0-0.1,0-0.2,0.1
							c-0.6,0.3-1.1,0.5-1.6,0.7c-0.3,0-0.5,0.1-0.8,0.1c-0.2,0-0.3,0-0.5,0c-0.5,0.1-1,0.1-1.5,0.2c-0.6,0.1-1.2,0.1-1.7,0.2l0,0
							c0.1,4.3,0.4,6.9,0.8,8.5c0.4,1.4,0.8,2,1.3,2c1.5,0.2,5.7-3.7,6.3-4.1c0.1,0,0.1-0.1,0.2-0.1c0.1,0,0.2-0.1,0.2-0.1l0,0
							c0.1-0.1,0.2-0.1,0.3-0.2c0.7-0.4,1.3-0.7,1.9-1.1c0.1,0,0.1-0.1,0.2-0.1c0.6-0.3,1.2-0.6,1.8-0.9c14.8-2.9,26.4-5.4,33.7-6.8
							c0,0,7.6-1.3,14-5.2c0.9-0.6,1.7-1.2,1.7-1.2C941.3,627.3,941.9,626.7,942.3,626.2z"/>
					</g>
					<path class="stt20" d="M871.9,652.6c1.7-0.2,4.1-0.7,6.7-1.9c4.8-2.3,7.5-6,8.6-7.8c-0.8-2.3-1.7-4.5-2.5-6.8
						c-2.1-0.1-5.3-0.1-8.7,1.2c-7.6,2.7-14.1,9.9-12.7,13.2C863.9,651.7,865.8,652.9,871.9,652.6z"/>
				</g>
			</g>
			<path class="stt19" d="M915.4,620.1c7.1-4.9,13.2-9,18.1-12.1c5.5-3.5,7.6-4.8,10-4.1c5.1,1.4,8.8,10.2,6.4,16.5
				c-0.9,2.3-2.5,4-4.9,5.8c-3.7,2.8-10.7,7.3-22.1,9.4C920.5,630.4,917.9,625.2,915.4,620.1z"/>
			<g>
				<path class="stt21" d="M777.9,811.4c0.4,1.2,0.8,2.5,1.3,3.7c2-0.1,5-0.2,8.6-0.6c3.9-0.4,10.9-1.4,25.8-6.1
					c5.6-1.8,13-4.3,21.5-7.6c0-2.7,0-5.4,0-8.1C815.9,798.9,796.9,805.2,777.9,811.4z"/>
				<path class="stt22" d="M834.7,798c-44.6,15.6-55.8,16.1-57.2,13.4c-1.1-2.2,3.8-7.7,7.2-10.5c3.6-3,5.9-3.2,8.9-4.6
					c0.5-0.2,1-0.5,1.6-0.9c0.4-0.2,0.9-0.5,1.3-0.9c0.5-0.3,0.9-0.7,1.4-1.1c0.2-0.2,0.4-0.3,0.6-0.5c0.2-0.2,0.4-0.4,0.7-0.6
					c0.4-0.4,0.9-0.8,1.3-1.2c0.4-0.3,0.8-0.7,1.2-1c0.4-0.4,0.9-0.7,1.4-1.1c0.5-0.3,0.9-0.6,1.5-0.9c0.4-0.3,0.9-0.5,1.4-0.8
					c0.1,0,0.1-0.1,0.2-0.1c0.6-0.3,1.1-0.5,1.7-0.8c0.6-0.3,1.2-0.5,1.7-0.7c0.5-0.2,0.9-0.3,1.3-0.4l0-1c3.1,0.4,7.1,0.7,11.8,0.1
					c3.8-0.5,7-1.3,9.5-2.2c1,1.8,2.6,4.9,2.9,9.1C835.4,794.1,835.1,796.4,834.7,798z"/>
				<path class="stt22" d="M819.9,777c0.7,0.9,0.6,1.9,0.6,3.8c-0.1,2-0.1,3.8-1.3,5.5c-0.4,0.6-1.7,2.4-3.9,2.7
					c-2.2,0.3-4.6-1.2-5.9-3.7c-0.2-1-0.4-2.4-0.3-4.1c0.1-2.6,0.1-4.3,1.3-5.4c1.2-1,2.9-0.9,4.8-0.7
					C817.1,775.4,818.9,775.6,819.9,777z"/>
				<path class="stt14" d="M806.7,795.5c-0.4,0.3-1,0.2-1.3-0.2l-3.7-5.1c0.4-0.4,0.9-0.7,1.4-1.1l3.7,5.1
					C807.2,794.6,807.1,795.2,806.7,795.5z"/>
				<path class="stt14" d="M810.2,794.2c-0.4,0.3-1,0.2-1.3-0.2l-4.2-5.8c0.4-0.3,0.9-0.5,1.4-0.8c0.1,0,0.1-0.1,0.2-0.1l4.1,5.6
					C810.6,793.3,810.6,793.9,810.2,794.2z"/>
				<path class="stt14" d="M813.6,792.9c-0.4,0.3-1,0.2-1.3-0.2l-4.5-6.1c0.6-0.3,1.2-0.5,1.7-0.7l4.2,5.7
					C814.1,792,814,792.6,813.6,792.9z"/>
				<path class="stt14" d="M803.7,797c-0.4,0.3-1,0.2-1.3-0.2l-3.2-4.5c0.4-0.4,0.9-0.8,1.3-1.2l3.3,4.6
					C804.2,796.2,804.1,796.7,803.7,797z"/>
				<path class="stt14" d="M800.2,798.2c-0.4,0.3-1,0.2-1.3-0.2l-2.5-3.5c0.5-0.3,0.9-0.7,1.4-1.1l2.5,3.5
					C800.7,797.4,800.6,797.9,800.2,798.2z"/>
				<path class="stt14" d="M796.8,799.2c-0.4,0.3-1,0.2-1.3-0.2l-2-2.7c0.5-0.2,1-0.5,1.6-0.9l1.8,2.5
					C797.3,798.4,797.2,798.9,796.8,799.2z"/>
			</g>
		</g>
		<g>
			<g>
				<path class="stt23" d="M556.6,675.3c-25.3-0.1-50.5-0.1-75.8-0.2c1.2-5.7,2.3-11.4,3.5-17.1h70.5
					C555.4,663.7,556,669.5,556.6,675.3z"/>
				<g>
					<path class="stt24" d="M498.1,801.7c-5.9,0.7-11.8,1.3-17.7,2c-7.6-36.7-15.1-73.4-22.7-110.1c0.7-2.5,2.6-8.2,7.9-11.3l0,0
						c7,0,13.2-1.7,15.1-1c8.2,2.8,9.5,21,9.8,24C492,728,494.8,760.7,498.1,801.7z"/>
					<path class="stt1" d="M565.6,678.6c0,0.1-0.1,0.2-0.1,0.3c-0.2,0.6-0.4,1.3-0.6,2c-0.7,2-1.7,4.5-3.2,7
						c-3.8,6.2-12.1,15.5-20.1,15.3c-0.7,0-1.5-0.1-2.2-0.3c0,0-0.1,0-0.1,0c0,0-0.1,0-0.1,0c0,0-0.1,0-0.1,0
						c-0.4-0.1-0.8-0.2-1.1-0.4c-3.5-3.3-7-6.5-10.5-9.8c-0.1-0.2-0.2-0.4-0.3-0.6c-0.1,0-0.1,0-0.2,0h0c-2.2,0.6-5.2,1.1-8.7,1.1
						c-3.8,0-7-0.7-9.2-1.4c-1.5,1.7-3.3,3.5-5.6,5.3c-0.3,0.2-0.5,0.4-0.8,0.6c-2.9,2.2-5.7,3.8-8.1,4.9c0,0-0.1,0-0.1,0
						c0,0-0.1-0.1-0.1-0.1c-1.7-1.8-3.4-3.6-5-5.4c-1.4-1.5-2.9-3.1-4.3-4.6c-0.8-1-3.8-4.5-8.5-4.7c-1.1-0.1-2.1,0.1-2.9,0.3
						c-4.1-0.8-8.1-1.7-12.2-2.5l0,0l4.2-3.4c6.5-5.4,13.1-10.7,19.6-16.1c2.1-0.6,5.2-1.5,9-1.9c2-0.3,3.5-0.3,6.1-0.4
						c4.9-0.3,8.9-0.4,12.5-0.4c11-0.2,21.1-0.2,28.9-0.1c0.4,0,0.8,0,1.2,0c0.4,0.1,0.7,0.3,1.1,0.4c11.2,4.7,18,11.3,19.8,13.1
						C564.6,677.5,565.1,678,565.6,678.6z"/>
					<path class="stt24" d="M576,693.6c-2.6,12.5-5.3,25-7.9,37.4c-5.1,24.2-10.3,48.4-15.4,72.5c-5.7-0.7-11.4-1.4-17.1-2
						c-0.1-13.4-0.3-46.4,2.6-74.6c0.9-8.6,2-16.8,3.5-23.7c2.6-12.1,6.2-20.7,11.4-22.1c5.1-1.5,9.2-0.9,11.9-0.2
						c2,0.6,3.2,1.2,3.2,1.2c0.7,0.4,1.3,0.9,1.9,1.4l0,0c2.2,2.6,3.9,5,5.2,8C575.4,692.1,575.7,692.8,576,693.6z"/>
					<path class="stt1" d="M508.8,691.5c-1.4,1.9-3.4,4.2-6.3,6.4c-0.1,0.1-0.2,0.2-0.4,0.3c-0.1,0.1-0.1,0.1-0.2,0.2
						c-0.8,0.6-1.6,1.2-2.4,1.7c0,0-0.1,0.1-0.1,0.1c-1.4,0.9-2.7,1.5-3.9,2.1c-0.3,0.2-0.7,0.4-1,0.6c-0.8,0.4-1.6,0.9-2.3,1.3
						c0,0,0,0.1-0.1,0.1c-0.4,0.7-0.8,1.4-1.2,2.1c0.8,6.6,1.6,13.2,2.3,19.8c-0.4,0-0.8,0.1-1.2,0.1c-9.1,0.7-18.1,1.3-27.2,2
						c-0.3,0-0.7,0-1,0.1c-2.2-11.1-4.2-21.2-5.2-27.9c-0.1-1.4-0.2-2.7-0.3-4.1c-0.1-1.2-0.2-2.3-0.3-3.5c0-0.6-0.1-1.2-0.1-1.7
						c0-0.1,0-0.2,0-0.3c0-0.1,0.1-0.1,0.1-0.2c0.8-1.1,1.7-2.2,2.6-3.3c0.4-0.4,0.8-0.9,1.1-1.4c0.1-0.1,0.3-0.3,0.4-0.5
						c0.4-0.4,0.8-0.9,1.2-1.3c0,0,0.1-0.1,0.1-0.1c1.3-1.5,2.8-3,4.3-4.5c6-5.8,12-10.2,17.1-13.3c0.2,0,0.4,0,0.8,0
						c2.9,0.2,11.5,1.3,17.7,8.7C508.9,681.8,508.8,689.6,508.8,691.5z"/>
					<path class="stt1" d="M499.3,786.8c-0.8,0.1-1.6,0.2-2.4,0.3c-6.5,0.8-13,1.6-19.5,2.4c-0.2,0-0.5,0.1-0.7,0.1
						c-1.9-8.9-8.1-37.4-13-61.4c-2.2-11.1-4.2-21.2-5.2-27.9c-0.6-3.7-0.9-6.3-0.9-7.6c0-0.6,0.1-1.2,0.2-1.7
						c0-0.2,0.1-0.4,0.1-0.5c0.1-0.6,0.3-1,0.3-1c0.9-2.5,2.9-4.3,5-5.5c0,0,0,0,0.1,0c0.4-0.2,0.8-0.4,1.2-0.6c1-0.5,2.1-0.9,3-1.1
						c2.1-0.6,3.7-0.8,3.8-0.8c1.4-0.1,2.7-0.1,3.9,0.1c5.1,0.7,9,3.5,10.9,5.1c0.7,0.6,1.2,1.1,1.3,1.2c3.7,4.1,4.7,8.9,4.9,12.5
						c0.1,1.6,0,2.9-0.2,3.9c-0.1,0.7-0.2,1.2-0.2,1.3C494.3,732.6,496.8,759.7,499.3,786.8z"/>
					<path class="stt1" d="M576.7,696.4c-2.4,11.6-4.8,23.2-7.2,34.8c-0.5-0.1-1-0.1-1.5-0.2c-10-1.3-19.9-2.7-29.9-4
						c-0.1,0-0.2,0-0.4,0c0.3-8,0.5-15.9,0.8-23.9c-0.2-0.2-0.4-0.4-0.6-0.5c-3.5-3.3-7-6.5-10.5-9.8c-0.2-0.2-0.3-0.3-0.5-0.5
						c0,0,0,0,0,0c-1.7-10.5,1.7-19.3,5.4-23c4.1-4.1,9.4-5.9,9.4-5.9c0.2-0.1,0.4-0.1,0.6-0.2c0.1,0,0.3,0.1,0.5,0.2
						c0.4,0.1,0.7,0.3,1.1,0.4c11.2,4.7,18,11.3,19.8,13.1c0.7,0.7,1.2,1.2,1.7,1.8c0.3,0.3,0.5,0.6,0.8,0.9c1.3,1.5,2.5,2.8,3.6,4
						l0,0c2.2,2.6,3.9,5,5.2,8c0.2,0.5,0.5,1.2,0.8,2.1C576.2,694.4,576.5,695.4,576.7,696.4z"/>
					<path class="stt1" d="M534.3,787.8c7.4,0.7,14.8,1.4,22.1,2.2c6.7-31.2,13.5-62.4,20.2-93.5c-0.5-2.1-1.6-5.9-4.9-8.9
						c-6-5.6-15.6-5.6-22.4-1.9c-9.8,5.3-10.8,16.7-10.9,17.5C537.1,731.3,535.7,759.6,534.3,787.8z"/>
					<g>
						<path class="stt21" d="M455.4,824.5c0.4,1,0.9,1.9,1.3,2.9c1.6-0.2,4.1-0.5,7-1.1c3.1-0.6,8.8-2,20.6-7
							c4.5-1.9,10.3-4.5,17-7.9c-0.2-2.2-0.4-4.4-0.6-6.6C485.6,811.4,470.5,818,455.4,824.5z"/>
						<path class="stt25" d="M500.9,809.2c-35.3,16.1-44.4,17.4-45.7,15.3c-1-1.7,2.6-6.6,5.1-9.1c2.7-2.7,4.6-3.1,6.9-4.4
							c0.4-0.2,0.8-0.5,1.2-0.8c0.3-0.2,0.7-0.5,1-0.8c0.3-0.3,0.7-0.6,1.1-1c0.2-0.2,0.3-0.3,0.5-0.5c0.2-0.2,0.3-0.3,0.5-0.5
							c0.3-0.3,0.6-0.7,1-1.1c0.3-0.3,0.6-0.6,0.9-0.9c0.3-0.3,0.7-0.7,1.1-1c0.3-0.3,0.7-0.6,1.1-0.9c0.3-0.2,0.7-0.5,1.1-0.8
							c0,0,0.1-0.1,0.1-0.1c0.4-0.3,0.9-0.5,1.3-0.7c0.5-0.3,1-0.5,1.4-0.7c0.4-0.2,0.7-0.3,1-0.4l-0.1-0.8c2.5,0.1,5.9,0,9.7-0.8
							c3.1-0.7,5.6-1.6,7.6-2.5c1,1.4,2.5,3.8,3.1,7.2C501.2,806,501.1,807.9,500.9,809.2z"/>
						<path class="stt25" d="M487.2,793.2c0.6,0.7,0.7,1.5,0.8,3.1c0.1,1.6,0.2,3.1-0.7,4.6c-0.3,0.5-1.2,2.1-3,2.5
							c-1.8,0.4-3.8-0.6-5.1-2.6c-0.2-0.8-0.5-1.9-0.6-3.4c-0.1-2.1-0.2-3.6,0.7-4.5c0.9-0.9,2.3-0.9,3.9-0.9
							C484.8,792.1,486.3,792.2,487.2,793.2z"/>
						<path class="stt14" d="M477.8,809.3c-0.3,0.3-0.8,0.2-1-0.1l-3.4-3.9c0.3-0.3,0.7-0.7,1.1-1l3.4,3.9
							C478.1,808.5,478.1,809,477.8,809.3z"/>
						<path class="stt14" d="M480.5,808c-0.3,0.3-0.8,0.2-1-0.1l-3.9-4.4c0.3-0.2,0.7-0.5,1.1-0.8c0,0,0.1-0.1,0.1-0.1l3.8,4.3
							C480.9,807.2,480.8,807.7,480.5,808z"/>
						<path class="stt14" d="M483.3,806.6c-0.3,0.3-0.8,0.2-1-0.1l-4.1-4.7c0.5-0.3,1-0.5,1.4-0.7l3.8,4.4
							C483.6,805.9,483.6,806.4,483.3,806.6z"/>
						<path class="stt14" d="M475.5,810.8c-0.3,0.3-0.8,0.2-1-0.1l-3-3.4c0.3-0.3,0.6-0.7,1-1.1l3.1,3.5
							C475.8,810,475.8,810.5,475.5,810.8z"/>
						<path class="stt14" d="M472.7,812c-0.3,0.3-0.8,0.2-1-0.1l-2.3-2.6c0.3-0.3,0.7-0.6,1.1-1l2.3,2.7
							C473.1,811.3,473,811.8,472.7,812z"/>
						<path class="stt14" d="M470,813.1c-0.3,0.3-0.8,0.2-1-0.1l-1.8-2.1c0.4-0.2,0.8-0.5,1.2-0.8l1.7,1.9
							C470.3,812.4,470.3,812.8,470,813.1z"/>
					</g>
					<g>
						<path class="stt21" d="M578,823.2c-0.4,1-0.9,1.9-1.3,2.9c-1.6-0.2-4.1-0.5-7-1.1c-3.1-0.6-8.8-2-20.6-7
							c-4.5-1.9-10.3-4.5-17-7.9c0.2-2.2,0.4-4.4,0.6-6.6C547.8,810.1,562.9,816.6,578,823.2z"/>
						<path class="stt25" d="M532.5,807.9c35.3,16.1,44.4,17.4,45.7,15.3c1-1.7-2.6-6.6-5.1-9.1c-2.7-2.7-4.6-3.1-6.9-4.4
							c-0.4-0.2-0.8-0.5-1.2-0.8c-0.3-0.2-0.7-0.5-1-0.8c-0.3-0.3-0.7-0.6-1.1-1c-0.2-0.2-0.3-0.3-0.5-0.5c-0.2-0.2-0.3-0.3-0.5-0.5
							c-0.3-0.3-0.7-0.7-1-1.1c-0.3-0.3-0.6-0.6-0.9-0.9c-0.3-0.3-0.7-0.7-1.1-1c-0.3-0.3-0.7-0.6-1.1-0.9c-0.3-0.2-0.7-0.5-1.1-0.8
							c0,0-0.1-0.1-0.1-0.1c-0.4-0.3-0.9-0.5-1.3-0.7c-0.5-0.3-1-0.5-1.4-0.7c-0.4-0.2-0.7-0.3-1-0.4l0.1-0.8
							c-2.5,0.1-5.9,0-9.7-0.8c-3.1-0.7-5.6-1.6-7.6-2.5c-1,1.4-2.5,3.8-3.1,7.2C532.2,804.7,532.3,806.6,532.5,807.9z"/>
						<path class="stt25" d="M546.2,791.9c-0.6,0.7-0.7,1.5-0.8,3.1c-0.1,1.6-0.2,3.1,0.7,4.6c0.3,0.5,1.2,2.1,3,2.5
							c1.8,0.4,3.8-0.6,5.1-2.6c0.2-0.8,0.5-1.9,0.6-3.4c0.1-2.1,0.2-3.6-0.7-4.5c-0.9-0.9-2.3-0.9-3.9-0.9
							C548.6,790.8,547.1,790.8,546.2,791.9z"/>
						<path class="stt14" d="M555.6,808c0.3,0.3,0.8,0.2,1-0.1l3.4-3.9c-0.3-0.3-0.7-0.7-1.1-1l-3.4,3.9
							C555.3,807.2,555.3,807.7,555.6,808z"/>
						<path class="stt14" d="M552.9,806.6c0.3,0.3,0.8,0.2,1-0.1l3.9-4.4c-0.3-0.2-0.7-0.5-1.1-0.8c0,0-0.1-0.1-0.1-0.1l-3.8,4.3
							C552.6,805.9,552.6,806.4,552.9,806.6z"/>
						<path class="stt14" d="M550.1,805.3c0.3,0.3,0.8,0.2,1-0.1l4.1-4.7c-0.5-0.3-1-0.5-1.4-0.7l-3.8,4.4
							C549.8,804.6,549.8,805,550.1,805.3z"/>
						<path class="stt14" d="M558,809.5c0.3,0.3,0.8,0.2,1-0.1l3-3.4c-0.3-0.3-0.7-0.7-1-1.1l-3.1,3.5
							C557.6,808.7,557.7,809.2,558,809.5z"/>
						<path class="stt14" d="M560.7,810.7c0.3,0.3,0.8,0.2,1-0.1l2.3-2.6c-0.3-0.3-0.7-0.6-1.1-1l-2.3,2.7
							C560.3,810,560.4,810.5,560.7,810.7z"/>
						<path class="stt14" d="M563.4,811.8c0.3,0.3,0.8,0.2,1-0.1l1.8-2.1c-0.4-0.2-0.8-0.5-1.2-0.8l-1.7,1.9
							C563.1,811,563.1,811.5,563.4,811.8z"/>
					</g>
				</g>
			</g>
			<g>
				<path class="stt26" d="M548.5,556.5l0.6,2.5l0.4,1.7l0.5,2.1l1.3,5.4l1,3.9l1.1,4.4l0.2,1l1.2,4.6l0.4,1.6v0l0.9,3.7l1,3.9
					l1.3,5.4l0.4,1.4c0.7,5.2,1.4,10.4,2.1,15.6c4-0.3,6.6-0.4,7.9-0.3c0.4,0,1.5,0.1,2.8-0.2c0.7-0.2,0.8-0.3,1.1-0.3
					c2.2-0.3,4,4.4,5.2,4.1c1-0.2,0.8-3.7,0.8-3.7c-0.3-6.8-1.9-16.1-3-21.9c-0.3-1.3-0.6-2.6-1-3.9l-1.3-5.4l-0.8-3.1v0l-0.4-1.5
					l-1.3-5.4l-1-3.9l-1.2-5l-0.1-0.4l-1-3.9l-1.3-5.4l-0.4-1.5c-0.2-0.9-0.6-1.7-1-2.4c-0.4-0.7-1-1.4-1.6-2
					c-1.3-1.2-2.9-2-4.6-2.2c-0.8-0.1-1.7-0.1-2.5,0c0,0,0,0,0,0c-0.3,0-0.6,0.1-0.9,0.2l-0.4,0.1c-0.5,0.1-1,0.3-1.5,0.5
					c-1.6,0.7-3,1.9-3.9,3.4c0,0,0,0,0,0c-0.7,1.2-1.1,2.5-1.3,3.9C548.1,554.6,548.2,555.6,548.5,556.5z"/>
			</g>
			<g>
				<polygon class="stt24" points="509.3,549.8 531.4,549.8 531.3,544 531.3,543.5 531.1,534.1 530.9,528.1 509.8,528.1 509.5,542.7 
					509.5,543.5 509.5,544 				"/>
			</g>
			<g>
				<path class="stt27" d="M488.7,659.4c5.7,2.3,14.4,5.1,25.3,6.2c4.3,0.4,8.5,0.8,13.5,0.1c4.8-0.6,15.3-2.9,26.5-13.2
					c-2.8-15.2-3.3-27.6-3.3-35.9c0.1-14.7,1.9-22.5,3.1-44.3c0.6-11.5,0.7-20.8,0.7-26.7c-7.7-0.4-15.4-0.8-23.2-1.2h-0.1
					c-1,0.4-2.3,0.9-3.8,1.3c-1.6,0.4-3.5,0.8-5.6,0.9c-3,0.2-5.7-0.1-7.9-0.6c-1.5-0.3-2.8-0.7-3.8-1.1h-0.1
					c-7.5,0.2-15,0.4-22.5,0.5c-0.3,6.1-0.5,15.1-0.1,26c0.7,17.8,2.5,27.3,3.5,38.6C492,621.8,492.3,638.5,488.7,659.4z"/>
			</g>
			<g>
				<path class="stt26" d="M529.7,545.7v120c0,0.3,0.1,0.6,0.1,1.1c1.2,6.8,8.3,10.8,10.1,11.7c9.6,4.9,23.7,1.2,24.9-4.1
					c1-4.3-6.5-10-7.4-16.9c0-0.3-0.3-2.3-0.6-4.6c-0.2-1.8-0.4-3.6-0.6-5.4c-0.2-1.3-0.3-2.6-0.5-3.9c-0.2-1.9-0.4-3.6-0.6-5.4
					c-0.2-1.3-0.3-2.6-0.4-3.9c-0.2-1.9-0.4-3.7-0.6-5.4c-0.1-1.4-0.3-2.7-0.4-3.9c0-0.2,0-0.3-0.1-0.5v0c-0.2-1.9-0.3-3.5-0.4-4.8
					c-0.1-1.5-0.2-2.6-0.2-3.2c0-0.5,0-0.9,0-1.4c0-1.9,0.1-3.6,0.2-5.4c0.1-1.3,0.1-2.6,0.2-3.9l0.2-2.6v0c0.1-0.9,0.1-1.8,0.2-2.7
					c0.1-1.3,0.2-2.5,0.4-3.9c0.2-1.7,0.3-3.5,0.5-5.4c0.1-1.2,0.2-2.5,0.4-3.9c0.1-1.2,0.2-2.4,0.3-3.7v0c0-0.5,0.1-1.1,0.1-1.6
					c0.1-1.5,0.2-3,0.3-4.6c0.1-1.7,0.2-3.4,0.3-5.2c0,0,0-0.1,0-0.1c0.1-1.3,0.1-2.6,0.2-3.9c0.1-1.9,0.2-3.6,0.2-5.4
					c0-1.3,0.1-2.6,0.1-3.9c0.1-1.9,0.1-3.7,0.1-5.4c0-1.4,0-2.7,0-3.9c0-1.5,0-2.9,0-4.2c-0.2,0-0.4,0-0.5,0c0,0,0,0,0,0
					c-0.9,0-1.9-0.1-2.8-0.1c-1.3-0.1-2.6-0.1-3.9-0.2c-1.8-0.1-3.6-0.2-5.4-0.3c-1.3-0.1-2.6-0.1-3.9-0.2c-1.8-0.1-3.6-0.2-5.4-0.3
					c-0.4,0-0.9,0-1.3-0.1h-0.1C532.2,544.8,531,545.3,529.7,545.7z"/>
			</g>
			<g>
				<path class="stt26" d="M475.4,677c8.9,5.9,19.6,6.1,26.7,0.8c5.4-4,7.1-9.9,7.6-12.2v-120c-1.1-0.3-2.1-0.6-3-1
					c-0.2-0.1-0.4-0.1-0.5-0.2c-0.1,0-0.2-0.1-0.2-0.1h-0.1c-1.7,0.1-3.3,0.2-5,0.3c-1.3,0.1-2.6,0.1-3.9,0.2
					c-1.8,0.1-3.6,0.2-5.4,0.3c-1.3,0.1-2.6,0.1-3.9,0.2c-0.5,0-1.1,0.1-1.6,0.1c-0.5,0-1,0.1-1.5,0.1c0,0,0,0,0,0
					c-0.1,0-0.3,0-0.4,0c-0.5,0-1,0.1-1.4,0.1c0,0-0.1,0-0.1,0v0c0,1.2,0,2.6,0,4.2c0,1.2,0,2.5,0,3.9c0,1.7,0.1,3.5,0.1,5.4
					c0,1.2,0.1,2.5,0.1,3.9c0.1,1.7,0.1,3.5,0.2,5.4c0.1,1.3,0.1,2.6,0.2,3.9c0,0.1,0,0.1,0,0.1c0.1,1.8,0.2,3.6,0.3,5.2
					c0.1,1.6,0.2,3.2,0.3,4.6c0.1,1.9,0.3,3.7,0.4,5.4c0.1,0.8,0.1,1.6,0.2,2.4v0c0.1,0.5,0.1,1,0.1,1.5c0.2,1.9,0.3,3.6,0.5,5.4
					c0.1,1.3,0.3,2.6,0.4,3.9c0.2,1.8,0.3,3.6,0.4,5.4c0.1,1.3,0.2,2.6,0.2,3.9c0.1,1.7,0.1,3.5,0.2,5.4c0,0.5,0,0.9,0,1.4
					c0,0.6-0.1,1.7-0.2,3.2c-0.1,1.4-0.3,3.2-0.5,5.4c-0.1,1.2-0.3,2.5-0.4,3.9c-0.2,1.7-0.4,3.5-0.6,5.4c-0.1,1.2-0.3,2.5-0.4,3.9
					c-0.2,1.7-0.4,3.5-0.6,5.4c-0.2,1.3-0.3,2.6-0.5,3.9c-0.2,1.7-0.4,3.5-0.6,5.4c0,0,0,0.1,0,0.1c-0.5,2.5-0.5,4.4-0.6,4.5
					c-0.4,3.4-11.9,11.5-10.9,16.1C471.4,674.5,472.2,675.9,475.4,677z"/>
			</g>
			<g>
				<path class="stt26" d="M461.2,606C461.2,606,461.2,606,461.2,606c0,0.3,0.1,0.6,0.1,0.9c0.1,0.6,0.3,1.1,0.6,1.7
					c0.2,0.4,0.4,0.9,0.7,1.3c0.2,0.3,0.4,0.5,0.6,0.8c1.4,1.7,3.2,2.5,4.3,2.8c0.6,0.2,1,0.2,1.1,0.3c0.9,0.2,1.9,0.2,2.8,0.1
					c2-0.2,3.8-1.2,5.2-2.6c0.4-0.4,0.7-0.8,1.1-1.3c0.3-0.4,0.5-0.9,0.8-1.4c0.2-0.6,0.4-1.1,0.6-1.8l0.2-0.8l1.1-5.4l0.4-2
					l0.4-1.9l1.1-5.4l0.3-1.6l0,0l0.5-2.4l1.1-5.4l0.9-4.7l0-0.2l1.1-5.3l0.8-3.9l1.1-5.4l0.2-1l0,0l0.6-2.9l0.5-2.5
					c0.2-1,0.2-2,0.1-2.9c-0.2-1.4-0.7-2.7-1.5-3.8c-0.1-0.2-0.2-0.3-0.3-0.4l0,0c-1-1.3-2.4-2.4-4-2.9l0,0
					c-0.4-0.1-0.8-0.2-1.2-0.3l-0.4-0.1c-0.5-0.1-1-0.2-1.6-0.2c0,0,0,0,0,0c-0.6,0-1.2,0.1-1.8,0.2c0,0-0.1,0-0.1,0l0,0
					c-0.1,0-0.2,0-0.3,0.1c-1.7,0.4-3.3,1.4-4.5,2.7c-0.5,0.5-0.9,1.1-1.2,1.7c-0.4,0.8-0.7,1.6-0.9,2.4l-0.3,1.5l-1.1,5.4l-0.8,3.9
					l-0.3,1.4l-0.8,4l-0.8,3.9l-1.1,5.4l-0.5,2.3l0,0l-0.5,2.3l-1.1,5.4l-0.8,3.9l-1.1,5.4l-0.8,3.9l-0.1,0.5l-0.3,1.3
					C461.3,603.6,461.1,604.6,461.2,606z"/>
			</g>
			<path class="stt28" d="M531.2,530"/>
			<path class="stt29" d="M474.5,574.2"/>
			<g>
				<g>
					<path class="stt30" d="M504.8,642.4c0.1,0.1,0.1,0.1,0.2,0.2c3.4,3.6,6.8,7.3,10.3,10.9c0.2,0.3,2.6,3.7,2,7.1
						c-0.1,0.7-0.4,2.4-1.8,3.7c-0.2,0.2-0.3,0.3-0.4,0.3c-1.1,0.8-3.1,1.9-5.6,1.9c-2.7,0-4.6-1.3-5.3-1.8
						c-2.6-4.9-5.2-9.7-7.9-14.6l-0.3-0.4c-1.9-2.3-1.6-5.7,0.6-7.7c0.1-0.1,0.3-0.2,0.4-0.3C499.3,639.7,502.8,640.1,504.8,642.4z"
						/>
				</g>
				<g>
					<path class="stt30" d="M539.1,648.7c0,0.1-0.1,0.1-0.2,0.2c-2.9,4.1-5.8,8.2-8.7,12.2c-0.3,0.3-3.2,3.3-6.5,3.4
						c-0.8,0-2.5,0.1-4-1c-0.2-0.1-0.3-0.2-0.4-0.3c-1-0.9-2.5-2.7-2.9-5.1c-0.5-2.7,0.4-4.8,0.7-5.5c4.2-3.5,8.5-7.1,12.7-10.6
						l0.3-0.4c1.9-2.3,5.3-2.7,7.7-1c0.1,0.1,0.3,0.2,0.4,0.3C540.6,642.8,540.9,646.2,539.1,648.7z"/>
				</g>
				<g>
					<path class="stt31" d="M494.1,651.5l2.1-2l2.8-2.6l3.9-3.7l2.8-2.7l1.1-1l-0.5-0.6l-0.2-0.3l-0.4-0.5l-3.4-4.2l-2.5-3.1
						l-3.4-4.2l-2.4-3l-3.4-4.2l-2.5-3.1l-0.8-1l-2.6-3.2l-2.9-3.6l-3.4-4.2l-0.9-1.1l-0.8-1c-0.3-0.3-0.6-0.7-0.9-0.9
						c-1.5-1.4-3.4-2.1-5.3-2.2c0,0-0.1,0-0.1,0c-2-0.1-4,0.5-5.7,1.8l-0.1,0.1l-0.3,0.2c-1,0.8-1.7,1.7-2.3,2.8
						c-0.7,1.4-1,3-0.9,4.6c0.1,0.9,0.3,1.8,0.7,2.7c0.3,0.7,0.7,1.3,1.1,1.9c0,0,0,0,0,0l0.5,0.7l2.5,3.1l3.4,4.2l2.9,3.6l3.4,4.2
						l2.5,3.1l1.4,1.7l2,2.5l2.4,3l3.4,4.2l2.4,3.1l1.9,2.3l0.2,0.3l1.3,1.6L494.1,651.5z"/>
				</g>
			</g>
			<g>
				<g>
					<path class="stt31" d="M575.9,620.5c-0.1,0.1-0.2,0.2-0.3,0.3l-1.9,1.7l-0.7,0.6l-4,3.6l-3.5,3.1l-4,3.6l-2.9,2.6l-2.1,1.9l0,0
						l-1.9,1.7l-2.9,2.6l-4,3.6l-2.9,2.6l-3.9,3.5l-0.1,0l-0.2,0.2l-0.6,0.5l-2.5-2.4l-0.2-0.2l-2.8-2.7l-3.9-3.7l-1.3-1.3l0,0
						l-1.4-1.4l-0.5-0.4l0.9-0.8l1.4-1.3l0.3-0.2l2.3-2.1l1.4-1.3l1.5-1.4l4-3.6l2.9-2.6l4-3.6l2.9-2.6l4-3.6l3.5-3.1l4-3.6l2.9-2.6
						l0.7-0.6c0.5-0.4,1-0.8,1.5-1.1l0,0c0.5-0.3,0.9-0.5,1.4-0.6l0,0c0.4-0.2,0.9-0.3,1.3-0.3c1.9-0.3,3.8,0,5.5,0.9
						c0.8,0.4,1.6,1,2.2,1.8l0.3,0.3c0.2,0.2,0.3,0.3,0.4,0.5c1.3,1.8,1.9,3.9,1.7,6l0,0c0,0.1,0,0.2,0,0.2
						C578.1,617.4,577.3,619.1,575.9,620.5z"/>
				</g>
			</g>
			<g>
				<path class="stt32" d="M493.8,491.6c-0.2-1.7-0.2-4.5,0.9-7.6c2.8-7.8,10.5-10.6,11.5-10.9c6.7-2.2,12.4,0.1,13.9,0.7
					c1.9-0.5,5.2-1.1,9.2-0.4c2.1,0.4,7.7,1.7,11.1,5.9c4.5,5.4,4.2,14.7-0.8,22.6c-5.9-7.4-11.8-14.8-17.6-22.2
					C512.6,483.7,503.2,487.6,493.8,491.6z"/>
				<path class="stt33" d="M497.8,500.6C497.8,500.6,497.8,500.6,497.8,500.6c0.3,2.7,1.1,5.3,1.9,7.1c0,1.2,0.1,2.3,0.2,3.5l0,0
					c0.1,1,0.2,1.9,0.4,2.8c0,0.2,0.1,0.4,0.1,0.5c0.8,4.1,2.2,7.8,4,10.9c0,0,0,0,0,0c0.9,1.5,1.8,2.8,2.9,4c0,0,0.1,0.1,0.1,0.1
					c2.1,2.4,4.6,4.2,7.4,5.1c0.1,0,0.3,0.1,0.4,0.1c0.8,0.3,1.6,0.4,2.4,0.6h0c0.7,0.1,1.3,0.1,2,0.1h0.2c0.1,0,0.2,0,0.4,0
					c1.3-0.1,2.6-0.3,3.8-0.7c0,0,0,0,0,0c0.3-0.1,0.6-0.2,0.9-0.3c0.1,0,0.2-0.1,0.3-0.1c0,0,0,0,0.1,0
					c6.6-2.8,11.8-10.3,13.6-19.8c0.1-0.3,0.1-0.7,0.2-1c0.3-2.1,0.5-4.3,0.5-6.5v-0.1c0-1,0-2-0.1-3c0.2-0.8,0.4-1.7,0.6-2.7
					c0.1-0.9,0.2-1.8,0.3-2.7c0-0.4,0.1-6.2-2.8-11.9c-0.1-0.2-0.2-0.4-0.3-0.6c-1.5-2.8-3.8-5.6-7.3-7.6c-1-0.6-2.1-1.1-3.1-1.5
					c-7.2-2.6-13.9-0.1-15.8,0.8c-0.2,0.1-0.3,0.2-0.4,0.2c-0.4,0.2-0.8,0.4-1.1,0.6c-3.5,2-6,4.7-7.8,7.5c-0.1,0.1-0.2,0.3-0.3,0.4
					c-0.9,1.4-1.5,2.9-2.1,4.2c0,0.1,0,0.1-0.1,0.2C498,494.2,497.6,497.6,497.8,500.6z"/>
				<g class="stt34">
					<g class="stt34">
						<polygon class="stt35" points="519.8,503 521.7,512.2 523,513.3 522,516.7 514.5,517 521.2,515.8 521.7,513.7 520.6,512.4 
													"/>
					</g>
				</g>
				<g>
					<path class="stt33" d="M542.8,506.8c-0.5,2.8-2,4.9-3.3,4.6c-1.3-0.3-1.9-2.7-1.4-5.5c0.5-2.8,2-4.9,3.3-4.6
						C542.7,501.5,543.3,504,542.8,506.8z"/>
				</g>
				<g>
					<path class="stt33" d="M496.3,506.8c0.5,2.8,2,4.9,3.3,4.6c1.3-0.3,1.9-2.7,1.4-5.5c-0.5-2.8-2-4.9-3.3-4.6
						C496.4,501.5,495.8,504,496.3,506.8z"/>
				</g>
				<path class="stt36" d="M502.3,477.8c7.6-5.2,16.4-2.6,17.7-2.2c7.8-2.2,15.9,0.5,19.8,6.5c3.3,4.9,3.3,11.3,1.5,15.9
					c-0.4,1.1-0.9,2-1.3,2.6c-0.8,1.3-1.5,2.5-2.3,3.8c-0.4-1.1-0.7-2.2-1.1-3.2c-1,0.4-4.2,1.5-8,0.3c-2.2-0.7-3.7-1.9-4.5-2.7
					c0.4-0.2,3.8-2.1,4.2-5.6c0.4-3.7-2.5-7.7-7.3-8.7c-0.5,3.9-1.9,5.7-3.1,6.5c-1.9,1.3-4,1.1-4.7,2.7c-0.4,1-0.2,2.3,0.5,2.7
					c1,0.7,2.6-0.7,2.9-0.3c0.5,0.6-2.9,6.5-8.4,6.6c-2.8,0.1-4.9-1.5-5.7-2.1c-0.2,1.3-0.4,2.6-0.6,3.9c-1.4-1.5-2.8-3.1-4.1-4.6
					c0,0,0,0,0,0c-1.2-1-2.7-2.6-3.4-4.9C492.2,488.7,497.2,481.3,502.3,477.8z"/>
			</g>
		</g>
		<g>
			<path class="stt37" d="M402,757.9c-1.7,3.9-3.4,7.7-5.1,11.6c-6.2-2.6-12.4-5.1-18.5-7.7c2.3-4.6,4.6-9.2,6.9-13.7
				C390.9,751.3,396.4,754.6,402,757.9z"/>
			<path class="stt38" d="M403.7,759.4c-7.4-2.2-14.7-4.5-22.1-6.7c8.4-22.8,16.8-45.6,25.2-68.4c9.6,1.1,19.3,2.2,28.9,3.2
				c-0.1,0.3-0.3,0.6-0.4,0.9C424.8,712.1,414.2,735.8,403.7,759.4z"/>
			<g>
				<path class="stt12" d="M420.3,795.8c-0.7,1-1.4,1.9-2,2.9c-1.7-0.6-4.3-1.4-7.3-2.7c-3.3-1.4-9.2-4.1-20.9-12
					c-4.4-3-10.2-7-16.8-12.2c0.7-2.4,1.4-4.7,2.1-7.1C390.3,775.1,405.3,785.4,420.3,795.8z"/>
				<path class="stt13" d="M374.1,769.5c35,25,44.6,28.4,46.5,26.3c1.5-1.7-1.4-7.7-3.6-11c-2.4-3.6-4.3-4.3-6.6-6.3
					c-0.4-0.3-0.8-0.7-1.2-1.2c-0.3-0.3-0.6-0.7-0.9-1.1c-0.3-0.4-0.6-0.8-1-1.3c-0.1-0.2-0.3-0.4-0.4-0.6c-0.1-0.2-0.3-0.4-0.4-0.7
					c-0.3-0.4-0.6-0.9-0.9-1.4c-0.2-0.4-0.5-0.8-0.8-1.2c-0.3-0.4-0.6-0.9-1-1.3c-0.3-0.4-0.7-0.8-1-1.2c-0.3-0.3-0.7-0.7-1.1-1.1
					c0,0-0.1-0.1-0.1-0.1c-0.4-0.4-0.9-0.8-1.3-1.1c-0.5-0.4-0.9-0.7-1.4-1c-0.4-0.3-0.7-0.5-1-0.7l0.2-0.8c-2.8-0.4-6.4-1.3-10.4-3
					c-3.2-1.4-5.8-3-7.7-4.4c-1.3,1.3-3.5,3.6-4.9,7.2C374.5,765.9,374.2,768,374.1,769.5z"/>
				<path class="stt13" d="M392.3,755c-0.8,0.6-1.1,1.5-1.5,3.2c-0.5,1.7-0.9,3.3-0.3,5.2c0.2,0.6,0.9,2.6,2.7,3.4
					c1.9,0.8,4.3,0.1,6.1-1.7c0.4-0.8,0.9-2,1.3-3.5c0.6-2.3,1-3.8,0.2-5.1c-0.8-1.2-2.3-1.5-4.1-1.8
					C395.3,754.3,393.6,754,392.3,755z"/>
				<path class="stt14" d="M399.2,774.5c0.3,0.4,0.8,0.4,1.1,0.1l4.5-3.5c-0.3-0.4-0.6-0.9-1-1.3l-4.6,3.5
					C399,773.6,398.9,774.1,399.2,774.5z"/>
				<path class="stt14" d="M396.5,772.4c0.3,0.4,0.8,0.4,1.1,0.2l5.2-4c-0.3-0.3-0.7-0.7-1.1-1.1c0,0-0.1-0.1-0.1-0.1l-5,3.9
					C396.3,771.6,396.2,772.1,396.5,772.4z"/>
				<path class="stt14" d="M393.8,770.4c0.3,0.4,0.8,0.4,1.1,0.1l5.5-4.2c-0.5-0.4-0.9-0.7-1.4-1l-5.1,4
					C393.6,769.5,393.5,770.1,393.8,770.4z"/>
				<path class="stt14" d="M401.4,776.6c0.3,0.4,0.8,0.4,1.1,0.1l4-3.1c-0.3-0.4-0.6-0.9-0.9-1.4l-4.1,3.2
					C401.2,775.7,401.1,776.2,401.4,776.6z"/>
				<path class="stt14" d="M404.1,778.5c0.3,0.4,0.8,0.4,1.1,0.2l3.1-2.4c-0.3-0.4-0.6-0.8-1-1.3l-3.1,2.4
					C403.9,777.7,403.8,778.2,404.1,778.5z"/>
				<path class="stt14" d="M406.9,780.3c0.3,0.4,0.8,0.4,1.1,0.2l2.4-1.9c-0.4-0.3-0.8-0.7-1.2-1.2l-2.2,1.7
					C406.7,779.4,406.6,779.9,406.9,780.3z"/>
			</g>
			<path class="stt37" d="M430.8,778.8c0.5,5.7,1.1,11.3,1.6,17c-5.8-2-11.6-4-17.3-6c-1.5-4.7-3.1-9.4-4.6-14.2
				C417.2,776.7,424,777.8,430.8,778.8z"/>
			<g>
				<path class="stt21" d="M453.6,824.5c-0.7,1-1.4,1.9-2,2.9c-1.7-0.6-4.3-1.4-7.3-2.7c-3.3-1.4-9.2-4.1-20.9-12
					c-4.4-3-10.2-7-16.8-12.2c0.7-2.4,1.4-4.7,2.1-7.1C423.6,803.8,438.6,814.2,453.6,824.5z"/>
				<path class="stt22" d="M407.4,798.2c35,25,44.6,28.4,46.5,26.3c1.5-1.7-1.4-7.7-3.6-11c-2.4-3.6-4.3-4.3-6.6-6.3
					c-0.4-0.3-0.8-0.7-1.2-1.2c-0.3-0.3-0.6-0.7-0.9-1.1c-0.3-0.4-0.6-0.8-1-1.3c-0.1-0.2-0.3-0.4-0.4-0.6c-0.1-0.2-0.3-0.4-0.4-0.7
					c-0.3-0.4-0.6-0.9-0.9-1.4c-0.2-0.4-0.5-0.8-0.8-1.2c-0.3-0.4-0.6-0.9-1-1.3c-0.3-0.4-0.7-0.8-1-1.2c-0.3-0.3-0.7-0.7-1.1-1.1
					c0,0-0.1-0.1-0.1-0.1c-0.4-0.4-0.9-0.8-1.3-1.1c-0.5-0.4-0.9-0.7-1.4-1c-0.4-0.3-0.7-0.5-1-0.7l0.2-0.8c-2.8-0.4-6.4-1.3-10.4-3
					c-3.2-1.4-5.8-3-7.7-4.4c-1.3,1.3-3.5,3.6-4.9,7.2C407.8,794.7,407.5,796.7,407.4,798.2z"/>
				<path class="stt22" d="M425.7,783.7c-0.8,0.6-1.1,1.5-1.5,3.2c-0.5,1.7-0.9,3.3-0.3,5.2c0.2,0.6,0.9,2.6,2.7,3.4
					c1.9,0.8,4.3,0.1,6.1-1.7c0.4-0.8,0.9-2,1.3-3.5c0.6-2.3,1-3.8,0.2-5.1c-0.8-1.2-2.3-1.5-4.1-1.8
					C428.6,783,426.9,782.7,425.7,783.7z"/>
				<path class="stt14" d="M432.5,803.2c0.3,0.4,0.8,0.4,1.1,0.2l4.5-3.5c-0.3-0.4-0.6-0.9-1-1.3l-4.6,3.5
					C432.3,802.3,432.2,802.8,432.5,803.2z"/>
				<path class="stt14" d="M429.8,801.2c0.3,0.4,0.8,0.4,1.1,0.1l5.2-4c-0.3-0.3-0.7-0.7-1.1-1.1c0,0-0.1-0.1-0.1-0.1l-5,3.9
					C429.6,800.3,429.6,800.8,429.8,801.2z"/>
				<path class="stt14" d="M427.1,799.1c0.3,0.4,0.8,0.4,1.1,0.2l5.5-4.2c-0.5-0.4-0.9-0.7-1.4-1l-5.1,4
					C426.9,798.3,426.9,798.8,427.1,799.1z"/>
				<path class="stt14" d="M434.8,805.3c0.3,0.4,0.8,0.4,1.1,0.1l4-3.1c-0.3-0.4-0.6-0.9-0.9-1.4l-4.1,3.2
					C434.5,804.4,434.5,804.9,434.8,805.3z"/>
				<path class="stt14" d="M437.5,807.3c0.3,0.4,0.8,0.4,1.1,0.2l3.1-2.4c-0.3-0.4-0.6-0.8-1-1.3l-3.1,2.4
					C437.2,806.4,437.2,806.9,437.5,807.3z"/>
				<path class="stt14" d="M440.2,809c0.3,0.4,0.8,0.4,1.1,0.2l2.4-1.9c-0.4-0.3-0.8-0.7-1.2-1.2l-2.2,1.7
					C440,808.1,439.9,808.6,440.2,809z"/>
			</g>
			<path class="stt38" d="M345.6,658.4c0.8,3.3,1.6,6.6,2.4,9.8c22.1,6.5,44.2,13,66.3,19.5c3.6,6.5,11.5,8.6,16.8,5.4
				c4.2-2.5,6.4-8,5-13.4c-2.2-6.5-5.8-9.6-7.7-11c-4.2-3.1-8.8-3.8-16.6-5c-3.9-0.6-7-0.9-8.2-0.9c-0.2,0-0.3,0-0.3,0
				C400.7,662.5,384,661.3,345.6,658.4z"/>
			<path class="stt39" d="M348.1,660.2c-12.5,1.8-25,3.6-37.5,5.3c-2.8,9.9,0.7,20.4,8.6,26.4c10.7,8.1,23.4,3.2,24.1,3
				c16.5,4.2,25.9,5.4,31.6,5.5c0.2,0,0.5,0,0.9,0c8.8,0.2,15.3,1,19.6,1.7c8.2-4.6,16.5-9.3,24.7-13.9c-0.6-1.6-1.9-4.7-4.9-7.6
				c-2.9-2.7-5.9-3.9-7.6-4.5C400.9,673.9,378.6,667.7,348.1,660.2z"/>
			<path class="stt39" d="M433.1,781.7c-7.4-0.2-14.8-0.3-22.3-0.5c-6.2-19.2-12.4-38.5-18.6-57.7c-1-3.9-1.9-9.9-0.3-16.7
				c0.4-1.6,0.9-3.1,1.4-4.5c8.8-4.7,17.5-9.4,26.3-14.1C424.1,719.4,428.6,750.5,433.1,781.7z"/>
			<path class="stt37" d="M380.7,549.8c2.2,4.2-2,11.7-2.8,15.6c-0.1,0.3-0.1,0.7-0.2,1c-0.2,1.1-0.5,2.2-0.7,3.1
				c-0.3,1.5-0.6,2.9-0.8,4.3c-0.1,0.7-0.2,1.3-0.4,2c-0.1,0.6-0.2,1.1-0.3,1.7c-0.7,4.2-1.2,8.1-1.6,11.9c-0.2,1.5-0.3,2.9-0.4,4.4
				c0,0.4-0.1,0.9-0.1,1.3c-0.1,1.1-0.1,2.2-0.2,3.2c-0.1,2-0.2,3.9-0.2,5.7c0,1.3,0,2.5,0,3.6c0,1.7,0,3.3,0.1,4.8
				c0,1.5,0.1,3,0.2,4.3l0,0c0.1,2.1,0.3,3.8,0.4,5.3c0.3,3.1,0.6,4.8,0.6,4.8l-51.3-1.7l0.1-0.2l0.6-2.2l0.1-0.4
				c0.8-2.4,1.4-4.8,1.9-7.1c0.3-1.4,0.6-2.8,0.8-4.3c0-0.1,0-0.2,0-0.4c0.1-0.7,0.2-1.5,0.3-2.2c0-0.2,0-0.4,0.1-0.5
				c0.1-0.5,0.1-0.9,0.1-0.9c0-0.2,0-0.5,0.1-0.7c0-0.2,0-0.3,0-0.5c0-0.4,0.1-0.8,0.1-1.2c0-0.4,0.1-0.7,0.1-1.1c0-0.2,0-0.5,0-0.7
				c0-0.2,0-0.4,0-0.7c0-0.5,0-1,0.1-1.5c0-1.2,0.1-2.4,0.1-3.5c0-1.1,0-2.2,0-3.2c0-0.4,0-0.9,0-1.3c0-0.4,0-0.7,0-1.1
				c0-1.1-0.1-2.2-0.2-3.2c0,0,0,0,0,0c-0.1-1.2-0.2-2.3-0.3-3.5c-0.1-0.7-0.1-1.3-0.2-2c-0.1-0.7-0.1-1.3-0.2-2
				c-0.1-1.1-0.2-2.2-0.3-3.2c-0.1-0.6-0.1-1.3-0.2-1.9c-0.1-1-0.2-1.9-0.3-2.9c0-0.1,0-0.1,0-0.2c-0.1-0.6-0.1-1.3-0.2-1.9
				c-0.1-0.6-0.1-1.2-0.2-1.8c-0.1-0.6-0.1-1.2-0.2-1.8c0,0,0,0,0-0.1c-0.2-1.5-0.4-3.1-0.6-4.7c-0.8-5.2-1.9-10.3-2.2-13
				c-0.1-0.6-0.1-1.1,0-1.4c0-0.4,0.2-0.7,0.4-0.6c-0.3-0.1,0-0.2,0.5-0.4c2-0.6,8.7-1.6,8.7-1.6l2-0.3l0.2,0l0.1,0l7.4-1.2l0.2,0
				c0.4-0.1,0.9-0.3,1.3-0.4c0.2-9.5,0.4-19,0.6-28.5c5.9,3.5,11.8,6.9,17.7,10.4c-0.4,6.2-0.8,12.5-1.2,18.7c0,0,0,0,0,0
				c0.1,0,0.1,0,0.2,0l0.1,0l0.3,0.1l2.2,0.5l7.4,1.7l0,0l0.2,0l8,1.9C379.7,548.3,380.3,549.1,380.7,549.8z"/>
			<path class="stt29" d="M323.7,559.3"/>
			<path class="stt40" d="M421.6,618.5c-11-23.1-22-46.2-33-69.3c-2.2,1.8-4.4,3.6-6.6,5.4c-5.1,4.2-9.9,8.3-14.7,12.4
				c0.8,1.2,1.6,2.5,2.4,3.7c11.3,17.4,21.6,34.9,31,52.3c2.4,6,9,8.9,14.2,6.8C419.3,628.3,422.1,623.6,421.6,618.5z"/>
			<path class="stt41" d="M343.4,525.9c1.4,1.5,3.5,3.6,6.7,5.4c3.5,2,6.7,2.8,8.8,3.2c-2.3,3.5-4.6,6.9-7,10.4
				c-0.2,0.2-3.1,3.5-7.5,2.9c-3.9-0.5-5.8-3.7-6.1-4.1c1.6-0.3,3.1-0.6,4.7-0.9C343.1,537.1,343.2,531.5,343.4,525.9z"/>
			<path class="stt42" d="M261.1,608.9c-0.9-1-1.5-2-2-3c0.1-0.6,0.2-1.3,0.5-1.9c0.7-1.5,1.5-2.9,2.2-4.4
				c17.6-17.1,35.2-34.2,52.7-51.3c1.9,0.5,10.9,3,15.5,11.7c1.8,3.5,2.4,6.8,2.5,9.1c-15.4,11.5-30.7,23-46.1,34.5
				c-4.3,3.2-8.6,6.5-12.9,9.7C272.4,613.4,265.5,613.8,261.1,608.9z"/>
			<g>
				<path class="stt43" d="M382.6,599.2c-0.6,8.4,0,16.8,1.7,25c0.1,0.7-0.9,0.9-1,0.3c-1.8-8.3-2.4-16.8-1.8-25.3
					C381.6,598.5,382.6,598.5,382.6,599.2L382.6,599.2z"/>
			</g>
			<g>
				<path class="stt37" d="M377,511.2c0.1,7.2-2.1,20.8-11.1,24.1c-4.5,1.7-8.9,0.1-10.6-0.6c-9.9-3.7-16.9-15.8-16-27.5
					c1.1-12.6,11.6-25.9,21.6-24.8C371.5,483.6,376.9,500.3,377,511.2z"/>
				<path class="stt44" d="M354,490.7c5.8,0.6,10.1,1.1,12.9,1.4c2.6,0.3,4.3,0.5,5.3-0.5c1.5-1.6,0-5.4-1.4-7.5
					c-3-4.7-8.8-5.8-11.8-6.4c-3.1-0.6-17-3.2-27.4,6.5c-9.3,8.6-13.1,24.4-5.6,35.1c5.3,7.6,14.2,9.4,16.9,9.8
					c0.5-1.9,0.9-4.1,1.2-6.6c0.4-4.2,0.2-7.9-0.3-10.8c1.2-0.2,2.5-0.4,3.7-0.6c0-2.2,0-4.7-0.3-7.5c-0.2-1.9-0.5-3.7-0.8-5.3
					c1-0.3,3.9-1.3,6-4.1C353.4,492.9,353.8,491.6,354,490.7z"/>
				<path class="stt37" d="M346.6,507.7c1.6,2.4,1.6,5.3-0.1,6.4c-1.7,1.1-4.4,0.1-6-2.4c-1.6-2.4-1.6-5.3,0.1-6.4
					C342.3,504.2,345,505.3,346.6,507.7z"/>
				<g>
					<path class="stt45" d="M368,509.3c0.7,1.5,1.4,3,2.1,4.5c0.1-0.3,0.2-0.6,0.3-0.9c-0.7,0.3-1.3,0.6-2,0.9
						c-0.8,0.4-0.2,1.6,0.6,1.2c0.7-0.3,1.3-0.6,2-0.9c0.3-0.2,0.5-0.6,0.3-0.9c-0.7-1.5-1.4-3-2.1-4.5
						C368.9,508,367.7,508.5,368,509.3L368,509.3z"/>
				</g>
				<g>
					<path class="stt45" d="M366.6,521.9c1.1,0.1,2.2,0,3.3-0.2c0.9-0.2,0.7-1.5-0.2-1.4c-1,0.2-1.9,0.2-2.9,0.2
						C365.9,520.5,365.7,521.9,366.6,521.9L366.6,521.9z"/>
				</g>
				<g>
					<path class="stt46" d="M342.3,508.6c0.3,0.2,0.6,0.4,0.8,0.7c0.1,0.1,0.3,0.2,0.4,0.1c0.1-0.1,0.2-0.3,0.1-0.4
						c-0.3-0.4-0.6-0.7-1.1-1C342.2,507.9,341.9,508.4,342.3,508.6L342.3,508.6z"/>
				</g>
				<g>
					<path class="stt41" d="M341.8,509c0.4,0.6,0.9,1.1,1.5,1.5c0.3,0.2,0.7-0.3,0.3-0.5c-0.5-0.3-0.9-0.7-1.2-1.2
						C342.1,508.4,341.6,508.7,341.8,509L341.8,509z"/>
				</g>
			</g>
			<path class="stt40" d="M388.8,549.2c-7.3-1.5-14.5-2.9-21.8-4.4c-1.9,1.2-8.6,5.2-17.4,3.9c-5.7-0.8-9.7-3.5-11.7-5
				c-3.9,0.3-8.3,0.9-13.1,1.9c-3.7,0.8-7.2,1.7-10.3,2.7c-1.9,40.8-3.8,81.6-5.7,122.5c9.1-3.3,20.6-6.6,34-8.5
				c17.2-2.5,32.1-2,43.4-0.8c-0.2-7.7-0.4-15.5-0.4-23.3C385.6,607.2,386.7,577.5,388.8,549.2z"/>
			<g>
				<path class="stt43" d="M415.5,605.7c-0.3,0.9-0.7,1.7-1,2.6c-0.3,0.7,0.8,1,1.1,0.3c0.3-0.9,0.7-1.7,1-2.6
					C416.8,605.3,415.7,605,415.5,605.7L415.5,605.7z"/>
			</g>
			<g>
				<g>
					<path class="stt37" d="M409.1,613L409.1,613c0.6-0.8,1.5-1.9,2.7-3.2c0.4-0.5,0.8-0.9,1.3-1.5c0,0,0.1-0.1,0.1-0.1
						c4-4.4,9.9-10.6,15.6-16.6c6-6.2,12-12.3,15.6-15.9c0,0,0.1-0.1,0.1-0.1c0.1-0.1,0.1-0.1,0.2-0.2c0.1-0.1,0.1-0.1,0.2-0.2
						c0.5-0.5,0.9-0.9,1.3-1.3c0.3-2.1,0.9-3.5,1.5-4.5c0.1-0.1,0.8-2,1.7-3.7c1.5-2.7,4.7-8.8,8.4-8.6c0.6,0,2.3,0.4,4.1,3.2
						c0.3,1.3,0.4,2.8,0.3,4.7c-0.6,5.4-4.1,9-5.4,10.1c0,0-4.4,3.4-5.6,4.4c0,0-0.1,0.1-0.1,0.1c-0.2,0.1-0.3,0.3-0.5,0.4
						c-0.5,0.5-1.1,0.9-1.5,1.3c-0.1,0.1-0.1,0.1-0.2,0.2c-0.5,0.5-1,0.9-1.4,1.3c-7.5,13.8-18.7,31.7-20.5,34.1
						c-0.1,0.1-0.2,0.2-0.2,0.3c-0.2,0.2-0.4,0.4-0.5,0.5c-0.2,0.2-0.4,0.4-0.4,0.4c-0.1,0.1-0.3,0.3-0.4,0.4
						c-0.4,0.4-0.8,0.8-1.2,1.2c-0.2,0.2-0.4,0.4-0.6,0.6l0,0c0,0,0,0,0,0l-0.3,0.2c-0.8,0.5-1.8,1-2.8,1.3
						c-0.3,0.1-0.5,0.2-0.8,0.2c-1,0-2.1-0.2-3.3-0.5c-1.4-0.5-2.8-1.2-4.2-2.4c-1-0.8-1.9-1.8-2.7-3.1c0,0,0,0,0,0
						c-0.1-0.1-0.2-0.2-0.2-0.4c-0.2-0.3-0.4-0.6-0.5-0.9c-0.1-0.3-0.2-0.6-0.2-0.9C408.6,613.7,408.9,613.3,409.1,613z"/>
				</g>
				<path class="stt40" d="M411.1,629c-0.2-0.1-0.4-0.2-0.7-0.3c-1.7-0.9-3.9-2.7-4.8-5.7c-1.2-4.2,1.1-7.6,1.4-8
					c3.7-4.1,7.5-8.3,11.2-12.6c8.4-9.5,16.6-19,24.6-28.4c2.6,2.4,5.3,4.9,7.9,7.3c-9.3,14.2-18.5,28.3-27.8,42.5
					C420.8,628.7,415.3,630.7,411.1,629z"/>
			</g>
			<g>
				<g>
					<path class="stt37" d="M272.2,597.7L272.2,597.7c1,0.2,2.4,0.4,4.1,0.8c0.6,0.1,1.2,0.3,1.9,0.5c0.1,0,0.1,0,0.2,0
						c5.8,1.4,14,3.6,22,5.8c8.4,2.3,16.5,4.7,21.4,6.1c0.1,0,0.1,0,0.1,0c0.1,0,0.2,0.1,0.2,0.1c0.1,0,0.2,0,0.2,0.1
						c0.6,0.2,1.2,0.4,1.7,0.5c2-0.7,3.6-0.9,4.6-0.8c0.7,0,2.2-0.2,4-0.3c2.6,0,4.1-0.1,5.5,0.3c2.6,0.7,6.6,2.8,6.6,5.5
						c0,2.8-4.3,4.6-5.4,5.1c-4.7,2-9.4,0.8-11.5,0.1c0,0-5.1-2.3-6.5-2.8c-0.1,0-0.1,0-0.2-0.1c-0.2-0.1-0.4-0.1-0.6-0.2
						c-0.7-0.3-1.3-0.5-1.9-0.7c-0.1,0-0.2-0.1-0.2-0.1c-0.6-0.2-1.2-0.4-1.8-0.6c-15.7,0-36.7-1.3-39.8-1.7c-0.2,0-0.3,0-0.3-0.1
						c-0.3-0.1-0.5-0.1-0.7-0.2c-0.3-0.1-0.5-0.2-0.5-0.2c-0.2-0.1-0.4-0.1-0.6-0.2c-0.5-0.2-1.1-0.3-1.6-0.5
						c-0.3-0.1-0.5-0.2-0.8-0.3l0,0c0,0,0,0,0,0l-0.3-0.2c-0.9-0.5-1.7-1.1-2.5-1.8c-0.2-0.2-0.4-0.4-0.6-0.6
						c-0.5-0.9-0.9-1.9-1.1-3.1c-0.3-1.4-0.3-3.1,0.1-4.8c0.3-1.2,0.7-2.5,1.4-3.8c0,0,0,0,0,0c0.1-0.1,0.1-0.3,0.2-0.4
						c0.2-0.3,0.3-0.6,0.5-0.9C270.8,598,271.5,597.9,272.2,597.7z"/>
				</g>
				<path class="stt42" d="M259,607.1c0-0.3,0-0.5,0-0.8c0-0.6,0.1-1.3,0.2-1.9c0.6-2.6,2.4-4.9,4.9-6.3c1.5-0.8,3.3-1.3,5.3-1.2
					c5.4,1.3,10.9,2.6,16.4,3.9c11.7,2.7,23.3,5.3,34.7,7.7c-0.5,4.8-1.1,9.5-1.6,14.3c-16.5-2.6-33-5.1-49.6-7.7
					C264,615.4,259.5,611.5,259,607.1z"/>
			</g>
		</g>
		<g>
			<g>
				<g>
					<path class="stt47" d="M237.5,481c1.6,2.4,0.8,4-1.6,18.3c-0.8,4.5-1.5,10.1-1.9,17.2c-0.8,13.7,0.4,18.9-0.8,24.9
						c-0.1,0.6-0.6,2.5-1.5,5.2c-6.5,20.1-10.5,34.1-22.1,40.3c-0.6,0.3-1.8,0.9-3.3,1.5c-17.9,6.5-44.3-4.9-51.3-23.9
						c-4.4-12.1-0.2-25.2,1.3-30c0.7-2.1,2.8-8.3,6.4-15.6c1-2.1,2-3.9,2.8-5.6c6.5,2.4,13.7,0.8,18.5-3.9
						c6.7-6.6,4.8-15.8,4.6-16.4c3.3-3.6,9.1-9,17.8-12.5C216.8,476.4,233.1,474.3,237.5,481z"/>
				</g>
			</g>
			<g>
				<g>
					<path class="stt48" d="M220.3,664.7c-11.9,4.6-26.2-5.4-31.9-9.9c0.3-1.7,0.6-3.4,1-5.1c2.9-3.9,19.1-26.9,12.7-55.8
						c-3.3-14.6-11-24.6-15.6-29.7c0.1-1,0.3-2.3,0.6-3.8c0-0.2,0.1-0.4,0.1-0.6c0.1-0.3,0.1-0.6,0.2-0.9c0.1-0.3,0.1-0.5,0.2-0.8
						c0-0.1,0.1-0.2,0.1-0.3c0-0.1,0.1-0.2,0.1-0.3c0-0.1,0.1-0.2,0.1-0.3c0-0.1,0-0.1,0.1-0.2c0-0.1,0-0.1,0.1-0.2
						c0.1-0.2,0.2-0.5,0.3-0.8c0.1-0.3,0.2-0.6,0.4-0.9c0-0.1,0.1-0.2,0.1-0.3c0.2-0.4,0.3-0.7,0.5-1.1c0-0.1,0.1-0.1,0.1-0.2
						c0.1-0.1,0.1-0.3,0.2-0.4l0,0c0.4-0.7,0.7-1.3,1.1-2c0.4-0.6,0.8-1.2,1.2-1.7c0.9-1.3,1.8-2.3,2.7-3.2c0.2-0.2,0.5-0.5,0.7-0.7
						c0.1-0.1,0.2-0.2,0.3-0.3l0,0c0.6-0.3,1.3-0.6,1.9-0.9c0.6-0.3,1.3-0.6,1.9-0.9c1.3-0.6,2.6-1.3,3.9-1.9
						c0.1,0.1,0.1,0.2,0.2,0.3c0.1,0.1,0.2,0.2,0.2,0.3l0,0c0.2,0.2,0.3,0.4,0.5,0.5c0.2,0.3,0.5,0.5,0.7,0.7
						c0.1,0.1,0.3,0.3,0.4,0.4c0.1,0.1,0.2,0.2,0.4,0.3c0.2,0.2,0.4,0.3,0.6,0.5c0,0,0,0,0,0c0.2,0.2,0.4,0.3,0.6,0.5c0,0,0,0,0,0
						c0,0,0,0,0,0c0,0,0,0,0.1,0c0,0,0,0,0,0c0,0,0,0,0.1,0c0.1,0.1,0.3,0.2,0.5,0.3c0.1,0,0.1,0.1,0.1,0.1c0,0,0,0,0,0
						c0.1,0,0.1,0.1,0.2,0.1c0,0,0.1,0,0.1,0c0,0,0,0,0.1,0c0.4,0.2,0.7,0.4,1,0.6c0.1,0.1,0.3,0.1,0.4,0.2c0.4,0.2,0.8,0.4,1.2,0.5
						c0.2,0.1,0.4,0.2,0.6,0.2c0,0,0,0,0,0l0,0c0,0,0,0,0,0c0,0,0.1,0,0.1,0c0.3,0.1,0.5,0.2,0.8,0.2c1.7,0.4,3.2,0.6,4.5,0.7
						c5.1,0.3,7.1-1.6,7.1-1.6c0.4-0.4,0.8-1,1.2-1.7c1-1.9,1-3.7,1-4.6c0.3,0.1,0.6,0.3,0.9,0.4c0.5,0.3,1.1,0.5,1.6,0.7
						c2.3,2.1,5.2,4.9,8.2,8.5c2.6,3.2,5.9,7.2,8.6,11.8c0,0,0,0,0,0.1c0,0.1,0.1,0.2,0.1,0.3c0,0.1,0.1,0.1,0.1,0.2
						c0,0.1,0.1,0.1,0.1,0.2c0,0.1,0.1,0.3,0.1,0.4c0,0.1,0,0.1,0.1,0.2c0,0,0,0,0,0c0,0.1,0,0.1,0.1,0.2c0,0.1,0.1,0.3,0.1,0.4
						c0,0.1,0.1,0.3,0.1,0.4c0,0,0,0.1,0,0.1c0,0.1,0,0.1,0,0.2c0,0.1,0.1,0.3,0.1,0.4c0,0.1,0.1,0.3,0.1,0.4c0,0,0,0.1,0,0.1
						c0,0.1,0.1,0.2,0.1,0.3c0,0,0,0,0,0.1c0.1,0.2,0.1,0.4,0.1,0.6c0,0.2,0.1,0.3,0.1,0.5c0.7,3.9,0.3,7.8-0.4,13.9
						c-0.3,2.3-0.6,4.8-0.9,7.8c-0.1,1-0.4,4.3-0.8,9l0,0c-0.4,4.7-1.2,11.6-2.8,19.8C237.6,639,233.5,659.6,220.3,664.7z"/>
				</g>
			</g>
			<g>
				<path class="stt47" d="M230.9,473.5c4.1,1.4,7.7,4.3,8.9,8.6c0.6,2.1,0.5,4.4-0.3,6.5c-0.6,1.4-1.3,2.6-0.7,4.1
					c0.5,1.3,1.6,2.3,2.3,3.5c2.3,4,3,9.7,2.3,14.2c-0.4,2.5-1.7,4.6-3,6.7c-1.5,2.4-2.6,4.9-3.3,7.7c-0.8,3.1-0.9,6.2-0.9,9.5
					c0,2.7-0.2,5.3-1.5,7.7c-0.4,0.8-1.5,0.1-1.2-0.7c1.5-3,1.2-6.3,1.3-9.5c0-2.9,0.4-5.8,1.3-8.6c0.9-2.8,2.2-5.3,3.7-7.8
					c0.9-1.5,1.8-3,2.1-4.8c0.3-1.7,0.3-3.4,0.2-5.1c-0.2-3.2-0.8-6.5-2.5-9.2c-1.4-2.2-3.1-3.8-2.1-6.5c0.6-1.5,1.3-2.8,1.3-4.4
					c0.1-1.7-0.3-3.4-1.1-4.9c-1.5-2.8-4.3-4.7-7.2-5.7C229.7,474.5,230.1,473.2,230.9,473.5L230.9,473.5z"/>
			</g>
			<g>
				<g>
					<path class="stt49" d="M278.6,616.9c-0.1,0.1-0.1,0.2-0.2,0.3c0,0,0,0,0,0c-0.4,0.7-1.2,1.6-2.4,2.5c-0.1,0-0.1,0.1-0.2,0.1
						c-0.7,0.5-1.6,1-2.6,1.4c-3.8,1.3-8.4,0.2-10.8-2.6c-0.3-0.3-0.5-0.6-0.6-0.8c0,0,0,0-0.1-0.1c-0.1-0.1-0.1-0.2-0.2-0.3
						c-0.3-0.4-0.6-0.8-0.8-1.2c-1.2-1.7-2.4-3.4-3.6-5.1c-0.6-0.9-1.3-1.8-1.9-2.7c-2.7-3.9-5.2-7.7-7.6-11.3
						c-0.4-0.6-0.8-1.2-1.2-1.8c-0.7-1.1-1.3-2.1-2-3.1l0,0c-0.9-1.4-1.8-2.9-2.6-4.3c-0.3-0.5-0.6-0.9-0.8-1.4
						c-0.3-0.6-0.7-1.1-1-1.7c-0.3-0.6-0.6-1.1-1-1.7c-0.2-0.3-0.3-0.5-0.5-0.8c-0.3-0.5-0.6-1.1-0.9-1.6c-0.1-0.3-0.3-0.5-0.4-0.8
						c-0.6-1.1-1.2-2.3-1.8-3.4c-1-1.9-1.9-3.6-2.7-5.4c-0.6-1.3-1.2-2.7-1.7-3.9c-0.4-1-0.8-1.9-1.1-2.8c-0.2-0.6-0.5-1.2-0.7-1.8
						c-0.2-0.6-0.4-1.2-0.6-1.7c-0.1-0.3-0.2-0.6-0.3-0.9c-0.3-0.8-0.5-1.7-0.7-2.5c-1.1-4.5-1.1-8.3-0.1-11.2
						c0.3-0.9,0.7-1.7,1.3-2.4c0-0.1,0.1-0.1,0.1-0.2c0.1-0.2,0.3-0.3,0.4-0.5c0.3-0.3,0.7-0.6,1-0.9c0.4-0.3,0.7-0.5,1.1-0.6
						c0.1,0,0.1,0,0.2-0.1c0.1,0,0.1,0,0.2-0.1c0.1,0,0.3-0.1,0.4-0.1c0.4-0.1,0.8-0.2,1.2-0.2l0,0c0.2,0,0.4,0,0.6,0
						c0.7,0,1.5,0.1,2.2,0.2c0.2,0.1,0.5,0.1,0.8,0.2c0,0,0,0,0.1,0c0,0,0.1,0,0.1,0c0.1,0,0.2,0.1,0.3,0.1c0.2,0.1,0.4,0.1,0.5,0.2
						c0.3,0.1,0.5,0.2,0.8,0.3c0.7,0.3,1.4,0.7,2,1.1c0.3,0.2,0.7,0.5,1,0.7c0.7,0.5,1.4,1.2,2.1,1.8c0.3,0.3,0.6,0.7,0.9,1
						c0.4,0.4,0.7,0.9,1,1.3c0.7,0.9,1.3,1.9,1.8,3l0,0l11.2,23.1l0.8,1.7l1,2l0.4,0.9l1,2l2.9,5.9l0,0l3.6,7.5l2.6,5.4l3.1,6.3
						l2.2,4.4c0,0,0,0,0,0l0.1,0.1l0,0.1C277.5,613.1,278.1,615,278.6,616.9z"/>
				</g>
			</g>
			<path class="stt49" d="M259.6,610.5c0.2-0.2,0.5-0.4,0.8-0.6l0,0c0.6-0.5,1.3-1,2.3-1.6c0.4-0.3,0.8-0.6,1.3-0.9
				c0,0,0.1,0,0.1-0.1c0,0,0,0,0,0c0.2-0.1,0.5-0.3,0.7-0.4c0.3-0.2,0.6-0.4,0.9-0.6c0,0,0.1-0.1,0.2-0.1c1-0.7,2.1-1.4,3.3-2.1
				c4.8-3.1,10.8-6.7,16.7-10.3c3.6-2.2,7.2-4.3,10.4-6.2c0,0,0,0,0,0c0,0,0,0,0.1,0c0.3-0.2,0.7-0.4,1-0.6c0,0,0.1,0,0.1-0.1
				c0,0,0,0,0,0c3-1.8,5.7-3.4,7.8-4.6c0.5-0.7,1.2-1.4,2-2.3c0,0,0,0,0,0c0.9-1,2-2,3.3-3c0,0,0.1-0.1,0.1-0.1
				c1-0.8,11.5-9.1,15.8-6c0.9,0.7,1.3,1.7,1.4,1.9c1.3,4.3-5.9,9.8-9.5,12c-1.7,1.1-4.5,2.5-8.4,3.4c-0.5,0.2-0.9,0.5-1.3,0.7
				c-0.1,0-0.2,0.1-0.2,0.1c-0.1,0-0.1,0.1-0.2,0.1c-0.5,0.3-1,0.6-1.5,0.8c-6.6,7.6-14.5,15.6-23.8,23.4c-4.1,3.5-6.9,5.6-9.4,7.5
				c-0.9,0.3-2.5,0.8-4.4,0.7c-0.7-0.1-1.9-0.1-3.3-0.9c-0.2-0.1-0.3-0.2-0.4-0.3c-1.3-0.8-2.5-2-3.6-3.5c-0.1-0.2-0.2-0.3-0.3-0.5
				c0,0,0,0,0,0c-0.6-0.9-1.1-2-1.5-3.2c0,0,0,0,0,0c-0.1-0.1-0.1-0.3-0.2-0.4c-0.1-0.3-0.2-0.7-0.3-1c0-0.3,0-0.5,0-0.8
				c0,0,0-0.1,0-0.1c0-0.1,0-0.1,0-0.2C259.5,610.6,259.6,610.6,259.6,610.5z"/>
			<g>
				<g>
					<path class="stt49" d="M234.9,554.7c1.1-1.3-3.9-7.7-4.4-8.3c-0.7-0.9-1.3-1.6-2-2.3c-1-1.9-2-4.4-2.4-7.5
						c-1.3-8.7,2.9-15.5,4.3-17.7c-0.5,0.3-7.4,4.2-14.3,0.6c-4.7-2.5-6.4-6.9-6.9-8c-0.3,1.3-0.7,3.4-1,5.9
						c-0.6,4.6-0.4,7.9-0.4,9.7c0,3.5-0.5,8.5-3.2,15.1c-0.2,2.2-0.4,4.4-0.6,6.7c1.3-0.9,3.4-2,5.4-1.4c4.4,1.2,4.5,9,7.7,9.4
						c2.7,0.3,3.6-5.2,7.9-6C229.7,549.8,234.1,555.7,234.9,554.7z"/>
				</g>
			</g>
			<g>
				<g>
					<path class="stt50" d="M195,628c-1.2,5.1-3.4,12.4-7.6,20.6c1.2,0.7,2.8,1.5,4.7,2.2c0,0,3.1,1.2,6.5,2c4.3,1,20.1,3.7,41.7,6.9
						c3-25.7,3.8-37.9,3.8-44.1c0,0-0.3-7.8,1.8-18.2c0.6-3.2,1.1-4.8,1.8-6.8c1.4-4,2.8-5.4,3.1-9.9c0.5-7.1-2-13.6-5.3-19.2
						c-2.7-4.6-6-8.6-8.6-11.8c-3-3.6-5.8-6.5-8.2-8.5c-0.8-0.7-1.5-1.3-2.1-1.8c0.2,0.4,0.3,0.7,0.5,1.1c3,6.5,3.8,10.4,2.2,11.8
						c-1.6,1.4-5.8,0-12.5-4.3c-3.7-2.4-8.2-5.6-13.4-9.7l0,0c-1.3,0.7-2.7,1.3-4,2c-0.7,0.3-1.3,0.7-2,1c-0.7,0.3-1.3,0.7-2,1
						c-0.1,0.1-0.2,0.2-0.3,0.3c-0.2,0.2-0.5,0.5-0.7,0.7c-0.9,0.9-1.8,2-2.8,3.3c-0.4,0.6-0.8,1.2-1.2,1.8c-0.4,0.6-0.8,1.3-1.2,2
						c-0.1,0.2-0.2,0.4-0.3,0.6c-0.2,0.4-0.4,0.8-0.5,1.2c-0.1,0.1-0.1,0.2-0.2,0.4c-0.1,0.3-0.3,0.6-0.4,0.9
						c-0.1,0.3-0.3,0.7-0.4,1c0,0.1,0,0.1-0.1,0.2c0,0.1-0.1,0.2-0.1,0.4c0,0.1-0.1,0.2-0.1,0.4c0,0.1-0.1,0.2-0.1,0.3
						c-0.1,0.3-0.2,0.5-0.2,0.8c-0.1,0.3-0.2,0.6-0.2,0.9c-0.1,0.2-0.1,0.4-0.2,0.6c-0.3,1.5-0.5,2.9-0.6,4c0.9,1.8,2,4,3.1,6.6
						c1.4,3.3,2.8,7.1,4,11.4C195.1,587.4,200.2,605.7,195,628z"/>
				</g>
			</g>
			<g>
				<g>
					<path class="stt51" d="M238.8,499c1.2,2.8,2.3,4,3.1,4.7c0.2,0.1,0.7,0.6,1.4,1.2c0.7,0.7,1.3,1.3,1.7,1.7
						c-0.6,0.6-1.4,1.3-2.3,2c-1.2,0.9-2.4,1.5-3.4,2C239,506.7,238.9,502.9,238.8,499z"/>
				</g>
			</g>
			<g>
				<g>
					<path class="stt51" d="M198.4,507.5c1.5,3.9,5.1,6.7,8.1,9.1c5.3,4.3,10.7,6.3,14,7.3c2.2,0.5,5.4,1,9.1,0.6
						c2.6-0.3,4.8-0.8,6.5-1.4c1.7-3,6.2-12.1,4.1-23.2c-2-10.4-10-23.8-20.8-23.9C205.6,475.8,194,496.5,198.4,507.5z"/>
				</g>
			</g>
			<path class="stt52" d="M187.4,648.6c2.5,1.3,6.3,3.2,11.2,4.3c9.3,2.1,14.5-0.1,22.8,0.6c0.4-0.3,0.7-0.5,1-0.8
				c-15.5-27.2-21.5-50.7-15.7-56.2c0.5-0.4,3.3-2.9,7.5-5.3c4.2-2.4,7.9-3.8,10.6-4.6c-1,0.3-11.4,2.7-19.5-4.6
				c-7-6.4-6.8-15.1-6.8-16.4c-3.3,1-6.5,2-9.8,3c1.4,3.3,2.8,7.1,4,11.4c2.1,7.4,7.3,25.8,2.1,48
				C193.9,633.1,191.7,640.4,187.4,648.6z"/>
			<path class="stt53" d="M244.7,655.6c-6.7,1.6-13.5,3.2-20.2,4.7c23.5,8.9,47,17.8,70.4,26.7c3.4,7.4,11.8,10.2,17.9,7.2
				c4.7-2.4,7.6-8.2,6.6-14.2c-1.9-7.2-5.5-10.9-7.4-12.6c-4.3-3.7-9.3-4.8-17.7-6.8c-4.7-1.1-8.3-1.6-9.2-1.7
				C270.8,657,252.2,656,244.7,655.6z"/>
			<path class="stt54" d="M275.8,762.2c-2.1,4-4.3,8.1-6.4,12.1c-6.5-3.3-13-6.6-19.5-9.9c2.9-4.8,5.7-9.6,8.6-14.4
				C264.3,754.2,270.1,758.2,275.8,762.2z"/>
			<path class="stt53" d="M277.6,764c-7.8-3-15.6-6-23.5-9.1c11-24.1,22-48.2,33-72.3c10.4,2,20.8,3.9,31.2,5.9
				c-0.2,0.3-0.3,0.6-0.5,0.9C304.3,714.4,290.9,739.2,277.6,764z"/>
			<g>
				<path class="stt55" d="M292.6,804.9c-0.8,1-1.6,2-2.5,3c-1.8-0.8-4.5-1.9-7.7-3.6c-3.4-1.8-9.6-5.2-21.8-14.7
					c-4.6-3.6-10.5-8.5-17.2-14.6c1-2.5,1.9-5,2.9-7.5C261.7,780,277.1,792.4,292.6,804.9z"/>
				<path class="stt56" d="M244.5,772.6c36,30.1,46.1,34.5,48.4,32.4c1.8-1.7-0.9-8.5-3-12.2c-2.3-4.1-4.4-5.1-6.6-7.4
					c-0.4-0.4-0.8-0.8-1.2-1.3c-0.3-0.4-0.6-0.8-0.9-1.2c-0.3-0.5-0.6-1-0.9-1.5c-0.1-0.2-0.3-0.5-0.4-0.7c-0.1-0.3-0.3-0.5-0.4-0.8
					c-0.3-0.5-0.5-1-0.8-1.6c-0.2-0.4-0.5-0.9-0.8-1.4c-0.3-0.5-0.6-1-1-1.5c-0.3-0.5-0.7-0.9-1-1.4c-0.3-0.4-0.7-0.8-1.1-1.2
					c0,0-0.1-0.1-0.1-0.1c-0.4-0.5-0.9-0.9-1.3-1.3c-0.5-0.5-1-0.9-1.4-1.2c-0.4-0.3-0.7-0.6-1-0.8l0.3-0.9c-3-0.7-6.8-1.9-11-4.1
					c-3.3-1.8-6-3.7-8-5.4c-1.6,1.3-4.1,3.7-5.9,7.5C245.2,768.7,244.7,770.9,244.5,772.6z"/>
				<path class="stt14" d="M271.4,780c0.3,0.4,0.8,0.5,1.2,0.3l5.2-3.4c-0.3-0.5-0.6-1-1-1.5l-5.2,3.5
					C271.2,779,271.1,779.6,271.4,780z"/>
				<path class="stt14" d="M268.7,777.6c0.3,0.4,0.8,0.5,1.2,0.3l6-3.9c-0.3-0.4-0.7-0.8-1.1-1.2c0,0-0.1-0.1-0.1-0.1l-5.8,3.8
					C268.5,776.6,268.4,777.2,268.7,777.6z"/>
				<path class="stt14" d="M265.9,775.2c0.3,0.4,0.8,0.5,1.2,0.3l6.3-4.1c-0.5-0.5-1-0.9-1.4-1.2l-5.9,3.9
					C265.7,774.2,265.6,774.8,265.9,775.2z"/>
				<path class="stt14" d="M273.7,782.5c0.3,0.4,0.8,0.5,1.2,0.3l4.5-3c-0.3-0.5-0.5-1-0.8-1.6l-4.7,3.1
					C273.5,781.5,273.4,782.1,273.7,782.5z"/>
				<path class="stt14" d="M276.4,784.8c0.3,0.4,0.8,0.5,1.2,0.3l3.5-2.3c-0.3-0.5-0.6-1-0.9-1.5l-3.6,2.3
					C276.3,783.9,276.2,784.4,276.4,784.8z"/>
				<path class="stt14" d="M279.3,786.9c0.3,0.4,0.8,0.5,1.2,0.3l2.8-1.8c-0.4-0.4-0.8-0.8-1.2-1.3l-2.6,1.7
					C279.1,786,279,786.5,279.3,786.9z"/>
			</g>
			<path class="stt54" d="M305.4,787.7c0.1,6.2,0.2,12.4,0.4,18.6c-6.1-2.6-12.3-5.3-18.4-7.9c-1.3-5.3-2.6-10.5-3.9-15.8
				C290.8,784.2,298.1,785.9,305.4,787.7z"/>
			<path class="stt57" d="M307.7,790.9c-8.1-0.8-16.1-1.6-24.2-2.3c-5.2-21.5-10.3-42.9-15.5-64.4c-0.8-4.3-1.3-10.9,1-18.2
				c0.6-1.8,1.2-3.4,1.9-4.8c9.9-4.4,19.9-8.8,29.8-13.2C303,722.3,305.4,756.6,307.7,790.9z"/>
			<g>
				<path class="stt55" d="M339.7,826.4c-0.5,1.2-0.9,2.4-1.4,3.6c-2-0.1-4.9-0.4-8.5-0.9c-3.8-0.6-10.8-1.9-25.3-7.1
					c-5.5-2-12.7-4.7-21-8.4c0.1-2.7,0.2-5.3,0.3-8C302.5,812.5,321.1,819.5,339.7,826.4z"/>
				<path class="stt58" d="M283.9,810.9c43.6,17.2,54.7,18.2,56.1,15.5c1.1-2.1-3.5-7.8-6.7-10.7c-3.5-3.1-5.7-3.4-8.6-4.9
					c-0.5-0.3-1-0.5-1.6-0.9c-0.4-0.3-0.8-0.6-1.3-0.9c-0.4-0.3-0.9-0.7-1.4-1.1c-0.2-0.2-0.4-0.4-0.6-0.6c-0.2-0.2-0.4-0.4-0.6-0.6
					c-0.4-0.4-0.8-0.8-1.3-1.2c-0.4-0.3-0.7-0.7-1.1-1c-0.4-0.4-0.9-0.7-1.4-1.1c-0.4-0.3-0.9-0.7-1.4-1c-0.4-0.3-0.9-0.6-1.4-0.8
					c-0.1,0-0.1-0.1-0.1-0.1c-0.6-0.3-1.1-0.6-1.6-0.8c-0.6-0.3-1.2-0.5-1.7-0.7c-0.5-0.2-0.9-0.3-1.2-0.4l0-1
					c-3,0.3-7.1,0.4-11.7-0.4c-3.7-0.6-6.9-1.6-9.3-2.6c-1.1,1.7-2.7,4.8-3.2,8.9C283.4,807,283.6,809.3,283.9,810.9z"/>
				<path class="stt14" d="M311.8,809.5c0.4,0.3,1,0.2,1.3-0.1l3.9-4.9c-0.4-0.4-0.9-0.7-1.4-1.1l-3.9,4.9
					C311.3,808.6,311.4,809.2,311.8,809.5z"/>
				<path class="stt14" d="M308.4,808.1c0.4,0.3,1,0.2,1.3-0.1l4.4-5.6c-0.4-0.3-0.9-0.6-1.4-0.8c-0.1,0-0.1-0.1-0.1-0.1l-4.3,5.4
					C308,807.2,308,807.8,308.4,808.1z"/>
				<path class="stt14" d="M305,806.6c0.4,0.3,1,0.2,1.3-0.1l4.7-5.9c-0.6-0.3-1.2-0.5-1.7-0.7l-4.4,5.5
					C304.6,805.8,304.6,806.3,305,806.6z"/>
				<path class="stt14" d="M314.7,811.1c0.4,0.3,0.9,0.2,1.3-0.1l3.4-4.3c-0.4-0.4-0.8-0.8-1.3-1.2l-3.5,4.4
					C314.3,810.3,314.3,810.8,314.7,811.1z"/>
				<path class="stt14" d="M318.1,812.5c0.4,0.3,0.9,0.2,1.3-0.1l2.6-3.3c-0.4-0.3-0.9-0.7-1.4-1.1l-2.6,3.4
					C317.6,811.6,317.7,812.2,318.1,812.5z"/>
				<path class="stt14" d="M321.5,813.6c0.4,0.3,0.9,0.2,1.3-0.1l2.1-2.6c-0.5-0.3-1-0.5-1.6-0.9l-1.9,2.4
					C321,812.7,321.1,813.3,321.5,813.6z"/>
			</g>
			<path class="stt53" d="M241.5,650.3c-5.4,1.8-16,4.5-29.2,2.4c-11.2-1.7-19.4-6.2-24-9.1c-1.7,4.5-3.4,8.9-5.2,13.4
				c16.7,6.5,30.3,7.1,38.9,6.7c5.8-0.3,20-1,21.6-7C244.2,654.4,242.9,652.1,241.5,650.3z"/>
			<path class="stt59" d="M241.2,542.3c2.5-0.8,7,4.8,11.6,12.3c5.4,9,12.4,22.8,20.8,41.4c11.6-5.6,23.1-11.2,34.7-16.9
				c2.4,3.7,4.9,7.4,7.3,11.2c-12.6,8.8-25.2,18.1-37.9,28c-2.3,1.8-4.7,3.6-7,5.5c-2.1-1.1-4.2-2.4-6.4-4
				c-12.3-9-17.3-21.8-19.5-29.2C239.9,566.2,236.7,543.8,241.2,542.3z"/>
			<path class="stt57" d="M230.6,658c-12.8-3.1-25.6-6.1-38.4-9.2c-4.5,7.2-9.1,14.4-13.6,21.6c1.8,3.2,5.6,9,12.6,13.5
				c11.2,7,22.6,5.7,25.9,5.2c17.6,5.9,27.7,8,33.8,8.6c0.2,0,0.5,0,1,0.1c9.5,1,16.5,2.4,21.1,3.4c9.3-4.4,18.6-8.7,28-13.1
				c-0.5-1.8-1.7-5.3-4.7-8.7c-0.9-1-3.4-3.5-7.9-5.5C281.5,670.9,260,664.7,230.6,658z"/>
			<path class="stt60" d="M208.9,537.2c4.3,24.8,7.4,53.2,7.6,84.7c0.1,14.4-0.4,28.1-1.4,41c-5.4,2.8-11.1,5.5-17.1,8.2
				c-8.8,3.9-17.2,7.3-25.3,10.3c0.8-8.7,2.7-21.8,8.2-36.9c4.1-11.4,7.2-15.3,9.6-22.6c3.6-10.8,5.4-27.6-4.8-52.7
				c-2.2-10.1,0.8-20.2,7.9-26.3C199.6,538,206.3,537.3,208.9,537.2z"/>
			<path class="stt59" d="M225.2,539.5c8.4,10,12.4,19.3,14.5,25.9c6.9,21.9,2.6,44.8,2.1,47.1c-1.6,8.2-4.6,17.4-2.4,30.4
				c0.7,4.1,1.7,7.3,2.4,9.4c0.3,0.7,1,1.9,2.1,2.7c1.9,1.4,3.7,0.9,8.2,1.2c4.8,0.3,5.6,0.9,6.1,0.3c1.2-1.7-5.4-6.4-9.1-14.6
				c-2.4-5.3-2.6-9.9-2.7-15.7c-0.3-11.2,2.2-14.5,5.5-35.8c0.8-4.9,1.5-9.9,1-14.9c-0.6-5.8-2.6-8.7-5.8-17.7
				c-1.3-3.6-3-8.8-4.7-15.3C236.6,541.6,230.9,540.6,225.2,539.5z"/>
			<g>
				<g>
					<path class="stt49" d="M207.6,624c-0.2-0.4-0.4-0.7-0.4-0.9c0,0,0,0,0-0.1c-0.1-0.1-0.1-0.2-0.2-0.3c-0.2-0.4-0.4-0.9-0.6-1.3
						c-0.9-1.9-1.8-3.7-2.7-5.6c-0.5-1-1-2-1.5-3c-2-4.2-3.9-8.4-5.7-12.4c-0.3-0.7-0.6-1.3-0.9-1.9c-0.5-1.2-1-2.3-1.5-3.4l0,0
						c-0.7-1.6-1.3-3.1-1.9-4.6c-0.2-0.5-0.4-1-0.6-1.5c-0.2-0.6-0.5-1.2-0.7-1.8c-0.2-0.6-0.5-1.2-0.7-1.8
						c-0.1-0.3-0.2-0.6-0.3-0.9c-0.2-0.6-0.4-1.1-0.6-1.7c-0.1-0.3-0.2-0.6-0.3-0.8c-0.4-1.2-0.8-2.5-1.2-3.6
						c-0.7-2-1.2-3.9-1.8-5.7c-0.4-1.4-0.8-2.8-1.1-4.2c-0.2-1-0.5-2-0.7-3c-0.1-0.6-0.3-1.3-0.4-1.9c-0.1-0.6-0.2-1.2-0.3-1.8
						c0-0.3-0.1-0.6-0.1-0.9c-0.1-0.9-0.2-1.7-0.3-2.5c-0.3-4.6,0.2-8.4,1.7-11.1c0.4-0.8,1-1.5,1.6-2.1c0-0.1,0.1-0.1,0.1-0.1
						c0.2-0.1,0.3-0.3,0.4-0.4c0.4-0.3,0.7-0.5,1.1-0.7c0.4-0.2,0.8-0.3,1.2-0.4c0.1,0,0.1,0,0.2,0c0.1,0,0.1,0,0.2,0
						c0.1,0,0.3,0,0.4,0c0.4,0,0.8-0.1,1.2,0l0,0c0.2,0,0.4,0,0.6,0.1c0.7,0.1,1.4,0.3,2.2,0.6c0.2,0.1,0.5,0.2,0.7,0.3
						c0,0,0,0,0.1,0c0,0,0.1,0,0.1,0c0.1,0,0.2,0.1,0.2,0.1c0.2,0.1,0.3,0.2,0.5,0.3c0.2,0.1,0.5,0.3,0.7,0.4
						c0.6,0.4,1.2,0.9,1.8,1.4c0.3,0.3,0.6,0.6,0.9,0.9c0.6,0.6,1.2,1.4,1.8,2.2c0.3,0.4,0.5,0.8,0.8,1.2c0.3,0.5,0.6,1,0.8,1.5
						c0.5,1,0.9,2.1,1.3,3.3l0,0l7.4,24.6l0.6,1.8l0.7,2.2l0.3,0.9l0.6,2.1l1.9,6.3l0,0l2.4,8l3.8,12.5l1.4,4.7c0,0,0,0,0,0l0,0.2
						l0,0.1c0.2,2,0.5,3.9,0.7,5.9c-0.8,0.9-2.8,2.9-6,3.4C213.9,628.9,209.5,627.1,207.6,624z"/>
				</g>
			</g>
			<path class="stt61" d="M220.2,602.5c-0.1-0.3-0.2-0.6-0.3-0.9c-5.7-17.9-11.4-35.9-17-53.8c-0.2-0.4-4.1-6-10.6-5.8
				c-0.4,0-5,0.3-8.2,4c-2.8,3.2-3.4,7.8-2.4,14.3c2.8,18.4,18.7,53.1,21,58c0.3,1.1,2.3,8.5,8.6,10.6c0.9,0.3,2,0.6,3.4,0.6
				c2.5-1.2,4-2.8,5-4C226.6,616.8,220.5,603.1,220.2,602.5z"/>
			<path class="stt62" d="M227.3,524.5c-5.9-1.7-11.9-3.3-17.8-5c-1.2,6.8-2.4,13.7-3.6,20.5c1.7-0.4,3.3-0.8,5-1.1
				C216.4,534.1,221.9,529.3,227.3,524.5z"/>
			<g>
				<g>
					<path class="stt63" d="M226.6,487.5c2-1.4,3.4-2.1,5-1.9c4.4,0.5,6.5,7.2,6.7,7.8c0.7-1.7,2.2-5.8,0.9-10.6
						c-1.8-6.7-8.1-11.3-14.5-11.8c-3.8-0.3-6.8,0.8-8.4,1.6c-4.1-0.4-7.4,0.1-10,0.9c-18.3,5.2-23.9,28.9-24.4,31
						c-4.5,0.3-10.9,1.2-17.8,4.3c-3.2,1.4-5.9,3-8.1,4.5c-3,3.4-12.1,14.8-12.2,31.5c0,3.2-0.2,22,13.7,33.3c3.5,2.9,7,4.5,9.6,5.5
						c16.7,1.8,23.4-2,26.5-5.9c5.7-7.3,2.2-19.5,11.7-31.7c1.2-1.5,1.6-1.7,2.4-3.1c4.6-8.5,2.4-23.2,2.1-25.3c-0.3-2.3-1-5.2,0-9
						c1.1-4.6,3.8-7.9,5.9-10.1C219.7,492.9,223.7,489.5,226.6,487.5z"/>
				</g>
			</g>
			<g>
				<g>
					<path class="stt51" d="M206.8,505c0.6,2.9,2.8,4.9,4.9,4.4c2-0.5,3.2-3.2,2.5-6.1c-0.6-2.9-2.8-4.9-4.9-4.4
						C207.3,499.4,206.2,502.1,206.8,505z"/>
				</g>
			</g>
			<g>
				<path class="stt47" d="M226.5,479.4c-7.7-1.8-15.9,0.8-21.6,6.1c-2.9,2.7-5,6-6.2,9.7c-1.2,3.9-1.8,8.1-4.5,11.4
					c-4.5,5.3-12,6-17.8,9.2c-1.5,0.8-2.9,1.9-4,3.1c-1.4,1.7-2.2,3.7-3.1,5.7c-1.5,3.1-3.7,5.4-6.6,7.1c-6,3.5-14.9,4.6-18.1,11.5
					c-0.3,0.7-1.3,0.1-1-0.6c2.9-6.2,10.1-7.9,15.7-10.5c3.2-1.5,6.3-3.3,8.1-6.4c1.2-2,1.8-4.2,3.1-6.1c0.9-1.4,2-2.6,3.4-3.6
					c5.7-4.3,13.7-4.5,18.8-9.5c3.4-3.4,3.8-8.3,5.3-12.6c1.2-3.4,3.3-6.5,5.9-9c6-5.8,14.8-8.6,23-6.7
					C227.5,478.4,227.2,479.6,226.5,479.4L226.5,479.4z"/>
			</g>
			<g>
				<path class="stt47" d="M215.6,488.3c-7.5,2.2-11.9,8.5-13.1,16c-0.6,3.9-0.7,7.8-1.6,11.7c-0.7,3.5-1.9,6.8-3.5,10
					c-3,5.9-7.5,12.2-13.9,14.9c-3.4,1.5-7.3,1.5-10.8,2.6c-3.1,0.9-6.1,2.3-8.7,4.2c-6.2,4.3-10.8,10.8-12.5,18.2
					c-0.2,0.8-1.4,0.4-1.2-0.3c1.5-6.2,4.9-11.9,9.6-16.2c2.4-2.1,5-4,7.9-5.3c3.2-1.5,6.5-2.2,10-2.8c4.3-0.8,7.8-2.3,11-5.3
					c2.8-2.7,5.1-6,7-9.5c1.9-3.5,3.2-7.3,4-11.2c0.8-4,0.9-8,1.6-12c1.4-7.6,6.3-13.8,13.8-16C216.1,486.9,216.4,488.1,215.6,488.3
					L215.6,488.3z"/>
			</g>
			<path class="stt55" d="M262.7,570.1l28.5,10c0.5,0.2,1.1-0.1,1.3-0.6l0-0.1c0.2-0.5-0.1-1.1-0.6-1.3l-28.5-10
				c-0.5-0.2-1.1,0.1-1.3,0.6l0,0.1C261.8,569.3,262.1,569.9,262.7,570.1z"/>
			<g>
				<g>
					<g>
						<g>
							<path class="stt49" d="M270.5,586c-0.1,0.2-0.3,0.4-0.5,0.6l0,0c-1.5,1.1-5.6,2.3-6.1,2.5c-0.1,0-0.1,0.1-0.2,0.1
								c-0.1,0-0.2,0.1-0.2,0.1l0,0c-0.1,0.1-0.2,0.1-0.3,0.2c-0.7,0.4-1.3,0.7-1.8,1c-0.1,0.1-0.1,0.1-0.2,0.1
								c-0.1,0-0.1,0.1-0.2,0.1c-0.5,0.3-1,0.6-1.5,0.9c-9.6,11.4-17.8,19.8-22.9,24.3c-2,1.8-5.4,4.8-10.4,8.1
								c-0.7,0.4-1.3,0.8-1.9,1.2c0,0,0,0,0,0c-1.1,0.6-2.2,1.1-3.3,1.7c0.5-0.3,1.1-0.8,1.7-1.4c0.3-0.3,0.5-0.5,0.7-0.8
								c0,0,0,0,0,0c-0.3,0-0.5,0-0.8,0c-0.9-0.2-1.8-0.5-2.7-1c-0.2-0.1-0.3-0.2-0.5-0.3c-1.3-0.8-2.6-1.9-3.7-3.3
								c-0.1-0.2-0.2-0.3-0.4-0.5c0,0,0,0,0,0c-0.6-0.9-1.2-2-1.7-3.2c0,0,0,0,0,0c-0.1-0.1-0.1-0.3-0.2-0.4c-0.1-0.3-0.2-0.7-0.3-1
								c0-0.3,0-0.5,0-0.8c0,0,0-0.1,0-0.1c0-0.1,0-0.1,0-0.2c0.1-0.1,0.1-0.2,0.2-0.2c0.2-0.2,0.4-0.4,0.7-0.7l0,0
								c0.6-0.5,1.3-1.1,2.2-1.7c0.4-0.3,0.8-0.6,1.2-0.9c0,0,0.1,0,0.1-0.1c0,0,0,0,0,0c0.2-0.2,0.4-0.3,0.7-0.5
								c0.3-0.2,0.6-0.4,0.9-0.6c0,0,0.1-0.1,0.2-0.1c1-0.7,2.1-1.5,3.2-2.2c4.7-3.2,10.6-7.1,16.3-10.9c3.5-2.3,7-4.6,10.2-6.6
								c0,0,0,0,0,0c0,0,0,0,0.1,0c0.3-0.2,0.7-0.4,1-0.6c0,0,0.1,0,0.1-0.1c0,0,0,0,0,0c2.9-1.9,5.6-3.6,7.6-4.9
								c0.1-0.1,0.2-0.1,0.3-0.2c0.1,0,0.1-0.1,0.1-0.1c0.1,0,0.2-0.1,0.2-0.1c0.1,0,0.1-0.1,0.2-0.1c0,0,0.1-0.1,0.1-0.1
								c0.1,0,0.1-0.1,0.2-0.1c0.4-0.3,0.9-0.6,1.2-0.8c0.1-0.1,0.2-0.2,0.2-0.3c0,0,0,0,0,0c1.1-0.7,2.4-1.5,3.9-2.2
								c2.6,1.7,4.2,3,5.2,4C270.5,585,270.7,585.6,270.5,586z"/>
						</g>
					</g>
				</g>
				<g>
					<g>
						<path class="stt49" d="M258.5,583.7c0.1-0.1,0.2-0.2,0.2-0.3c0.5-0.7,1.2-1.6,2.1-2.5c0,0,0,0,0,0c0.9-1,1.9-2.1,3.2-3.2
							c0,0,0.1-0.1,0.1-0.1c1-0.8,11.1-9.5,15.6-6.5c1,0.6,1.3,1.6,1.4,1.9c1.5,4.2-5.5,10-9,12.4c-1.7,1.2-4.5,2.7-8.4,3.8
							c-0.3,0.1-0.7,0.2-1.1,0.3C261.3,587.5,259.9,585.6,258.5,583.7z"/>
					</g>
				</g>
			</g>
			<path class="stt61" d="M254.9,582.9c2.7,3.6,5.3,7.1,8,10.7c-14,12.2-28,24.3-42,36.5c-4.5,3.1-10.6,1.8-13.5-2.5
				c-2.6-4-1.7-9.7,2.3-12.8C224.8,604.1,239.9,593.5,254.9,582.9z"/>
			<g>
				<polygon class="stt63" points="278.7,596.9 312.1,602.6 332.9,554.7 299.5,549 				"/>
				<polygon class="stt47" points="308.9,548 325.6,550.9 324.5,553.3 307.8,550.5 				"/>
			</g>
			<path class="stt49" d="M331.1,569.2c-0.2-1.8-1.3-4.5-3.7-5.3c-2.6-0.8-5.3,1.1-6.5,2.8c-2.9,4.1-0.8,11.4,2.3,12.2
				C326.3,579.8,331.7,574.3,331.1,569.2z"/>
		</g>
		<g>
			<path class="stt64" d="M723.8,782.5c-0.3,6-0.6,11.9-0.8,17.9c-4.4,0-8.9,0-13.3,0c-1.1-6-2.2-11.9-3.3-17.9
				C712.2,782.5,718,782.5,723.8,782.5z"/>
			<path class="stt64" d="M685.7,782.5c-0.3,6-0.6,11.9-0.8,17.9c-4.4,0-8.9,0-13.3,0c-1.1-6-2.2-11.9-3.3-17.9
				C674.1,782.5,679.9,782.5,685.7,782.5z"/>
			<polygon class="stt65" points="687.6,648.6 687.6,648.6 687.6,648.6 687.6,648.6 			"/>
			<g>
				<path class="stt14" d="M730.4,660.3c-7,3-14.6,4.4-22.2,4.2c-0.9,0-0.9-1.4,0-1.4c7.5,0.2,14.9-1.3,21.8-4.2
					C730.9,658.6,731.2,659.9,730.4,660.3L730.4,660.3z"/>
			</g>
			<g>
				<path class="stt14" d="M696.7,665c-1.8,0-3.6,0-5.4,0c-0.9,0-0.9-1.4,0-1.4c1.8,0,3.6,0,5.4,0C697.6,663.6,697.6,665,696.7,665
					L696.7,665z"/>
			</g>
			<path class="stt66" d="M703.1,668.9c-0.2,2-1,8.5-6.3,14.4c-5.3,6-11.8,7.5-13.9,8c-4.4,1-7.9,0.6-9.7,0.4
				c-5.6-0.7-9.6-2.7-11.2-3.6c-3.9-2.2-11.6-6.2-12.1-12.5c-0.1-1.5,0.2-3,2.6-7.7c2-3.9,5.2-9.3,9.7-15.3c1.3-0.2,3.2-0.4,5.5-0.9
				c2.1-0.4,4.5-0.9,7.1-1.6c11.7-3.2,13.8-6.4,18-5.2C700.1,646.9,704.1,659.4,703.1,668.9z"/>
			<path class="stt67" d="M741.3,673.8c-0.2,2-1,8.5-6.3,14.4c-5.3,6-11.8,7.5-13.9,8c-4.4,1-7.9,0.6-9.7,0.4
				c-5.6-0.7-9.6-2.7-11.2-3.6c-3.8-2.1-11.1-6-12.1-12.5c-0.5-3,0.6-5.5,1.6-7.7c3-6.6,6.8-14.7,11.5-24c2.5,2.5,6.6,5.8,11.8,6.2
				c8.7,0.7,12-6.9,18-5.2C738.3,651.8,742.3,664.3,741.3,673.8z"/>
			<path class="stt68" d="M727.3,787.8c-1.2-28.7-2.5-57.5-3.7-86.2c0.8-2.4,3.1-10-0.5-18.4c-1.3-2.9-5.2-12.1-15.3-13.9
				c-7.3-1.3-15.1,1.8-20.2,7.7c4.7,36.9,9.4,73.8,14,110.6C710.2,787.7,718.7,787.8,727.3,787.8z"/>
			<path class="stt69" d="M665,789.2c8.1-0.1,16.2-0.1,24.3-0.2c-0.7-54.1-2.4-94.2-4.4-107.1c-0.3-1.9-1.2-6.8-5.3-10.5
				c-5.7-5.2-14.9-6.1-21.8-2.9c-4.3,2-6.6,5.1-7.7,6.8C655.1,713.3,660.1,751.3,665,789.2z"/>
			<path class="stt70" d="M675.2,490.6c-4.4,3.3-6.7,7.4-9.2,12c-8.3,14.8-2.9,22-10.6,34.9c-2.6,4.4-2.5,2.2-13.3,15.7
				c-6.8,8.4-10.2,12.6-11.3,15.4c-4.8,12,2.5,28,9.9,35.9c18.3,19.8,63.5,18.9,88-5.1c30.1-29.7,21-87.2-6.2-105.4
				C710.5,485.9,688.2,481,675.2,490.6z"/>
			<g>
				<path class="stt71" d="M660.4,546.1c-0.2,1.9,5.9,4.1,11.5,6c1.3,0.5,2.3,0.8,3,1c-0.9,11.2,4.8,21.8,14.3,26.7
					c13.5,6.9,30-0.1,34.1-8.9c3.3-7.1-0.9-16.6,4.2-19.7c0.6-0.4,7.4-4.3,7.8-5.2c0.1-0.3,0.2-0.6,0.3-0.9c0.1-0.3,0.1-0.6,0.2-0.8
					v0c-0.1,0-0.2-0.1-0.4-0.1c-1.8-0.4-3.7-0.8-5.6-1.1c-2.6-0.5-5.1-0.9-7.6-1.3c-4.6-0.7-9-1.3-13.3-1.7v-20.3h-22.1v20.3
					l-10.4,1.4c-2.6,0.5-5.6,1.1-9.6,2c-0.5,0.1-2.6-0.2-4.7,1C661.2,545,660.4,545.4,660.4,546.1z"/>
			</g>
			<path class="stt15" d="M674.4,505.7c0.4,3.6,2.1,6.4,3.7,6.2c1.6-0.2,2.6-3.3,2.1-6.9c-0.4-3.6-2.1-6.4-3.7-6.2
				C674.9,499,674,502.1,674.4,505.7z"/>
			<path class="stt15" d="M716.7,504.9c-0.5,3.6,0.3,6.7,1.9,7c1.6,0.2,3.3-2.5,3.9-6.1c0.5-3.6-0.3-6.7-1.9-7
				C719,498.6,717.3,501.3,716.7,504.9z"/>
			<path class="stt64" d="M678.1,500.1c0,1.1,0.1,2.3,0.2,3.6c0.1,1.2,0.3,2.4,0.3,2.4c0.1,0.7,0.3,1.4,0.5,2
				c0.2,3.1,0.9,8.8,4.3,14.6c0.2,0.3,0.3,0.6,0.4,0.7c2.3,3.7,4.5,7.2,8,9.3c3.2,1.9,6.3,1.9,6.9,1.9c3.3-0.1,5.7-1.4,6.9-2.1
				c6.2-3.6,8.9-10.4,10.3-14c2.6-6.5,3.3-12.4,3.3-18.5c0-1.4-0.1-2.9-0.2-4.3c-0.2-2.3-0.4-4.8-0.6-7.4c-0.3-3-0.6-5.2-1.9-7.6
				c-3.1-5.6-9.2-7.6-13-8.4c-1.5,0-2.7,0.1-3.5,0.2c-0.8-0.1-4.1-0.4-7.9,0.4c-4.3,1.4-8.4,4.1-11,8.1c0,0-2.5,3.8-3,13.3
				C678,496.2,678,498,678.1,500.1z"/>
			<g>
				<polygon class="stt72" points="696.8,499.9 694.6,510.1 693.1,511.3 694.1,515.1 702.6,515.5 695.1,514.1 694.5,511.8 
					695.8,510.3 				"/>
			</g>
			<path class="stt70" d="M677.8,500.4c0.1-0.1,0.2-0.2,0.3-0.3c0.7-0.9,1-1.9,1.2-2.7c1-1.4,2-2.4,2.7-3c3.6-3.2,7.8-4.2,10.8-4.9
				c1.3-0.3,2.4-0.5,3.1-0.5c0.8-4.7,1.7-9.4,2.5-14.1c-0.2,4.8-0.5,9.6-0.7,14.4c2.2-0.1,5.6,0.2,9.1,1.8c5.4,2.5,9.9,7.7,11,13.7
				c0.6,3.3,0.1,6.2-0.3,8.5c-0.6,3.3-1.6,5.9-2.5,7.7c1.9-2.2,5.1-6.4,6.8-12.6c1.6-5.9,1.2-10.9,0.8-13.6
				c-0.4-3.3-1.4-7.8-4.1-12.6c-1.7-3-3.3-6-6.7-8c-5.7-3.4-11.8-1.9-13.1-1.6c-2.3-0.3-10.6-1.1-16.6,4.5c-0.3,0.3-1.7,1.6-2.9,3.7
				C674.5,488.3,676.9,497.4,677.8,500.4z"/>
			<path class="stt71" d="M721.3,556.6c10.4,15.4,20.7,30.8,31.1,46.1c0.4,0.6,0.8,1.2,1.2,1.8c0.2,0.6,1.5,5.3,5.5,6.6
				c4.2,1.5,10-1.2,12.5-7.1c-0.1-0.8-0.4-1.6-0.7-2.4c0,0,0-0.1-0.1-0.1c-1.2-2.5-2.4-5-3.6-7.4c-9.4-18.7-20.1-35-31-49.1
				c-3.8-1.9-8.3-1.4-11.4,1.3C721.8,548.9,720.5,552.8,721.3,556.6z"/>
			<path class="stt71" d="M659.2,546.7c-8,18-15.9,36-23.9,54c-2.4,3.7-2.2,8.3,0.3,11.2c3.4,4,9.7,3.3,13.2,0.7
				c1.8-1.4,2.7-3.2,3.1-4.4c9.1-16.4,18.1-32.7,27.2-49.1c-0.6-8.1-5.7-14.1-11.5-14.8C663.7,543.8,660.6,545.7,659.2,546.7z"/>
			<path class="stt14" d="M726.9,607.4c0,8.4,0.2,13.3,1.5,20.1c2.8,15,12.1,23.6,9.5,28.4c-1.2,2.2-4.6,2.9-15.2,2.2
				c-28.4-1.7-33.4-8.2-47.7-5.4c-8.4,1.6-15.7,5.6-19.4,6.5c-1.2,0.3-2,0.3-2.4-0.3c-0.5-0.9,0.9-4.3,3.9-11.3
				c0.2-0.4,0.3-0.7,0.3-0.7c4.3-10.1,9.8-23.4,9.7-43.1c0-3-0.2-6.2-0.3-9.1c-0.2-3-0.4-5.7-0.6-7.8c0.4-2.7,0.7-5.4,1.1-8.1
				c-0.8,2.6-1.7,5.1-2.6,7.7c-0.7,2-1.4,4-2.1,6c-6.4-6-12.7-11.9-19.1-17.9c5.1-10,10.3-20.1,15.4-30.1c8.5-1.5,17-2.9,25.5-4.4
				c0.5,0.8,5,7.5,13.4,8.2c6.5,0.6,12.9-2.7,16.6-8.4c7.1,1.3,14.2,2.7,21.4,4c6.3,8,12.6,16,18.9,24c-4.9,7.8-9.8,15.6-14.7,23.4
				c-3.1-4.2-6.1-8.4-9.2-12.5c-0.1-0.1-0.2-0.2-0.2-0.3C728.4,586.1,727,596,726.9,607.4z"/>
			<path class="stt73" d="M737.9,655.9c-1.2,2.2-4.6,2.9-15.2,2.2c-28.4-1.7-33.4-8.2-47.7-5.4c-8.4,1.6-15.7,5.6-19.4,6.5
				c0,0,0,0,0,0c1.7-1.5,4.6-3.8,8.4-6.3c15.7-10,25.7-7.4,34.8-16.5c5.6-5.6,7.3-12.1,7.8-14.1c3.8-16.2-8-29.7-9.5-31.5
				c2.5,1.6,7.1,4,12.8,3.6c9.7-0.6,18.5-8.6,21.9-20.3c-0.4,1.5-0.8,3-1.2,4.6c-0.1,0.6-0.3,1.1-0.4,1.7c0,0,0,0.1,0,0.1
				c-0.6,2.5-2.6,13.5-3.1,27c-0.3,9.1-0.1,14.3,1.5,20.1C731.2,642.5,740.6,651.1,737.9,655.9z"/>
			<path class="stt74" d="M718.6,508.3c-0.9,6.4-3.3,14.3-9.2,21.1c-0.6,0.7-1.2,1.3-1.8,1.9c-2.7,5.7-5.6,14.2-4.3,23.8
				c1.1,8,4.4,11.7,7.4,21.1c2,6.2,4.1,15.2,3.8,27.2c5.8-2.8,9-6.3,10.8-8.7c9.3-12.4,5.8-30.4,4.2-38.5c-1-5.2-2-6.9-2.9-13.5
				c-0.3-2.2-0.5-4.1-0.7-5.9c-0.4-5.4-0.3-11-0.3-12.9c0.3-20.2-2.3-28.2-3.2-30.9c-0.3-0.8-0.5-1.5-0.7-1.9
				C720.6,496.8,719.6,502.6,718.6,508.3z"/>
			<path class="stt74" d="M678.8,508.3c0.9,6.4,3.3,14.3,9.2,21.1c0.6,0.7,1.2,1.3,1.8,1.9c0.1,7.5-0.1,15.3-0.5,23.5
				c-1,17.9-3.4,34.2-6.4,48.5c-2.7-1.5-6.8-4.3-10.8-8.7c-7.3-8.1-15.8-23.9-10.9-36.4c2.3-5.9,6.5-8.5,6.7-15.7
				c0.1-4.4-1.4-7.4-2.1-9.2c-6.3-16.5,7-42.6,10.9-41.8C678,491.8,679.1,495.3,678.8,508.3z"/>
			<path class="stt64" d="M681,505.5c0.3,3.7-0.7,6.8-2.2,7c-1.6,0.1-3.1-2.8-3.4-6.5c-0.3-3.7,0.7-6.8,2.2-7S680.7,501.8,681,505.5z
				"/>
			<path class="stt71" d="M686,583.1c-1.1,2.8,1.2,6.5,3.7,8.5c1.6,1.3,3.6,2.1,15.8,3.8c0.5,0.1,1.1,0.1,1.7,0.2
				c0.6,0.1,1.3,0.2,2,0.2c0.2,0,0.6,0.1,0.8,0.1c5,1.6,9.5,3.2,13.3,4.6c3.8,1.4,7,2.6,9.7,3.7c4.8,1.9,11.5,4.7,21.3,7.1
				c1.6,0.4,2.9,0.7,3.8,0.9c1.4,0.6,2.8,0.8,4.1,0.8c2.4,0,4.7-0.9,6.3-2.3c0.6-0.5,1-1,1.4-1.5c0,0,0-0.1,0.1-0.1
				c0.5-0.8,0.9-1.6,1.1-2.5c0.1-0.7,0.2-1.4,0.1-2.1c-0.4-3.4-3.2-7-7.6-8.1c-0.7-0.2-1.5-0.3-2.2-0.4c-0.1,0-0.2,0-0.4-0.1
				c-2.2-0.4-4.4-0.9-6.7-1.3c-9.3-1.7-19.1-3.1-29.4-4.1c-4.6-0.5-9.2-0.8-13.6-1.1c0,0-0.1-0.1-0.1-0.1c-1.3-1.2-3.3-3-6-4.6
				c-3.4-2.2-8.9-5.7-13.9-5c-0.7,0.1-1.3,0.3-2,0.5C688.7,580.4,686.7,581.2,686,583.1z"/>
			<path class="stt71" d="M648.9,612.3c3.1-3.4,2.4-10.4-3.1-13.8c-0.7-0.6-1.7-1.5-2.9-2.6c-7.7-6.5-13.9-10.4-18.2-13.1
				c-4.8-3.1-11.7-7.6-20.1-13.8c-0.1-0.2-0.4-0.4-0.5-0.6c-0.5-0.5-0.9-1-1.4-1.5c-0.5-0.5-0.8-0.9-1.2-1.3
				c-8.5-8.9-10.3-10.1-12.3-10.6c-2.9-0.8-6.8-0.6-8.6,1.4c-0.2,0.2-0.3,0.4-0.4,0.6c-0.1,0.1-0.2,0.3-0.2,0.4
				c-0.2,0.4-0.3,0.9-0.4,1.4c-0.2,1.2,0.1,2.3,0.2,2.7c1.4,5.7,8.6,8.6,12.9,10.3c2.9,1.2,5.5,1.8,7.3,2.1c0.1,0,0.1,0,0.2,0
				c1,1.2,2,2.4,3.1,3.7c1.9,2.2,3.8,4.5,5.8,6.7c6.9,7.7,13.8,14.9,20.6,21.5c1.6,1.6,3.3,3.1,4.9,4.7c0.6,0.6,1.3,1.2,1.9,1.8
				C640.4,615.7,646.2,615.2,648.9,612.3z"/>
			<path class="stt74" d="M721.8,492.8c0.9,0,2.7,0.5,6.2,7c2.2,4.2,4.2,8.1,5.3,14.8c0.9,5.4,2.7,16.4-2.9,27.3
				c-1.3,2.5-6.5,12.6-12.3,12c-5.2-0.5-9.8-9.5-10.7-22.4c1.9-1.6,8.2-7.4,9.8-17.2c1.2-7.3-0.7-13.1-1.8-15.6
				C715.8,497.9,718.4,492.6,721.8,492.8z"/>
			<path class="stt64" d="M716.7,505.5c-0.3,3.7,0.7,6.8,2.2,7c1.6,0.1,3.1-2.8,3.4-6.5c0.3-3.7-0.7-6.8-2.2-7
				S717.1,501.8,716.7,505.5z"/>
			<g>
				<path class="stt2" d="M649.6,814.8c-0.1,0.7-0.3,1.7-0.3,2.9c0,1.2,0,1.8,0.3,2.5c0.7,1.7,2.2,2.5,2.7,2.7
					c0.7,0.4,1.4,0.5,1.9,0.6c2.1,0.5,10.5,2.4,17.3-2.9c3.8-3,5.4-6.9,6-9c1.6-0.6,4.1-1.7,6.2-4.2c0.6-0.7,1.1-1.4,1.4-2
					c0-1.9,0-3.8,0-5.7c-0.1-0.2-0.2-0.3-0.3-0.5c-3.2-0.5-7.3-0.7-12.1,0.2C659.4,802,651.8,811.7,649.6,814.8z"/>
				<path class="stt75" d="M685,801.6c-0.5,1.1-1.3,2.3-2.3,3.6c-2.5,3-5.3,4.5-7.2,5.3c-0.7,1.7-3.3,7.4-9.4,9.9
					c-5.9,2.4-14.2,1.6-16.2-2.6c-1.3-2.8,0.7-6.5,0.9-6.9c1.8-3.2,6.1-6.2,7-7.3c0.1-0.1,0.6-0.7,1.3-1.4c0,0,0,0,0,0
					c0.2-0.2,0.4-0.5,0.6-0.7c0.4-0.4,0.8-0.9,1.2-1.3c0.3-0.3,0.5-0.5,0.8-0.8c0.5-0.5,1-1,1.4-1.4c0.2-0.5,0.4-0.9,0.7-1.4
					c0-0.7,0.2-2.6,1.6-4.1c2.3-2.5,5.8-1.8,6.7-1.6c4.4,1,6.1,5.6,6.2,5.9c0.9-0.4,1.9-0.9,2.9-1.4c1.8-0.9,3.4-1.9,4.8-2.8
					C685.7,795.6,685.4,798.6,685,801.6z"/>
				<g>
					<path class="stt14" d="M672.3,802.8c-0.2,0.2-0.5,0.2-0.7,0c-0.9-0.9-2-1.7-3.2-2.3c-1.9-0.9-3.8-1-5.1-0.9
						c-0.3,0-0.5-0.2-0.6-0.5v0c0-0.3,0.2-0.6,0.5-0.6c1.5-0.1,3.5,0,5.6,1c1.3,0.6,2.5,1.4,3.5,2.5
						C672.5,802.3,672.5,802.6,672.3,802.8L672.3,802.8z"/>
				</g>
				<g>
					<path class="stt14" d="M670.6,804.9c-0.2,0.2-0.5,0.1-0.7-0.1c-0.9-1-1.9-1.8-3.1-2.4c-1.9-1-3.8-1.1-5.1-1.1
						c-0.3,0-0.5-0.2-0.5-0.5v0c0-0.3,0.2-0.6,0.5-0.6c1.5-0.1,3.5,0.1,5.6,1.2c1.3,0.6,2.4,1.5,3.4,2.6
						C670.9,804.4,670.9,804.8,670.6,804.9L670.6,804.9z"/>
				</g>
				<g>
					<path class="stt14" d="M668.9,806.6c-0.2,0.2-0.5,0.2-0.7,0c-0.9-1-2-1.7-3.2-2.3c-2-0.9-3.8-1-5.2-0.9c-0.3,0-0.5-0.2-0.6-0.5
						v0c0-0.3,0.2-0.6,0.5-0.6c1.5-0.1,3.5,0,5.7,1c1.3,0.6,2.5,1.5,3.5,2.5C669.2,806.1,669.2,806.4,668.9,806.6L668.9,806.6z"/>
				</g>
				<g>
					<path class="stt14" d="M667.1,808.4c-0.2,0.2-0.5,0.2-0.7,0c-0.9-0.9-2-1.7-3.2-2.3c-2-0.9-3.8-1-5.1-0.9
						c-0.3,0-0.5-0.2-0.6-0.5v0c0-0.3,0.2-0.6,0.5-0.6c1.5-0.1,3.5,0,5.6,1c1.3,0.6,2.5,1.4,3.5,2.5
						C667.3,807.8,667.3,808.2,667.1,808.4L667.1,808.4z"/>
				</g>
			</g>
			<g>
				<path class="stt2" d="M744.4,819.3c-0.7,1.7-2.2,2.5-2.7,2.7c-0.7,0.4-1.4,0.5-1.8,0.6c-2.1,0.5-10.5,2.4-17.3-2.9
					c-1.8-1.5-3.2-3.1-4.1-4.7c-1-1.7-1.6-3.2-1.9-4.3c-1-0.4-2.5-1-4-2.1l0,0c-0.7-0.6-1.5-1.2-2.2-2c-0.6-0.7-1.1-1.4-1.4-2
					c0-1.3,0-2.6,0-3.9c0-0.3,0-0.5,0-0.8c0-0.3,0-0.7,0-1c0.1-0.2,0.2-0.3,0.3-0.5c1.7-0.3,3.6-0.5,5.8-0.4c1.9,0,4.1,0.2,6.3,0.6
					c1,0.2,1.9,0.4,2.8,0.7c0.5,0.1,1,0.3,1.4,0.4c0.6,0.2,1.3,0.4,1.9,0.7c0.5,0.2,1,0.4,1.4,0.6c0.4,0.2,0.8,0.4,1.2,0.6
					c0.2,0.1,0.3,0.2,0.5,0.3c0,0,0,0,0,0c0.5,0.3,1,0.5,1.5,0.8c0.2,0.1,0.3,0.2,0.5,0.3c0.3,0.2,0.5,0.3,0.8,0.5
					c0.5,0.3,0.9,0.6,1.4,0.9c5.2,3.6,8.4,7.8,9.7,9.6c0,0.1,0,0.2,0.1,0.3c0,0,0,0,0,0c0.1,0.7,0.3,1.6,0.3,2.7
					C744.7,818,744.7,818.6,744.4,819.3z"/>
				<path class="stt75" d="M744,816.8c-1.9,4.2-10.3,5-16.2,2.6c-0.6-0.2-1.1-0.5-1.7-0.8c0,0,0,0,0,0c-4.9-2.8-7.1-7.6-7.7-9.1
					c-1.8-0.8-4.7-2.4-7.2-5.3c-0.8-1-1.5-2-2-2.9v0c-0.1-0.2-0.2-0.5-0.4-0.7c0,0,0,0,0,0c0,0,0,0,0,0c-0.1-0.6-0.1-1.1-0.2-1.7
					c0,0,0,0,0,0c-0.3-2.4-0.6-4.8-0.8-7.2c0,0,0,0,0,0c0,0,0-0.1,0-0.1c0,0,0,0,0,0c1.4,0.9,3,1.9,4.8,2.8c0.6,0.3,1.3,0.6,1.9,0.9
					c0.3,0.2,0.7,0.3,1,0.5c0.1-0.3,1.8-4.9,6.2-5.9c0.8-0.2,3.9-0.7,6.2,1.2c0.2,0.1,0.3,0.3,0.5,0.5c1.4,1.5,1.6,3.4,1.6,4.1
					c0.2,0.5,0.4,0.9,0.7,1.4c0.4,0.4,0.9,0.9,1.4,1.4c0.2,0.2,0.5,0.5,0.8,0.8c0.4,0.4,0.8,0.8,1.2,1.3c0.2,0.2,0.4,0.5,0.6,0.7
					c0,0,0,0,0,0c0.7,0.7,1.2,1.3,1.3,1.4c0.9,1.1,5.3,4.1,7,7.3c0.2,0.3,1.2,2.1,1.3,4.2c0,0,0,0,0,0
					C744.5,815,744.4,816,744,816.8z"/>
				<g>
					<path class="stt14" d="M721.7,801.9c0.2,0.2,0.5,0.2,0.7,0c0.9-0.9,2-1.7,3.2-2.3c1.9-0.9,3.8-1,5.1-0.9c0.3,0,0.5-0.2,0.6-0.5
						v0c0-0.3-0.2-0.6-0.5-0.6c-1.5-0.1-3.5,0-5.6,1c-1.3,0.6-2.5,1.4-3.5,2.5C721.4,801.3,721.4,801.7,721.7,801.9L721.7,801.9z"/>
				</g>
				<g>
					<path class="stt14" d="M723.3,804c0.2,0.2,0.5,0.1,0.7-0.1c0.9-1,1.9-1.8,3.1-2.4c1.9-1,3.8-1.1,5.1-1.1c0.3,0,0.5-0.2,0.5-0.5
						v0c0-0.3-0.2-0.6-0.5-0.6c-1.5-0.1-3.5,0.1-5.6,1.2c-1.3,0.6-2.4,1.5-3.4,2.6C723.1,803.5,723.1,803.8,723.3,804L723.3,804z"/>
				</g>
				<g>
					<path class="stt14" d="M725,805.7c0.2,0.2,0.5,0.2,0.7,0c0.9-1,2-1.7,3.2-2.3c2-0.9,3.8-1,5.2-0.9c0.3,0,0.5-0.2,0.6-0.5v0
						c0-0.3-0.2-0.6-0.5-0.6c-1.5-0.1-3.5,0-5.7,1c-1.3,0.6-2.5,1.5-3.5,2.5C724.8,805.2,724.8,805.5,725,805.7L725,805.7z"/>
				</g>
				<g>
					<path class="stt14" d="M726.9,807.4c0.2,0.2,0.5,0.2,0.7,0c0.9-0.9,2-1.7,3.2-2.3c2-0.9,3.8-1,5.1-0.9c0.3,0,0.5-0.2,0.6-0.5v0
						c0-0.3-0.2-0.6-0.5-0.6c-1.5-0.1-3.5,0-5.6,1c-1.3,0.6-2.5,1.4-3.5,2.5C726.6,806.9,726.7,807.3,726.9,807.4L726.9,807.4z"/>
				</g>
			</g>
		</g>
	</g>
	<g class="stt76">
		<path class="stt77" d="M1025.8,653c-5.3-4.4-13.5-3.6-19-1.4c-14.8,5.9-25,28.5-24.8,42.8c0,2.2,0.7,8.5-3.4,12.9
			c-1.9,2.1-4.6,3.3-6.9,4.9c-6,4-10,10.8-10.9,17.9c-1.2,10,2.3,10.8,1.4,22.9c-0.9,11.9-5.6,13.1-6,25.9c-0.2,6.4,0.8,13,1.9,15.3
			c-0.5,3-0.9,6.1-1.3,9.1c-0.2,2-0.5,3.9-0.6,5.9c-0.1,0.7,1,0.9,1.1,0.2c0.5-4.8,1.1-9.7,1.8-14.5c0.4-0.4,0.8-1.8,1.8-4.4
			c1.6-4.2,2.9-7.5,5-10.1c3.1-3.7,4.7-3.2,12.4-8.3c1.4-1,2.7-2,3.8-3.4c3.4-4.4,3.2-10.4,4.9-15.7c1.9-5.7,6.1-10.7,11.5-13.3
			c2.2-1.1,4.7-1.9,6.6-3.6c4.1-3.6,3.8-10,2.6-15.4c-1.2-5.3-3-11-1-16.1c0.4-0.9,0.8-1.7,1.2-2.3c2.5-3.9,5.2-6.2,6-6.9
			c1.3-1.1,12.9-10.7,16.1-21.4C1031.8,667.9,1031.9,658,1025.8,653z"/>
		<path class="stt77" d="M952.6,747.6c1.3-13.3,5.3-13.5,5.9-24.6c0.4-7.9-2.7-16-8.4-21.5c-2.3-2.2-4.9-4-6.6-6.7
			c-3.6-5.6-1.7-12.2-1.3-14.7c3-15.5-3.8-41.9-18.8-51.2c-5.5-3.4-14.4-5.8-20.9-2.1c-7.5,4.3-9.3,15.1-8.6,22
			c1.4,12.2,12.3,24.9,13.4,26.2c0.8,0.9,3.2,4,5.2,8.7c0.3,0.8,0.6,1.7,0.8,2.7c1.3,5.9-1.8,11.7-4.1,17.3s-3.8,12.5-0.1,17.2
			c1.7,2.2,4.3,3.5,6.5,5.1c5.4,3.9,9.1,10.1,10,16.7c0.9,6-0.4,12.6,2.4,17.9c0.9,1.7,2.1,3.1,3.5,4.4c7.3,7,9.2,6.7,11.9,11.4
			c1.9,3.2,2.6,7.1,3.6,12c0.6,3,0.7,4.7,1.1,5.2c-0.1,5.4-0.4,10.7-0.7,16.1c-0.1,0.8,1.1,0.7,1.2,0c0.2-2.2,0.3-4.3,0.4-6.5
			c0.2-3.4,0.3-6.8,0.4-10.1c1.6-2.2,3.9-9.2,5-16.2C956.2,762.9,951.3,760.7,952.6,747.6z"/>
	</g>
	<g>
		<path class="stt1" d="M1001.5,651.8c5.5-2.2,13.7-3,19,1.4c6,5,6,14.9,4.2,21c-3.1,10.7-14.8,20.3-16.1,21.4c-0.8,0.7-3.5,3-6,6.9
			c-0.4,0.7-0.8,1.4-1.2,2.3c-2,5.1-0.2,10.7,1,16.1c1.2,5.3,1.5,11.7-2.6,15.4c-1.9,1.7-4.3,2.4-6.6,3.6
			c-5.4,2.7-9.7,7.6-11.5,13.3c-1.7,5.2-1.6,11.3-4.9,15.7c-1,1.4-2.4,2.5-3.8,3.4c-7.6,5.1-9.3,4.6-12.4,8.3c-2.2,2.6-3.4,6-5,10.1
			c-1.2,3.1-1.4,4.6-2,4.6c-1.3,0-2.9-8.2-2.7-16.1c0.4-12.8,5.1-14,6-25.9c0.9-12.1-2.6-12.9-1.4-22.9c0.8-7.1,4.9-13.9,10.9-17.9
			c2.3-1.6,5-2.8,6.9-4.9c4.1-4.4,3.4-10.7,3.4-12.9C976.5,680.3,986.7,657.7,1001.5,651.8z"/>
		<g>
			<path class="stt1" d="M1007.7,665.9c-3.9,4.3-7.3,9-10.3,14c-2.6,4.5-4.9,9.1-6.4,14.1c-2,7-4.5,13.7-7.7,20.2
				c-4.2,8.5-8.6,17-12.7,25.5c-4.2,8.8-8.3,17.4-11.3,26.7c-3.8,12-6.1,24.5-7.6,37c-0.2,2-0.5,3.9-0.6,5.9c-0.1,0.7,1,0.9,1.1,0.2
				c1.3-13.2,3.5-26.3,7.1-39c1.3-4.5,2.7-8.9,4.5-13.2c1.6-4.1,3.5-8,5.4-11.9c4.6-9.6,9.4-19.2,14.2-28.7c3.1-6.1,5.7-12.4,7.8-19
				c0.6-1.8,1-3.6,1.6-5.4c0.7-2.3,1.7-4.4,2.8-6.6c2.9-5.9,6.5-11.4,10.7-16.4c0.8-0.9,1.5-1.8,2.3-2.7
				C1008.9,666.1,1008.1,665.4,1007.7,665.9L1007.7,665.9z"/>
		</g>
		<g>
			<path class="stt1" d="M997,691.7c-1.7,0.6-3.2,1.7-4.5,2.9c-1.5,1.4-2.2,3.3-3,5.1c-0.3,0.6,0.7,1.1,1,0.5
				c0.7-1.6,1.3-3.4,2.5-4.7c1.2-1.1,2.7-2.3,4.3-2.8C998,692.5,997.7,691.5,997,691.7L997,691.7z"/>
		</g>
		<g>
			<path class="stt1" d="M979.6,704.2c2.1,5.7,2,12-0.3,17.7c-0.3,0.6,0.7,1.1,1,0.5c2.5-5.9,2.6-12.5,0.4-18.5
				C980.4,703.2,979.3,703.6,979.6,704.2L979.6,704.2z"/>
		</g>
		<g>
			<path class="stt1" d="M990.6,725.3c-7.2,2.2-14.8,5.4-18.6,12.4c-0.3,0.6,0.6,1.1,1,0.5c3.7-6.7,11.1-9.7,18-11.8
				C991.6,726.1,991.2,725.1,990.6,725.3L990.6,725.3z"/>
		</g>
		<g>
			<path class="stt1" d="M961.5,743.9c1.6,1.4,2.3,4.1,2.4,6.2c0.2,2.2-0.2,4.3-1.1,6.3c-0.3,0.6,0.7,1.1,1,0.5
				c1-2.3,1.5-4.8,1.2-7.2c-0.2-2.2-0.9-5-2.7-6.5C961.7,742.7,961,743.5,961.5,743.9L961.5,743.9z"/>
		</g>
		<g>
			<path class="stt1" d="M969.4,763.7c-7.6,0.8-11.1,8.4-13.5,14.7c-0.2,0.6,0.7,1.2,1,0.5c2.2-5.9,5.4-13.4,12.6-14.1
				C970.2,764.7,970.1,763.6,969.4,763.7L969.4,763.7z"/>
		</g>
		<g>
			<path class="stt1" d="M952.4,779.4c0.7,1.2,1.2,2.5,1.5,3.8c0.1,0.6,0.2,1.3,0.2,2c0,0.7,0.2,1.8-0.3,2.4
				c-0.4,0.5,0.4,1.3,0.8,0.7c0.9-1.2,0.6-3.2,0.4-4.6c-0.3-1.7-0.9-3.4-1.8-4.9C952.9,778.2,952,778.8,952.4,779.4L952.4,779.4z"/>
		</g>
		<g>
			<path class="stt1" d="M1000.6,669c0.3,3.1-0.5,6.2-2.2,8.8c-0.4,0.6,0.6,1.1,1,0.5c1.8-2.8,2.6-6.1,2.3-9.4
				C1001.6,668.2,1000.5,668.3,1000.6,669L1000.6,669z"/>
		</g>
	</g>
	<g>
		<path class="stt1" d="M918,629.2c-5.5-3.4-14.4-5.8-20.9-2.1c-7.5,4.3-9.3,15.1-8.6,22c1.4,12.2,12.3,24.9,13.4,26.2
			c0.8,0.9,3.2,4,5.2,8.7c0.3,0.8,0.6,1.7,0.8,2.7c1.3,5.9-1.8,11.7-4.1,17.3c-2.3,5.6-3.8,12.5-0.1,17.2c1.7,2.2,4.3,3.5,6.5,5.1
			c5.4,3.9,9.1,10.1,10,16.7c0.9,6-0.4,12.6,2.4,17.9c0.9,1.7,2.1,3.1,3.5,4.4c7.3,7,9.2,6.7,11.9,11.4c1.9,3.2,2.6,7.1,3.6,12
			c0.7,3.6,0.7,5.2,1.3,5.3c1.4,0.2,4.7-8.3,5.9-17c2-14-2.9-16.2-1.6-29.3c1.3-13.3,5.3-13.5,5.9-24.6c0.4-7.9-2.7-16-8.4-21.5
			c-2.3-2.2-4.9-4-6.6-6.7c-3.6-5.6-1.7-12.2-1.3-14.7C939.8,664.9,933,638.5,918,629.2z"/>
		<g>
			<path class="stt1" d="M908.7,643.4c3.4,5.4,6.3,11.2,8.5,17.1c2,5.4,3.6,10.9,4.3,16.6c0.9,7.9,2.3,15.8,4.6,23.4
				c3,10.1,6.1,20.1,9,30.1c2.9,10.3,5.8,20.5,7.2,31.2c1.8,13.8,2,27.8,1.3,41.6c-0.1,2.2-0.2,4.3-0.4,6.5c-0.1,0.8-1.3,0.8-1.2,0
				c1-14.5,1.2-29.2-0.4-43.7c-0.5-5.1-1.3-10.2-2.3-15.2c-1-4.7-2.3-9.3-3.6-14c-3.2-11.3-6.6-22.6-10-33.9
				c-2.2-7.2-3.9-14.6-4.9-22.1c-0.3-2.1-0.4-4.1-0.7-6.2c-0.4-2.6-1.1-5.2-1.8-7.7c-2.1-6.9-4.9-13.6-8.5-19.8
				c-0.6-1.1-1.3-2.2-2-3.4C907.2,643.4,908.2,642.8,908.7,643.4L908.7,643.4z"/>
		</g>
		<g>
			<path class="stt1" d="M915.3,673.4c1.7,0.9,3.1,2.5,4.4,4c1.4,1.8,1.7,4,2.3,6.1c0.2,0.7-1,1.1-1.1,0.4c-0.5-1.9-0.7-4-1.9-5.6
				c-1.1-1.5-2.5-3-4.2-3.9C914.1,674.1,914.7,673.1,915.3,673.4L915.3,673.4z"/>
		</g>
		<g>
			<path class="stt1" d="M931.9,690.4c-3.4,5.8-4.5,12.7-3,19.2c0.2,0.7-1,1.1-1.1,0.4c-1.6-6.9-0.5-14.1,3.1-20.2
				C931.3,689.1,932.3,689.7,931.9,690.4L931.9,690.4z"/>
		</g>
		<g>
			<path class="stt1" d="M916,711.2c7.4,3.8,15,8.7,17.9,16.9c0.3,0.7-0.9,1.1-1.1,0.4c-2.8-8-10.2-12.6-17.3-16.2
				C914.8,711.9,915.4,710.8,916,711.2L916,711.2z"/>
		</g>
		<g>
			<path class="stt1" d="M944.1,736.9c-2.1,1.2-3.2,4-3.8,6.2c-0.6,2.3-0.6,4.8,0.1,7.1c0.2,0.7-0.9,1.1-1.1,0.4
				c-0.7-2.7-0.7-5.4,0-8.1c0.7-2.4,2-5.3,4.2-6.6C944.1,735.5,944.8,736.5,944.1,736.9L944.1,736.9z"/>
		</g>
		<g>
			<path class="stt1" d="M931.8,756.9c8.2,2.3,10.4,11.3,11.8,18.5c0.1,0.7-1,1.1-1.1,0.4c-1.3-6.8-3.3-15.6-11-17.7
				C930.8,757.9,931,756.7,931.8,756.9L931.8,756.9z"/>
		</g>
		<g>
			<path class="stt1" d="M947.3,777.2c-1,1.2-1.8,2.4-2.4,3.9c-0.3,0.7-0.5,1.4-0.6,2.1c-0.2,0.7-0.5,1.9-0.2,2.6
				c0.4,0.7-0.6,1.3-1,0.6c-0.8-1.4-0.1-3.6,0.4-5.1c0.6-1.8,1.6-3.5,2.9-5C947,775.8,947.8,776.6,947.3,777.2L947.3,777.2z"/>
		</g>
		<g>
			<path class="stt1" d="M915.8,648.1c-0.9,3.4-0.7,6.8,0.7,10c0.3,0.7-0.8,1.1-1.1,0.4c-1.4-3.4-1.7-7.1-0.7-10.7
				C914.8,647.1,916,647.3,915.8,648.1L915.8,648.1z"/>
		</g>
	</g>
	<path class="stt1" d="M756,250.5c-53.6,0-97.1,40.1-97.1,89.6c0,28.5,14.4,53.8,36.8,70.2c0.2,10.8,0.5,21.6,0.7,32.4
		c10.8-5.5,21.6-11.1,32.4-16.6c8.6,2.3,17.7,3.5,27.1,3.5c53.6,0,97.1-40.1,97.1-89.6C853.1,290.6,809.6,250.5,756,250.5z"/>
	<line class="stt78" x1="690" y1="309" x2="816" y2="308"/>
	<line class="stt78" x1="690" y1="328" x2="799" y2="327"/>
	<line class="stt78" x1="690" y1="347" x2="816" y2="346"/>
	<line class="stt78" x1="691" y1="363" x2="746" y2="363"/>
	<path class="stt1" d="M445.3,279.6c43.3,0,78.5,32.4,78.5,72.4c0,23-11.6,43.5-29.7,56.8c-0.2,8.7-0.4,17.5-0.6,26.2
		c-8.7-4.5-17.5-8.9-26.2-13.4c-7,1.9-14.3,2.9-21.9,2.9c-43.3,0-78.5-32.4-78.5-72.4C366.8,312,402,279.6,445.3,279.6z"/>
	<line class="stt78" x1="390" y1="324" x2="476" y2="323"/>
	<line class="stt78" x1="390" y1="370" x2="499" y2="369"/>
	<line class="stt78" x1="391.3" y1="387.5" x2="455" y2="388"/>
	<line class="stt78" x1="390" y1="342" x2="409" y2="342"/>
	<line class="stt78" x1="420" y1="342" x2="439" y2="342"/>
	<line class="stt78" x1="450" y1="342" x2="469" y2="342"/>
</g>
</svg>
